<svg width="36" height="37" viewBox="0 0 36 37" fill="none" xmlns="http://www.w3.org/2000/svg">
<path d="M31.5 0.5H4.5C1.96875 0.5 0 2.53906 0 5V25.25C0 27.7812 1.96875 29.75 4.5 29.75H11.25V35.6562C11.25 36.2188 11.6016 36.5 12.0938 36.5C12.2344 36.5 12.375 36.5 12.5859 36.3594L21.375 29.75H31.5C33.9609 29.75 36 27.7812 36 25.25V5C36 2.53906 33.9609 0.5 31.5 0.5ZM33.75 25.25C33.75 26.5156 32.6953 27.5 31.5 27.5H20.6016L19.9688 27.9922L13.5 32.8438V27.5H4.5C3.23438 27.5 2.25 26.5156 2.25 25.25V5C2.25 3.80469 3.23438 2.75 4.5 2.75H31.5C32.6953 2.75 33.75 3.80469 33.75 5V25.25ZM23.2734 17.2344C22.0078 18.7812 20.0391 19.625 18 19.625C15.8906 19.625 13.9922 18.7812 12.6562 17.2344C12.2344 16.7422 11.5312 16.6719 11.0391 17.0938C10.5469 17.5156 10.5469 18.2188 10.8984 18.7109C12.6562 20.75 15.2578 21.875 18 21.875C20.6719 21.875 23.2734 20.75 25.0312 18.7109C25.4531 18.2188 25.3828 17.5156 24.8906 17.0938C24.3984 16.6719 23.6953 16.7422 23.2734 17.2344ZM13.5 13.4375C14.4141 13.4375 15.1875 12.7344 15.1875 11.75C15.1875 10.8359 14.4141 10.0625 13.5 10.0625C12.5156 10.0625 11.8125 10.8359 11.8125 11.75C11.8125 12.7344 12.5156 13.4375 13.5 13.4375ZM22.5 13.4375C23.4141 13.4375 24.1875 12.7344 24.1875 11.75C24.1875 10.8359 23.4141 10.0625 22.5 10.0625C21.5156 10.0625 20.8125 10.8359 20.8125 11.75C20.8125 12.7344 21.5156 13.4375 22.5 13.4375Z" fill="#2351FF"/>
</svg>
