<svg width="41" height="37" viewBox="0 0 41 37" fill="none" xmlns="http://www.w3.org/2000/svg">
<path d="M37.375 0.5H3.625C1.72656 0.5 0.25 2.04688 0.25 3.875V24.125C0.25 26.0234 1.72656 27.5 3.625 27.5H17.125L15.4375 34.25H10.375C9.74219 34.25 9.25 34.8125 9.25 35.375C9.25 36.0078 9.74219 36.5 10.375 36.5H30.625C31.1875 36.5 31.75 36.0078 31.75 35.375C31.75 34.8125 31.1875 34.25 30.625 34.25H25.5625L23.875 27.5H37.375C39.2031 27.5 40.75 26.0234 40.75 24.125V3.875C40.75 2.04688 39.2031 0.5 37.375 0.5ZM17.7578 34.25L18.8828 29.75H22.1172L23.2422 34.25H17.7578ZM38.5 24.125C38.5 24.7578 37.9375 25.25 37.375 25.25H3.625C2.99219 25.25 2.5 24.7578 2.5 24.125V3.875C2.5 3.3125 2.99219 2.75 3.625 2.75H37.375C37.9375 2.75 38.5 3.3125 38.5 3.875V24.125Z" fill="#2351FF"/>
</svg>
