<svg width="37" height="37" viewBox="0 0 37 37" fill="none" xmlns="http://www.w3.org/2000/svg">
<path d="M31.4453 26.2344C29.9688 22.4375 27.5781 21.0312 24.8359 20.6094L35.9453 9.5C37.2812 8.16406 37.2812 6.05469 35.9453 4.71875L32.7812 1.55469C32.1484 0.851562 31.3047 0.5 30.3906 0.5C29.5469 0.5 28.7031 0.851562 28 1.55469L17.875 11.6797L12.1094 3.03125C10.8438 1.27344 9.15625 0.5 7.53906 0.5C2.96875 0.5 -1.53125 6.19531 2.54688 10.6953L10.3516 19.2031L2.33594 27.2188L1 34.8125C0.789062 35.8672 1.77344 36.7109 2.6875 36.5L10.2812 35.1641L16.8906 28.625C17.3125 31.7891 19.2812 36.5 26.875 36.5C33.9766 36.5 37 30.8047 37 24.2656C36.1562 24.8281 33.4844 27.0078 32.5703 27.0078C32.0781 27.0078 31.6562 26.7266 31.4453 26.2344ZM29.6172 3.10156C29.8984 2.82031 30.8828 2.82031 31.2344 3.10156L34.3984 6.26562C34.8203 6.75781 34.8203 7.46094 34.3984 7.88281L31.1641 11.1172L26.3828 6.33594L29.6172 3.10156ZM4.23438 9.14844C3.17969 8.02344 2.96875 6.75781 3.53125 5.49219C4.16406 3.94531 5.92188 2.75 7.53906 2.75C8.59375 2.75 9.50781 3.3125 10.2109 4.36719L16.2578 13.2969L11.8984 17.5859L4.23438 9.14844ZM9.15625 33.125L3.39062 34.1094L4.375 28.3438L24.7656 7.95312L29.5469 12.7344L9.15625 33.125ZM26.875 34.25C24.0625 34.25 22.0234 33.5469 20.7578 32.1406C19.3516 30.5938 18.8594 28.3438 19.0703 26.375L20.2656 25.25L23.0781 22.7188C28.0703 23.0703 28.8438 25.7422 29.3359 27.0078C29.8281 28.4141 31.1641 29.2578 32.5703 29.2578C33.0625 29.2578 33.5547 29.1875 34.0469 28.9062C33.2031 31.6484 31.2344 34.25 26.875 34.25Z" fill="#2351FF"/>
</svg>
