<svg width="36" height="33" viewBox="0 0 36 33" fill="none" xmlns="http://www.w3.org/2000/svg">
<path d="M32.625 0.75H3.375C1.47656 0.75 0 2.29688 0 4.125V28.875C0 30.7734 1.47656 32.25 3.375 32.25H32.625C34.4531 32.25 36 30.7734 36 28.875V4.125C36 2.29688 34.4531 0.75 32.625 0.75ZM2.25 4.125C2.25 3.5625 2.74219 3 3.375 3H6.75V7.5H2.25V4.125ZM33.75 28.875C33.75 29.5078 33.1875 30 32.625 30H3.375C2.74219 30 2.25 29.5078 2.25 28.875V9.75H33.75V28.875ZM33.75 7.5H9V3H32.625C33.1875 3 33.75 3.5625 33.75 4.125V7.5Z" fill="#2351FF"/>
</svg>
