<svg width="41" height="33" viewBox="0 0 41 33" fill="none" xmlns="http://www.w3.org/2000/svg">
<path d="M8.6875 21C8.6875 20.0859 7.91406 19.3125 7 19.3125C6.01562 19.3125 5.3125 20.0859 5.3125 21C5.3125 21.9844 6.01562 22.6875 7 22.6875C7.91406 22.6875 8.6875 21.9844 8.6875 21ZM20.5 9.1875C21.4141 9.1875 22.1875 8.48438 22.1875 7.5C22.1875 6.58594 21.4141 5.8125 20.5 5.8125C19.5156 5.8125 18.8125 6.58594 18.8125 7.5C18.8125 8.48438 19.5156 9.1875 20.5 9.1875ZM30.0625 13.125C30.9766 13.125 31.75 12.4219 31.75 11.4375C31.75 10.5234 30.9766 9.75 30.0625 9.75C29.0781 9.75 28.375 10.5234 28.375 11.4375C28.375 12.4219 29.0781 13.125 30.0625 13.125ZM35.0547 20.8594C34.9844 20.2266 34.3516 19.8047 33.7891 19.9453L24.5781 21.4922C23.875 19.875 22.3281 18.75 20.5 18.75C17.9688 18.75 16 20.7891 16 23.25C16 25.7812 17.9688 27.75 20.5 27.75C22.8203 27.75 24.7188 25.9922 24.9297 23.6719L34.1406 22.125C34.7734 22.0547 35.1953 21.4922 35.0547 20.8594ZM22.75 23.25C22.75 24.5156 21.6953 25.5 20.5 25.5C19.2344 25.5 18.25 24.5156 18.25 23.25C18.25 22.0547 19.2344 21 20.5 21C21.6953 21 22.75 22.0547 22.75 23.25ZM10.9375 9.75C9.95312 9.75 9.25 10.5234 9.25 11.4375C9.25 12.4219 9.95312 13.125 10.9375 13.125C11.8516 13.125 12.625 12.4219 12.625 11.4375C12.625 10.5234 11.8516 9.75 10.9375 9.75ZM40.75 21C40.75 9.82031 31.6797 0.75 20.5 0.75C9.25 0.75 0.25 9.82031 0.25 21C0.25 24.7266 1.23438 28.2422 2.99219 31.1953C3.34375 31.8984 4.11719 32.25 4.89062 32.25H36.0391C36.8125 32.25 37.5859 31.8984 37.9375 31.1953C39.6953 28.2422 40.75 24.7266 40.75 21ZM38.5 21C38.5 24.2344 37.6562 27.3281 36.0391 30L4.89062 30.0703C3.34375 27.3281 2.5 24.2344 2.5 21C2.5 11.0859 10.5156 3 20.5 3C30.4141 3 38.5 11.0859 38.5 21Z" fill="#2351FF"/>
</svg>
