<svg width="37" height="37" viewBox="0 0 37 37" fill="none" xmlns="http://www.w3.org/2000/svg">
<path d="M22.9375 16.25H30.8125C32.2891 16.25 33.0625 14.4922 32.0078 13.3672L28.8438 10.2734L36.7891 2.25781C37 2.04688 37 1.69531 36.7891 1.48438L36.0156 0.710938C35.8047 0.5 35.4531 0.5 35.2422 0.710938L27.2266 8.65625L24.1328 5.5625C23.7812 5.21094 23.3594 5 22.9375 5C22.0234 5 21.25 5.70312 21.25 6.75781V14.6328C21.25 15.5469 21.9531 16.25 22.9375 16.25ZM23.5 8.09375L29.4062 14H23.5V8.09375ZM28.8438 26.7969L32.0078 23.6328C32.2891 23.2812 32.5 22.8594 32.5 22.5078C32.5 21.5938 31.7969 20.75 30.8125 20.75H22.9375C21.9531 20.75 21.25 21.5234 21.25 22.4375V30.3125C21.25 31.8594 23.0078 32.5625 24.1328 31.5078L27.2266 28.4141L35.2422 36.3594C35.4531 36.5703 35.8047 36.5703 36.0156 36.3594L36.7891 35.5859C37 35.375 37 35.0234 36.7891 34.8125L28.8438 26.7969ZM23.5 28.9766V23H29.4062L23.5 28.9766ZM15.0625 20.75H7.1875C5.64062 20.75 4.86719 22.5781 5.99219 23.6328L9.08594 26.7969L1.14062 34.7422C0.929688 35.0234 0.929688 35.375 1.14062 35.5859L1.91406 36.3594C2.125 36.5703 2.47656 36.5703 2.6875 36.3594L10.7031 28.4141L13.8672 31.5078C14.1484 31.8594 14.5703 32 14.9922 32C15.9062 32 16.75 31.3672 16.75 30.3125V22.4375C16.75 21.5234 15.9766 20.75 15.0625 20.75ZM14.5 28.9766L8.52344 23H14.5V28.9766ZM13.8672 5.5625L10.7031 8.65625L2.75781 0.710938C2.47656 0.5 2.125 0.5 1.91406 0.710938L1.14062 1.48438C0.929688 1.69531 0.929688 2.04688 1.14062 2.25781L9.08594 10.2734L5.99219 13.3672C5.64062 13.7188 5.5 14.1406 5.5 14.5625C5.5 15.4766 6.13281 16.25 7.1875 16.25H15.0625C15.9766 16.25 16.75 15.5469 16.75 14.5625V6.6875C16.75 5.21094 14.9219 4.4375 13.8672 5.5625ZM14.5 14H8.52344L14.5 8.09375V14Z" fill="#2351FF"/>
</svg>
