<svg width="36" height="33" viewBox="0 0 36 33" fill="none" xmlns="http://www.w3.org/2000/svg">
<path d="M26.4375 16.5C26.4375 17.4844 27.1406 18.1875 28.125 18.1875C29.0391 18.1875 29.8125 17.4844 29.8125 16.5C29.8125 15.5859 29.0391 14.8125 28.125 14.8125C27.1406 14.8125 26.4375 15.5859 26.4375 16.5ZM23.625 18.1875C24.5391 18.1875 25.3125 17.4844 25.3125 16.5C25.3125 15.5859 24.5391 14.8125 23.625 14.8125C22.6406 14.8125 21.9375 15.5859 21.9375 16.5C21.9375 17.4844 22.6406 18.1875 23.625 18.1875ZM36 9.1875V3.5625C36 1.73438 34.4531 0.1875 32.625 0.1875H3.375C1.47656 0.1875 0 1.73438 0 3.5625V9.1875C0 10.1016 0.28125 10.875 0.84375 11.4375C0.28125 12.0703 0 12.8438 0 13.6875V19.3125C0 20.2266 0.28125 21 0.84375 21.5625C0.28125 22.1953 0 22.9688 0 23.8125V29.4375C0 31.3359 1.47656 32.8125 3.375 32.8125H32.625C34.4531 32.8125 36 31.3359 36 29.4375V23.8125C36 22.9688 35.6484 22.1953 35.0859 21.5625C35.6484 21 36 20.2266 36 19.3125V13.6875C36 12.8438 35.6484 12.0703 35.0859 11.4375C35.6484 10.875 36 10.1016 36 9.1875ZM2.25 9.1875V3.5625C2.25 3 2.74219 2.4375 3.375 2.4375H32.625C33.1875 2.4375 33.75 3 33.75 3.5625V9.1875C33.75 9.82031 33.1875 10.3125 32.625 10.3125H3.375C2.74219 10.3125 2.25 9.82031 2.25 9.1875ZM32.625 12.5625C33.1875 12.5625 33.75 13.125 33.75 13.6875V19.3125C33.75 19.9453 33.1875 20.4375 32.625 20.4375H3.375C2.74219 20.4375 2.25 19.9453 2.25 19.3125V13.6875C2.25 13.125 2.74219 12.5625 3.375 12.5625H32.625ZM33.75 23.8125V29.4375C33.75 30.0703 33.1875 30.5625 32.625 30.5625H3.375C2.74219 30.5625 2.25 30.0703 2.25 29.4375V23.8125C2.25 23.25 2.74219 22.6875 3.375 22.6875H32.625C33.1875 22.6875 33.75 23.25 33.75 23.8125ZM28.125 8.0625C29.0391 8.0625 29.8125 7.35938 29.8125 6.375C29.8125 5.46094 29.0391 4.6875 28.125 4.6875C27.1406 4.6875 26.4375 5.46094 26.4375 6.375C26.4375 7.35938 27.1406 8.0625 28.125 8.0625ZM23.625 8.0625C24.5391 8.0625 25.3125 7.35938 25.3125 6.375C25.3125 5.46094 24.5391 4.6875 23.625 4.6875C22.6406 4.6875 21.9375 5.46094 21.9375 6.375C21.9375 7.35938 22.6406 8.0625 23.625 8.0625ZM28.125 24.9375C27.1406 24.9375 26.4375 25.7109 26.4375 26.625C26.4375 27.6094 27.1406 28.3125 28.125 28.3125C29.0391 28.3125 29.8125 27.6094 29.8125 26.625C29.8125 25.7109 29.0391 24.9375 28.125 24.9375ZM23.625 24.9375C22.6406 24.9375 21.9375 25.7109 21.9375 26.625C21.9375 27.6094 22.6406 28.3125 23.625 28.3125C24.5391 28.3125 25.3125 27.6094 25.3125 26.625C25.3125 25.7109 24.5391 24.9375 23.625 24.9375Z" fill="#2351FF"/>
</svg>
