<svg width="32" height="37" viewBox="0 0 32 37" fill="none" xmlns="http://www.w3.org/2000/svg">
<path d="M25 23C22.9609 23 21.1328 23.9141 19.9375 25.3203L13.1875 21.1016C13.8906 19.4844 13.8906 17.5859 13.1875 15.9688L19.9375 11.75C21.1328 13.1562 22.9609 14 25 14C28.7266 14 31.75 10.9766 31.75 7.25C31.75 3.52344 28.7266 0.5 25 0.5C21.2734 0.5 18.25 3.52344 18.25 7.25C18.25 8.16406 18.3906 9.07812 18.7422 9.85156L11.9922 14.0703C10.7969 12.6641 8.96875 11.75 7 11.75C3.27344 11.75 0.25 14.7734 0.25 18.5C0.25 22.2266 3.27344 25.25 7 25.25C8.96875 25.25 10.7969 24.4062 11.9922 23L18.7422 27.2188C18.3906 27.9922 18.25 28.8359 18.25 29.75C18.25 33.4766 21.2734 36.5 25 36.5C28.7266 36.5 31.75 33.4766 31.75 29.75C31.75 26.0234 28.7266 23 25 23ZM25 2.75C27.4609 2.75 29.5 4.78906 29.5 7.25C29.5 9.78125 27.4609 11.75 25 11.75C22.4688 11.75 20.5 9.78125 20.5 7.25C20.5 4.78906 22.4688 2.75 25 2.75ZM7 23C4.46875 23 2.5 21.0312 2.5 18.5C2.5 16.0391 4.46875 14 7 14C9.46094 14 11.5 16.0391 11.5 18.5C11.5 21.0312 9.46094 23 7 23ZM25 34.25C22.4688 34.25 20.5 32.2812 20.5 29.75C20.5 27.2891 22.4688 25.25 25 25.25C27.4609 25.25 29.5 27.2891 29.5 29.75C29.5 32.2812 27.4609 34.25 25 34.25Z" fill="#2351FF"/>
</svg>
