<svg width="41" height="37" viewBox="0 0 41 37" fill="none" xmlns="http://www.w3.org/2000/svg">
<path d="M40.1875 0.5H0.8125C0.460938 0.5 0.25 0.78125 0.25 1.13281V2.25781C0.25 2.53906 0.460938 2.82031 0.8125 2.82031H2.5V23C2.5 24.2656 3.48438 25.25 4.75 25.25H19.375V28.7656L13.3281 34.7422C13.1172 35.0234 13.1172 35.375 13.3281 35.5859L14.1016 36.3594C14.1719 36.4297 14.3828 36.5 14.5234 36.5C14.6641 36.5 14.8047 36.4297 14.875 36.3594L20.5 30.8047L26.0547 36.3594C26.125 36.4297 26.2656 36.5 26.4062 36.5C26.5469 36.5 26.7578 36.4297 26.8281 36.3594L27.6016 35.5859C27.8125 35.375 27.8125 35.0234 27.6016 34.7422L21.625 28.7656V25.25H36.25C37.4453 25.25 38.5 24.2656 38.5 23V2.82031H40.1875C40.4688 2.82031 40.75 2.53906 40.75 2.25781V1.13281C40.75 0.78125 40.4688 0.5 40.1875 0.5ZM36.25 23H4.75V2.75H36.25V23Z" fill="#2351FF"/>
</svg>
