<svg width="126" height="40" viewBox="0 0 126 40" fill="none" xmlns="http://www.w3.org/2000/svg">
<g clip-path="url(#clip0)">
<path d="M8.12214 39.8956C7.80153 39.8956 7.48092 39.8956 7.16031 39.8956C6.51908 39.8956 5.87786 39.8956 5.12977 39.6867C4.48855 39.5822 3.84733 39.3734 3.31298 39.1645C2.77863 38.8512 2.24427 38.5379 1.81679 38.1201C1.38931 37.7024 0.961832 37.1802 0.748092 36.658C0.427481 36.1358 0.320611 35.6136 0.21374 34.8825C0.10687 34.2559 0 33.5248 0 33.0026C0 32.7937 0 32.0627 0 32.0627V7.93734C0 7.93734 0 7.20627 0 6.99739C0 6.4752 0 5.74413 0.21374 5.01306C0.320611 4.38642 0.534351 3.75979 0.748092 3.2376C1.0687 2.7154 1.38931 2.19321 1.81679 1.77546C2.24427 1.3577 2.77863 0.939948 3.31298 0.731071C3.84733 0.417755 4.48855 0.313316 5.12977 0.208877C5.87786 0.104439 6.62595 0 7.16031 0H8.12214H117.985H118.947C119.481 0 120.229 0 120.977 0.208877C121.618 0.313316 122.153 0.522193 122.794 0.731071C123.328 1.04439 123.863 1.3577 124.29 1.77546C124.718 2.19321 125.145 2.7154 125.359 3.2376C125.679 3.75979 125.786 4.38642 125.893 4.90862C126 5.53525 126.107 6.26632 126.107 6.89295C126.107 7.20627 126.107 7.51958 126.107 7.8329C126.107 8.25065 126.107 8.56397 126.107 8.98172V30.8094C126.107 31.2272 126.107 31.5405 126.107 31.9582C126.107 32.2715 126.107 32.5849 126.107 32.8982C126.107 33.5248 126 34.1514 125.893 34.8825C125.786 35.5091 125.573 36.1358 125.359 36.658C125.038 37.1802 124.718 37.7024 124.29 38.1201C123.863 38.5379 123.328 38.9556 122.794 39.1645C122.26 39.4778 121.725 39.5822 120.977 39.6867C120.336 39.7911 119.588 39.7911 118.947 39.8956C118.626 39.8956 118.305 39.8956 117.985 39.8956H116.809H8.12214Z" fill="black"/>
<path d="M25.542 20.2608C25.542 17.3365 28 15.9788 28.1069 15.8744C26.7176 13.89 24.5802 13.6811 23.8321 13.5767C22.0153 13.3678 20.3053 14.6211 19.3435 14.6211C18.3817 14.6211 16.9924 13.5767 15.4962 13.5767C13.5725 13.5767 11.7557 14.7255 10.687 16.3966C8.65649 19.843 10.1527 25.065 12.1832 27.8848C13.145 29.2425 14.3206 30.8091 15.8168 30.8091C17.313 30.7047 17.8473 29.8691 19.6641 29.8691C21.4809 29.8691 21.9084 30.8091 23.5115 30.8091C25.1145 30.8091 26.0763 29.4514 27.0382 27.9892C28.2137 26.4227 28.6412 24.8561 28.6412 24.7516C28.6412 24.8561 25.542 23.7073 25.542 20.2608Z" fill="white"/>
<path d="M22.6566 11.8013C23.4047 10.8614 24.0459 9.5037 23.8322 8.146C22.6566 8.146 21.2673 8.87707 20.4123 9.92145C19.6642 10.757 19.023 12.1147 19.2367 13.4724C20.4123 13.5768 21.8016 12.8457 22.6566 11.8013Z" fill="white"/>
<path d="M44.2443 27.4673H39.2214L38.0458 31.0182H35.9084L40.6107 17.9634H42.855L47.6642 30.9138H45.5268L44.2443 27.4673ZM39.7558 25.7963H43.8168L41.8932 20.1566H41.6794L39.7558 25.7963Z" fill="white"/>
<path d="M58.0305 26.2138C58.0305 29.1381 56.4274 31.018 53.9694 31.018C52.5801 31.018 51.5114 30.3914 50.9771 29.347V34.0467H48.9465V21.5141H50.8702V23.0807C51.4045 22.0363 52.5801 21.4097 53.9694 21.4097C56.4274 21.4097 58.0305 23.2896 58.0305 26.2138ZM56 26.2138C56 24.334 55.0381 23.0807 53.4351 23.0807C51.9389 23.0807 50.8702 24.334 50.8702 26.2138C50.8702 28.0937 51.9389 29.347 53.4351 29.347C54.9313 29.347 56 28.0937 56 26.2138Z" fill="white"/>
<path d="M68.7175 26.2138C68.7175 29.1381 67.1145 31.018 64.6564 31.018C63.2671 31.018 62.1984 30.3914 61.6641 29.347V34.0467H59.6335V21.5141H61.5572V23.0807C62.0916 22.0363 63.2671 21.4097 64.6564 21.4097C67.0076 21.4097 68.7175 23.2896 68.7175 26.2138ZM66.5801 26.2138C66.5801 24.334 65.6183 23.0807 64.0152 23.0807C62.519 23.0807 61.4503 24.334 61.4503 26.2138C61.4503 28.0937 62.519 29.347 64.0152 29.347C65.6183 29.347 66.5801 28.0937 66.5801 26.2138Z" fill="white"/>
<path d="M75.6642 27.3628C75.7711 28.6161 77.0535 29.4516 78.8703 29.4516C80.5802 29.4516 81.7558 28.6161 81.7558 27.4672C81.7558 26.4229 81.0077 25.9007 79.2978 25.4829L77.5879 25.0652C75.1299 24.4385 74.0612 23.3941 74.0612 21.6187C74.0612 19.4255 76.0917 17.8589 78.8703 17.8589C81.6489 17.8589 83.5726 19.4255 83.6795 21.6187H81.6489C81.5421 20.3654 80.4734 19.5299 78.8703 19.5299C77.2673 19.5299 76.1986 20.3654 76.1986 21.5142C76.1986 22.4542 76.9466 22.9764 78.6566 23.3941L80.1528 23.7075C82.8245 24.3341 84.0001 25.3785 84.0001 27.2584C84.0001 29.6605 81.9696 31.227 78.8703 31.227C75.878 31.227 73.9543 29.7649 73.8474 27.3628H75.6642Z" fill="white"/>
<path d="M88.168 19.2168V21.41H89.9847V22.9766H88.168V28.1985C88.168 29.034 88.4886 29.3473 89.3435 29.3473C89.5573 29.3473 89.8779 29.3473 89.9847 29.3473V30.9139C89.771 31.0184 89.3435 31.0184 88.916 31.0184C86.9924 31.0184 86.2443 30.2873 86.2443 28.5118V22.9766H84.855V21.41H86.2443V19.2168H88.168Z" fill="white"/>
<path d="M91.0535 26.2138C91.0535 23.2896 92.8703 21.4097 95.6489 21.4097C98.4275 21.4097 100.244 23.2896 100.244 26.2138C100.244 29.2426 98.4275 31.018 95.6489 31.018C92.8703 31.018 91.0535 29.2426 91.0535 26.2138ZM98.2138 26.2138C98.2138 24.1251 97.2519 22.9762 95.6489 22.9762C94.0458 22.9762 93.084 24.2295 93.084 26.2138C93.084 28.3026 94.0458 29.4514 95.6489 29.4514C97.2519 29.4514 98.2138 28.3026 98.2138 26.2138Z" fill="white"/>
<path d="M101.847 21.5141H103.771V23.0807C104.092 22.0363 104.947 21.4097 106.122 21.4097C106.443 21.4097 106.657 21.4097 106.763 21.5141V23.2896C106.657 23.1851 106.229 23.1851 105.908 23.1851C104.626 23.1851 103.878 24.0206 103.878 25.3783V31.018H101.847V21.5141Z" fill="white"/>
<path d="M115.954 28.1982C115.741 29.8692 113.924 31.1225 111.786 31.1225C109.008 31.1225 107.191 29.2426 107.191 26.3183C107.191 23.394 108.901 21.4097 111.679 21.4097C114.351 21.4097 116.061 23.1851 116.061 26.1094V26.736H109.221V26.8405C109.221 28.4071 110.29 29.5559 111.786 29.5559C112.855 29.5559 113.71 29.0337 114.031 28.1982H115.954ZM109.221 25.3783H114.031C114.031 23.9162 113.069 22.9762 111.679 22.9762C110.397 22.9762 109.328 23.9162 109.221 25.3783Z" fill="white"/>
<path d="M37.1909 14.4128V8.14648H39.7558C40.9314 8.14648 41.6795 8.77312 41.6795 9.71306C41.6795 10.3397 41.1451 10.9663 40.6108 11.0708V11.1752C41.4657 11.2796 42.0001 11.9063 42.0001 12.6373C42.0001 13.7862 41.1451 14.4128 39.8627 14.4128H37.1909ZM38.1528 10.8619H39.3283C40.1833 10.8619 40.6108 10.5486 40.6108 9.92194C40.6108 9.29531 40.1833 8.98199 39.4352 8.98199H38.0459V10.8619H38.1528ZM39.6489 13.5773C40.5039 13.5773 41.0382 13.264 41.0382 12.5329C41.0382 11.9063 40.5039 11.4885 39.6489 11.4885H38.2596V13.5773H39.6489Z" fill="white"/>
<path d="M42.9619 13.0549C42.9619 12.2194 43.6031 11.6972 44.7787 11.6972L46.0611 11.5927V11.175C46.0611 10.6528 45.7405 10.4439 45.0993 10.4439C44.565 10.4439 44.2444 10.6528 44.1375 10.9661H43.1757C43.2825 10.1306 44.0306 9.6084 45.0993 9.6084C46.2749 9.6084 47.023 10.235 47.023 11.175V14.4126H46.0611V13.7859H45.9543C45.6337 14.3081 45.0993 14.517 44.4581 14.517C43.71 14.517 42.9619 13.9948 42.9619 13.0549ZM46.0611 12.7416V12.3238L44.8856 12.4282C44.2444 12.4282 43.9237 12.7416 43.9237 13.0549C43.9237 13.4726 44.3512 13.6815 44.7787 13.6815C45.5268 13.6815 46.0611 13.2638 46.0611 12.7416Z" fill="white"/>
<path d="M48.4124 8.3552C48.4124 8.04189 48.6261 7.83301 49.0536 7.83301C49.3742 7.83301 49.6948 8.04189 49.6948 8.3552C49.6948 8.66852 49.4811 8.87739 49.0536 8.87739C48.6261 8.87739 48.4124 8.66852 48.4124 8.3552ZM48.5192 9.7129H49.4811V14.4126H48.5192V9.7129Z" fill="white"/>
<path d="M52.7939 12.7416L51.7252 14.4126H50.6565L52.2596 12.115L50.6565 9.71289H51.7252L52.7939 11.3839H52.9008L53.9695 9.71289H55.0382L53.4351 12.0105L55.0382 14.4126H53.9695L52.7939 12.7416Z" fill="white"/>
<path d="M55.7864 13.0549C55.7864 12.2194 56.4276 11.6972 57.6032 11.6972L58.8856 11.5927V11.175C58.8856 10.6528 58.565 10.4439 57.9238 10.4439C57.3894 10.4439 57.0688 10.6528 56.9619 10.9661H56.0001C56.107 10.1306 56.8551 9.6084 57.9238 9.6084C59.0993 9.6084 59.8474 10.235 59.8474 11.175V14.4126H58.8856V13.7859H58.7787C58.4581 14.3081 57.9238 14.517 57.2826 14.517C56.4276 14.517 55.7864 13.9948 55.7864 13.0549ZM58.8856 12.7416V12.3238L57.71 12.4282C57.0688 12.4282 56.7482 12.7416 56.7482 13.0549C56.7482 13.4726 57.1757 13.6815 57.6032 13.6815C58.3513 13.6815 58.8856 13.2638 58.8856 12.7416Z" fill="white"/>
<path d="M61.3435 9.71284H62.3053V10.4439H62.4122C62.5191 10.0262 63.0534 9.6084 63.6947 9.6084C63.8015 9.6084 64.0153 9.6084 64.1221 9.6084V10.5483C64.0153 10.5483 63.8015 10.4439 63.5878 10.4439C62.8397 10.4439 62.4122 10.8617 62.4122 11.5927V14.4126H61.4504V9.71284H61.3435Z" fill="white"/>
<path d="M67.6489 9.71284H68.6108V10.4439H68.7176C68.9314 9.92171 69.4657 9.6084 70.1069 9.6084C71.1757 9.6084 71.8169 10.235 71.8169 11.3839V14.4126H70.855V11.5927C70.855 10.8617 70.5344 10.4439 69.7863 10.4439C69.0382 10.4439 68.6108 10.8617 68.6108 11.5927V14.3081H67.6489V9.71284Z" fill="white"/>
<path d="M72.9924 13.0549C72.9924 12.2194 73.6336 11.6972 74.8092 11.6972L76.0917 11.5927V11.175C76.0917 10.6528 75.7711 10.4439 75.1298 10.4439C74.5955 10.4439 74.2749 10.6528 74.168 10.9661H73.2062C73.313 10.1306 74.0611 9.6084 75.1298 9.6084C76.3054 9.6084 77.0535 10.235 77.0535 11.175V14.4126H76.0917V13.7859H75.9848C75.6642 14.3081 75.1298 14.517 74.4886 14.517C73.6336 14.517 72.9924 13.9948 72.9924 13.0549ZM76.0917 12.7416V12.3238L74.9161 12.4282C74.2749 12.4282 73.9543 12.7416 73.9543 13.0549C73.9543 13.4726 74.3817 13.6815 74.8092 13.6815C75.5573 13.6815 76.0917 13.2638 76.0917 12.7416Z" fill="white"/>
</g>
<defs>
<clipPath id="clip0">
<rect width="126" height="40" fill="white"/>
</clipPath>
</defs>
</svg>
