<svg width="138" height="40" viewBox="0 0 138 40" fill="none" xmlns="http://www.w3.org/2000/svg">
<path d="M132.889 40H5.11111C2.24889 40 0 37.8 0 35V5C0 2.2 2.24889 0 5.11111 0H132.889C135.751 0 138 2.2 138 5V35C138 37.8 135.751 40 132.889 40Z" fill="black"/>
<path d="M69.6134 21.8001C67.1601 21.8001 65.2179 23.6001 65.2179 26.1001C65.2179 28.5001 67.1601 30.4001 69.6134 30.4001C72.0668 30.4001 74.009 28.6001 74.009 26.1001C74.009 23.5001 72.0668 21.8001 69.6134 21.8001ZM69.6134 28.6001C68.2845 28.6001 67.1601 27.5001 67.1601 26.0001C67.1601 24.5001 68.2845 23.4001 69.6134 23.4001C70.9423 23.4001 72.0668 24.4001 72.0668 26.0001C72.0668 27.5001 70.9423 28.6001 69.6134 28.6001ZM60.1068 21.8001C57.6534 21.8001 55.7112 23.6001 55.7112 26.1001C55.7112 28.5001 57.6534 30.4001 60.1068 30.4001C62.5601 30.4001 64.5023 28.6001 64.5023 26.1001C64.5023 23.5001 62.5601 21.8001 60.1068 21.8001ZM60.1068 28.6001C58.7779 28.6001 57.6534 27.5001 57.6534 26.0001C57.6534 24.5001 58.7779 23.4001 60.1068 23.4001C61.4356 23.4001 62.5601 24.4001 62.5601 26.0001C62.5601 27.5001 61.4356 28.6001 60.1068 28.6001ZM48.7601 23.1001V24.9001H53.1557C53.0534 25.9001 52.6445 26.7001 52.1334 27.2001C51.5201 27.8001 50.4979 28.5001 48.7601 28.5001C46.0001 28.5001 43.9557 26.4001 43.9557 23.7001C43.9557 21.0001 46.1023 18.9001 48.7601 18.9001C50.1912 18.9001 51.3157 19.5001 52.1334 20.2001L53.4623 18.9001C52.3379 17.9001 50.9068 17.1001 48.8623 17.1001C45.1823 17.1001 42.0134 20.1001 42.0134 23.7001C42.0134 27.3001 45.1823 30.3001 48.8623 30.3001C50.9068 30.3001 52.3379 29.7001 53.5645 28.4001C54.7912 27.2001 55.2001 25.5001 55.2001 24.2001C55.2001 23.8001 55.2001 23.4001 55.0979 23.1001H48.7601ZM95.169 24.5001C94.7601 23.5001 93.7379 21.8001 91.489 21.8001C89.2401 21.8001 87.4001 23.5001 87.4001 26.1001C87.4001 28.5001 89.2401 30.4001 91.6934 30.4001C93.6356 30.4001 94.8623 29.2001 95.2712 28.5001L93.8401 27.5001C93.329 28.2001 92.7156 28.7001 91.6934 28.7001C90.6712 28.7001 90.0579 28.3001 89.5468 27.4001L95.3734 25.0001L95.169 24.5001ZM89.2401 25.9001C89.2401 24.3001 90.569 23.4001 91.489 23.4001C92.2045 23.4001 92.9201 23.8001 93.1245 24.3001L89.2401 25.9001ZM84.4356 30.0001H86.3779V17.5001H84.4356V30.0001ZM81.369 22.7001C80.8579 22.2001 80.0401 21.7001 79.0179 21.7001C76.8712 21.7001 74.8268 23.6001 74.8268 26.0001C74.8268 28.4001 76.769 30.2001 79.0179 30.2001C80.0401 30.2001 80.8579 29.7001 81.2668 29.2001H81.369V29.8001C81.369 31.4001 80.449 32.3001 79.0179 32.3001C77.8934 32.3001 77.0756 31.5001 76.8712 30.8001L75.2356 31.5001C75.7468 32.6001 76.9734 34.0001 79.1201 34.0001C81.369 34.0001 83.209 32.7001 83.209 29.6001V22.0001H81.369V22.7001ZM79.1201 28.6001C77.7912 28.6001 76.6668 27.5001 76.6668 26.0001C76.6668 24.5001 77.7912 23.4001 79.1201 23.4001C80.449 23.4001 81.4712 24.5001 81.4712 26.0001C81.4712 27.5001 80.449 28.6001 79.1201 28.6001ZM104.062 17.5001H99.4623V30.0001H101.405V25.3001H104.062C106.209 25.3001 108.253 23.8001 108.253 21.4001C108.253 19.0001 106.209 17.5001 104.062 17.5001ZM104.165 23.5001H101.405V19.2001H104.165C105.596 19.2001 106.413 20.4001 106.413 21.3001C106.311 22.4001 105.493 23.5001 104.165 23.5001ZM115.92 21.7001C114.489 21.7001 113.058 22.3001 112.547 23.6001L114.285 24.3001C114.693 23.6001 115.307 23.4001 116.022 23.4001C117.045 23.4001 117.965 24.0001 118.067 25.0001V25.1001C117.76 24.9001 116.942 24.6001 116.125 24.6001C114.285 24.6001 112.445 25.6001 112.445 27.4001C112.445 29.1001 113.978 30.2001 115.613 30.2001C116.942 30.2001 117.556 29.6001 118.067 29.0001H118.169V30.0001H120.009V25.2001C119.805 23.0001 118.067 21.7001 115.92 21.7001ZM115.716 28.6001C115.102 28.6001 114.182 28.3001 114.182 27.5001C114.182 26.5001 115.307 26.2001 116.227 26.2001C117.045 26.2001 117.453 26.4001 117.965 26.6001C117.76 27.8001 116.738 28.6001 115.716 28.6001ZM126.449 22.0001L124.302 27.4001H124.2L121.951 22.0001H119.907L123.28 29.6001L121.338 33.8001H123.28L128.493 22.0001H126.449ZM109.276 30.0001H111.218V17.5001H109.276V30.0001Z" fill="white"/>
<path d="M10.6311 7.5C10.3244 7.9 10.2222 8.3 10.2222 9V31C10.2222 31.6 10.4266 32.1 10.7333 32.4L10.8355 32.5L23.5111 20.1V20V19.9L10.6311 7.5Z" fill="#3ACBF1"/>
<path d="M27.6 24.3003L23.4089 20.2003V20.0003V19.9003L27.6 15.8003L27.7023 15.9003L32.7112 18.7003C34.1423 19.5003 34.1423 20.8003 32.7112 21.6003L27.6 24.3003Z" fill="url(#paint0_linear)"/>
<path d="M27.7022 24.2L23.4089 20L10.6311 32.5C11.1422 33 11.8578 33 12.7778 32.6L27.7022 24.2Z" fill="url(#paint1_linear)"/>
<path d="M27.7022 15.8001L12.7778 7.50011C11.8578 7.00011 11.1422 7.10011 10.6311 7.60011L23.4089 20.0001L27.7022 15.8001Z" fill="url(#paint2_linear)"/>
<path d="M42.2178 13V7H44.0578C44.9778 7 45.7955 7.3 46.3067 7.8C46.92 8.4 47.1244 9.1 47.1244 10C47.1244 10.9 46.8178 11.6 46.3067 12.2C45.6933 12.8 44.9778 13 44.0578 13H42.2178ZM43.0355 12.3H44.16C44.8755 12.3 45.3867 12.1 45.7955 11.7C46.2044 11.3 46.4089 10.7 46.4089 10C46.4089 9.3 46.2044 8.7 45.7955 8.3C45.3867 7.9 44.7733 7.7 44.16 7.7H43.0355V12.3Z" fill="white" stroke="white" stroke-width="0.2" stroke-miterlimit="10"/>
<path d="M48.3511 13V7H49.1689V13H48.3511Z" fill="white" stroke="white" stroke-width="0.2" stroke-miterlimit="10"/>
<path d="M52.2355 13.0998C51.8266 13.0998 51.3155 12.9998 50.9066 12.6998C50.4978 12.3998 50.1911 11.9998 50.0889 11.4998L50.8044 11.1998C50.9066 11.4998 51.1111 11.7998 51.3155 11.9998C51.6222 12.1998 51.9289 12.2998 52.2355 12.2998C52.5422 12.2998 52.8489 12.1998 53.1555 11.9998C53.36 11.7998 53.5644 11.5998 53.5644 11.2998C53.5644 10.9998 53.4622 10.6998 53.1555 10.4998C52.9511 10.2998 52.5422 10.0998 52.0311 9.9998C51.52 9.7998 51.1111 9.5998 50.8044 9.3998C50.4978 9.0998 50.3955 8.7998 50.3955 8.3998C50.3955 7.9998 50.6 7.5998 50.9066 7.2998C51.2133 6.9998 51.7244 6.7998 52.2355 6.7998C52.7466 6.7998 53.1555 6.8998 53.4622 7.1998C53.7689 7.4998 53.9733 7.6998 54.0755 7.9998L53.36 8.2998C53.2578 8.0998 53.1555 7.8998 52.9511 7.7998C52.7466 7.5998 52.44 7.5998 52.1333 7.5998C51.8266 7.5998 51.6222 7.6998 51.3155 7.7998C51.2133 7.9998 51.1111 8.1998 51.1111 8.4998C51.1111 8.6998 51.2133 8.8998 51.4178 9.0998C51.6222 9.2998 51.9289 9.3998 52.3378 9.4998C52.6444 9.5998 52.8489 9.6998 53.0533 9.7998C53.2578 9.8998 53.4622 9.9998 53.6666 10.1998C53.8711 10.2998 54.0755 10.4998 54.1777 10.7998C54.28 10.9998 54.3822 11.2998 54.3822 11.5998C54.3822 11.8998 54.28 12.1998 54.1777 12.3998C54.0755 12.5998 53.8711 12.7998 53.6666 12.8998C53.4622 12.9998 53.2578 13.0998 53.0533 13.1998C52.7466 13.0998 52.5422 13.0998 52.2355 13.0998Z" fill="white" stroke="white" stroke-width="0.2" stroke-miterlimit="10"/>
<path d="M56.2223 13H55.4045V7H57.449C57.9601 7 58.369 7.2 58.7779 7.5C59.1868 7.8 59.3912 8.3 59.3912 8.8C59.3912 9.3 59.1868 9.7 58.7779 10.1C58.369 10.4 57.9601 10.6 57.449 10.6H56.2223V13ZM56.2223 9.8H57.5512C57.8579 9.8 58.1645 9.7 58.369 9.5C58.5734 9.3 58.6757 9 58.6757 8.8C58.6757 8.6 58.5734 8.3 58.369 8.1C58.1645 7.9 57.8579 7.8 57.5512 7.8H56.2223V9.8Z" fill="white" stroke="white" stroke-width="0.2" stroke-miterlimit="10"/>
<path d="M65.4222 12.1999C64.8088 12.7999 64.0933 13.0999 63.1733 13.0999C62.2533 13.0999 61.5377 12.7999 60.9244 12.1999C60.3111 11.5999 60.0044 10.8999 60.0044 9.9999C60.0044 9.0999 60.3111 8.3999 60.9244 7.7999C61.5377 7.1999 62.2533 6.8999 63.1733 6.8999C64.0933 6.8999 64.8088 7.1999 65.4222 7.7999C66.0355 8.3999 66.3422 9.0999 66.3422 9.9999C66.3422 10.8999 66.0355 11.5999 65.4222 12.1999ZM61.5377 11.6999C61.9466 12.0999 62.56 12.3999 63.1733 12.3999C63.7866 12.3999 64.4 12.1999 64.8088 11.6999C65.2177 11.2999 65.5244 10.6999 65.5244 9.9999C65.5244 9.2999 65.32 8.6999 64.8088 8.2999C64.4 7.8999 63.7866 7.5999 63.1733 7.5999C62.56 7.5999 61.9466 7.7999 61.5377 8.2999C61.1288 8.6999 60.8222 9.2999 60.8222 9.9999C60.8222 10.6999 61.1288 11.2999 61.5377 11.6999Z" fill="white" stroke="white" stroke-width="0.2" stroke-miterlimit="10"/>
<path d="M67.4666 13V7H68.3866L71.351 11.7V10.5V7H72.1688V13H71.351L68.1821 8.1V9.3V13H67.4666Z" fill="white" stroke="white" stroke-width="0.2" stroke-miterlimit="10"/>
<path d="M73.6001 12.9999V6.9999H74.4179V12.9999H73.6001ZM74.3156 6.4999H73.6001L74.009 5.3999H74.8268L74.3156 6.4999Z" fill="white" stroke="white" stroke-width="0.2" stroke-miterlimit="10"/>
<path d="M77.28 13L75.1333 7H76.0533L77.6889 11.9L79.5289 7H80.4489L78.2 13H77.28Z" fill="white" stroke="white" stroke-width="0.2" stroke-miterlimit="10"/>
<path d="M84.8444 7.7H82.0844V9.6H84.6399V10.3H82.0844V12.2H84.8444V13H81.2666V7H84.8444V7.7Z" fill="white" stroke="white" stroke-width="0.2" stroke-miterlimit="10"/>
<path d="M86.071 13V7H86.8888V12.3H89.5466V13H86.071Z" fill="white" stroke="white" stroke-width="0.2" stroke-miterlimit="10"/>
<path d="M92.6133 13V7H93.5333L96.4977 11.7V10.5V7H97.3155V13H96.4977L93.3288 8.1V9.3V13H92.6133Z" fill="white" stroke="white" stroke-width="0.2" stroke-miterlimit="10"/>
<path d="M103.755 12.1999C103.142 12.7999 102.427 13.0999 101.507 13.0999C100.587 13.0999 99.871 12.7999 99.2576 12.1999C98.6443 11.5999 98.3376 10.8999 98.3376 9.9999C98.3376 9.0999 98.6443 8.3999 99.2576 7.7999C99.871 7.1999 100.587 6.8999 101.507 6.8999C102.427 6.8999 103.142 7.1999 103.755 7.7999C104.369 8.3999 104.675 9.0999 104.675 9.9999C104.573 10.8999 104.267 11.5999 103.755 12.1999ZM99.7688 11.6999C100.178 12.0999 100.791 12.3999 101.404 12.3999C102.018 12.3999 102.631 12.1999 103.04 11.6999C103.449 11.2999 103.755 10.6999 103.755 9.9999C103.755 9.2999 103.551 8.6999 103.04 8.2999C102.631 7.8999 102.018 7.5999 101.404 7.5999C100.791 7.5999 100.178 7.7999 99.7688 8.2999C99.3599 8.6999 99.1554 9.2999 99.1554 9.9999C99.1554 10.6999 99.3599 11.2999 99.7688 11.6999Z" fill="white" stroke="white" stroke-width="0.2" stroke-miterlimit="10"/>
<defs>
<linearGradient id="paint0_linear" x1="31.7796" y1="20.0007" x2="7.06554" y2="20.0007" gradientUnits="userSpaceOnUse">
<stop stop-color="#FFDC3D"/>
<stop offset="0.1941" stop-color="#FFCB3C"/>
<stop offset="0.5469" stop-color="#FFAF39"/>
<stop offset="0.8279" stop-color="#FF9E36"/>
<stop offset="1" stop-color="#FF9835"/>
</linearGradient>
<linearGradient id="paint1_linear" x1="25.3659" y1="22.2932" x2="2.63192" y2="45.5324" gradientUnits="userSpaceOnUse">
<stop stop-color="#F8404B"/>
<stop offset="1" stop-color="#CD156B"/>
</linearGradient>
<linearGradient id="paint2_linear" x1="2.01755" y1="-5.13389" x2="20.5793" y2="13.8403" gradientUnits="userSpaceOnUse">
<stop stop-color="#059E72"/>
<stop offset="0.3168" stop-color="#45AA72"/>
<stop offset="0.7398" stop-color="#66B970"/>
<stop offset="1" stop-color="#71C070"/>
</linearGradient>
</defs>
</svg>
