<svg width="41" height="37" viewBox="0 0 41 37" fill="none" xmlns="http://www.w3.org/2000/svg">
<path d="M5.875 25.25H1.375C0.742188 25.25 0.25 25.8125 0.25 26.375V35.375C0.25 36.0078 0.742188 36.5 1.375 36.5H5.875C6.4375 36.5 7 36.0078 7 35.375V26.375C7 25.8125 6.4375 25.25 5.875 25.25ZM4.75 34.25H2.5V27.5H4.75V34.25ZM39.625 14H35.125C34.4922 14 34 14.5625 34 15.125V35.375C34 36.0078 34.4922 36.5 35.125 36.5H39.625C40.1875 36.5 40.75 36.0078 40.75 35.375V15.125C40.75 14.5625 40.1875 14 39.625 14ZM38.5 34.25H36.25V16.25H38.5V34.25ZM35.5469 6.75781C36.1094 7.10938 36.6719 7.25 37.375 7.25C39.2031 7.25 40.75 5.77344 40.75 3.875C40.75 2.04688 39.2031 0.5 37.375 0.5C35.4766 0.5 34 2.04688 34 3.875C34 4.29688 34.0703 4.64844 34.1406 5L27.8828 10.0625C27.3203 9.71094 26.7578 9.5 26.125 9.5C25.4219 9.5 24.8594 9.71094 24.2969 10.0625L18.0391 5C18.1094 4.64844 18.25 4.29688 18.25 3.875C18.25 2.04688 16.7031 0.5 14.875 0.5C12.9766 0.5 11.5 2.04688 11.5 3.875C11.5 4.4375 11.5703 4.92969 11.7812 5.35156L5.03125 12.1016C4.60938 11.8906 4.11719 11.75 3.625 11.75C1.72656 11.75 0.25 13.2969 0.25 15.125C0.25 17.0234 1.72656 18.5 3.625 18.5C5.45312 18.5 7 17.0234 7 15.125C7 14.6328 6.85938 14.1406 6.64844 13.7188L13.3984 6.96875C13.8203 7.17969 14.3125 7.25 14.875 7.25C15.5078 7.25 16.0703 7.10938 16.6328 6.75781L22.8906 11.8203C22.8203 12.1719 22.75 12.5234 22.75 12.875C22.75 14.7734 24.2266 16.25 26.125 16.25C27.9531 16.25 29.5 14.7734 29.5 12.875C29.5 12.5234 29.3594 12.1719 29.2891 11.8203L35.5469 6.75781ZM37.375 2.75C37.9375 2.75 38.5 3.3125 38.5 3.875C38.5 4.50781 37.9375 5 37.375 5C36.7422 5 36.25 4.50781 36.25 3.875C36.25 3.3125 36.7422 2.75 37.375 2.75ZM3.625 16.25C2.99219 16.25 2.5 15.7578 2.5 15.125C2.5 14.5625 2.99219 14 3.625 14C4.1875 14 4.75 14.5625 4.75 15.125C4.75 15.7578 4.1875 16.25 3.625 16.25ZM14.875 5C14.2422 5 13.75 4.50781 13.75 3.875C13.75 3.3125 14.2422 2.75 14.875 2.75C15.4375 2.75 16 3.3125 16 3.875C16 4.50781 15.4375 5 14.875 5ZM26.125 14C25.4922 14 25 13.5078 25 12.875C25 12.3125 25.4922 11.75 26.125 11.75C26.6875 11.75 27.25 12.3125 27.25 12.875C27.25 13.5078 26.6875 14 26.125 14ZM17.125 14H12.625C11.9922 14 11.5 14.5625 11.5 15.125V35.375C11.5 36.0078 11.9922 36.5 12.625 36.5H17.125C17.6875 36.5 18.25 36.0078 18.25 35.375V15.125C18.25 14.5625 17.6875 14 17.125 14ZM16 34.25H13.75V16.25H16V34.25ZM28.375 23H23.875C23.2422 23 22.75 23.5625 22.75 24.125V35.375C22.75 36.0078 23.2422 36.5 23.875 36.5H28.375C28.9375 36.5 29.5 36.0078 29.5 35.375V24.125C29.5 23.5625 28.9375 23 28.375 23ZM27.25 34.25H25V25.25H27.25V34.25Z" fill="#2351FF"/>
</svg>
