<svg width="45" height="37" viewBox="0 0 45 37" fill="none" xmlns="http://www.w3.org/2000/svg">
<path d="M36.0703 14.7734L34.7344 13.0156L31.3594 15.5469L32.6953 17.3047L36.0703 14.7734ZM40.5 14C41.4141 14 42.2578 13.7188 42.9609 13.2969C43.4531 12.9453 43.875 12.5234 44.2266 12.0312C44.7188 11.3281 45 10.4844 45 9.5C45 8.58594 44.7188 7.74219 44.2266 7.03906C44.0156 6.75781 43.875 6.54688 43.6641 6.33594C43.4531 6.125 43.2422 5.98438 42.9609 5.77344C42.2578 5.28125 41.4141 5 40.5 5C39.5156 5 38.6719 5.28125 37.9688 5.77344C37.4766 6.125 37.0547 6.54688 36.7031 7.03906C36.2812 7.74219 36 8.58594 36 9.5C36 12.0312 37.9688 14 40.5 14ZM40.5 7.25C41.6953 7.25 42.75 8.30469 42.75 9.5C42.75 10.7656 41.6953 11.75 40.5 11.75C39.2344 11.75 38.25 10.7656 38.25 9.5C38.25 8.30469 39.2344 7.25 40.5 7.25ZM6.96094 18.1484C6.25781 17.6562 5.41406 17.375 4.5 17.375C3.51562 17.375 2.67188 17.6562 1.96875 18.1484C1.47656 18.5 1.05469 18.9219 0.703125 19.4141C0.28125 20.1172 0 20.9609 0 21.875C0 24.4062 1.96875 26.375 4.5 26.375C6.96094 26.375 9 24.4062 9 21.875C9 20.9609 8.71875 20.1172 8.22656 19.4141C7.875 18.9219 7.45312 18.5 6.96094 18.1484ZM4.5 24.125C3.23438 24.125 2.25 23.1406 2.25 21.875C2.25 20.6797 3.23438 19.625 4.5 19.625C5.69531 19.625 6.75 20.6797 6.75 21.875C6.75 23.1406 5.69531 24.125 4.5 24.125ZM10.6875 23H14.0625V20.75H10.6875V23ZM43.6641 28.8359C43.4531 28.625 43.2422 28.4844 42.9609 28.2734C42.2578 27.7812 41.4141 27.5 40.5 27.5C39.5156 27.5 38.6719 27.7812 37.9688 28.2734C37.6875 28.4844 37.4766 28.625 37.3359 28.8359L30.8672 24.9688C31.2188 23.9844 31.5 23 31.5 21.875C31.5 17.5859 27.9141 14 23.625 14C22.7812 14 22.0781 14.2109 21.3047 14.4219L18.5625 8.51562C19.5469 7.67188 20.25 6.40625 20.25 5C20.25 4.08594 19.9688 3.24219 19.4766 2.53906C19.125 2.04688 18.7031 1.625 18.2109 1.27344C17.5078 0.78125 16.6641 0.5 15.75 0.5C14.7656 0.5 13.9219 0.78125 13.2188 1.27344C12.7266 1.625 12.3047 2.04688 11.9531 2.53906C11.5312 3.24219 11.25 4.08594 11.25 5C11.25 7.53125 13.2188 9.5 15.75 9.5C16.0312 9.5 16.2422 9.5 16.5234 9.42969L19.2656 15.3359C17.1562 16.7422 15.75 19.1328 15.75 21.875C15.75 26.2344 19.2656 29.75 23.625 29.75C26.0859 29.75 28.1953 28.625 29.6719 26.8672L36.1406 30.7344C36.0703 31.1562 36 31.5781 36 32C36 34.5312 37.9688 36.5 40.5 36.5C41.4141 36.5 42.2578 36.2188 42.9609 35.7969C43.4531 35.4453 43.875 35.0234 44.2266 34.5312C44.7188 33.8281 45 32.9844 45 32C45 31.0859 44.7188 30.2422 44.2266 29.5391C44.0156 29.2578 43.875 29.0469 43.6641 28.8359ZM15.75 7.25C14.4844 7.25 13.5 6.26562 13.5 5C13.5 3.80469 14.4844 2.75 15.75 2.75C16.9453 2.75 18 3.80469 18 5C18 6.26562 16.9453 7.25 15.75 7.25ZM23.625 27.5C20.4609 27.5 18 25.0391 18 21.875C18 18.7812 20.4609 16.25 23.625 16.25C26.7188 16.25 29.25 18.7812 29.25 21.875C29.25 25.0391 26.7188 27.5 23.625 27.5ZM40.5 34.25C39.2344 34.25 38.25 33.2656 38.25 32C38.25 30.8047 39.2344 29.75 40.5 29.75C41.6953 29.75 42.75 30.8047 42.75 32C42.75 33.2656 41.6953 34.25 40.5 34.25Z" fill="#2351FF"/>
</svg>
