<svg width="37" height="27" viewBox="0 0 37 27" fill="none" xmlns="http://www.w3.org/2000/svg">
<path d="M36.7188 8.50781C37.0703 8.15625 37.0703 7.66406 36.7188 7.3125L30.25 0.84375C29.8984 0.492188 29.3359 0.492188 29.0547 0.84375L28.4922 1.33594C28.2109 1.6875 28.2109 2.17969 28.4922 2.53125L32.7812 6.75H1.84375C1.35156 6.75 1 7.17188 1 7.59375V8.15625C1 8.64844 1.35156 9 1.84375 9H32.7812L28.4922 13.2891C28.2109 13.6406 28.2109 14.1328 28.4922 14.4844L29.0547 14.9766C29.3359 15.3281 29.8984 15.3281 30.25 14.9766L36.7188 8.50781ZM1.21094 19.7578L7.75 26.2266C8.03125 26.5781 8.59375 26.5781 8.875 26.2266L9.4375 25.7344C9.71875 25.3828 9.71875 24.8906 9.4375 24.5391L5.14844 20.25H36.1562C36.5781 20.25 37 19.8984 37 19.4062V18.8438C37 18.4219 36.5781 18 36.1562 18H5.14844L9.4375 13.7812C9.71875 13.4297 9.71875 12.9375 9.4375 12.5859L8.875 12.0938C8.59375 11.7422 8.03125 11.7422 7.75 12.0938L1.21094 18.5625C0.859375 18.9141 0.859375 19.4062 1.21094 19.7578Z" fill="#2351FF"/>
</svg>
