<svg width="32" height="37" viewBox="0 0 32 37" fill="none" xmlns="http://www.w3.org/2000/svg">
<path d="M25 7.25V25.25H7V7.25H25ZM28.375 0.5H3.625C1.72656 0.5 0.25 2.04688 0.25 3.875V33.125C0.25 35.0234 1.72656 36.5 3.625 36.5H28.375C30.2031 36.5 31.75 35.0234 31.75 33.125V3.875C31.75 2.04688 30.2031 0.5 28.375 0.5ZM3.625 34.25C2.99219 34.25 2.5 33.7578 2.5 33.125V3.875C2.5 3.3125 2.99219 2.75 3.625 2.75H28.375C28.9375 2.75 29.5 3.3125 29.5 3.875V33.125C29.5 33.7578 28.9375 34.25 28.375 34.25H3.625ZM26.4062 5H5.59375C5.10156 5 4.75 5.42188 4.75 5.84375V26.6562C4.75 27.1484 5.10156 27.5 5.59375 27.5H26.4062C26.8281 27.5 27.25 27.1484 27.25 26.6562V5.84375C27.25 5.42188 26.8281 5 26.4062 5ZM19.6562 29.75H12.3438C11.8516 29.75 11.5 30.1719 11.5 30.5938V31.1562C11.5 31.6484 11.8516 32 12.3438 32H19.6562C20.0781 32 20.5 31.6484 20.5 31.1562V30.5938C20.5 30.1719 20.0781 29.75 19.6562 29.75Z" fill="#2351FF"/>
</svg>
