<svg width="27" height="37" viewBox="0 0 27 37" fill="none" xmlns="http://www.w3.org/2000/svg">
<path d="M25.9453 7.39062L20.1094 1.48438C19.4766 0.851562 18.5625 0.5 17.7188 0.5H3.375C1.47656 0.5 0 2.04688 0 3.875V33.125C0 35.0234 1.47656 36.5 3.375 36.5H23.625C25.4531 36.5 27 35.0234 27 33.125V9.78125C27 8.9375 26.5781 8.02344 25.9453 7.39062ZM24.3984 9.00781C24.5391 9.14844 24.6094 9.35938 24.6797 9.5H18V2.82031C18.1406 2.89062 18.3516 2.96094 18.4922 3.10156L24.3984 9.00781ZM23.625 34.25H3.375C2.74219 34.25 2.25 33.7578 2.25 33.125V3.875C2.25 3.3125 2.74219 2.75 3.375 2.75H15.75V10.0625C15.75 11.0469 16.4531 11.75 17.4375 11.75H24.75V33.125C24.75 33.7578 24.1875 34.25 23.625 34.25ZM20.25 17.0938C20.25 16.6719 19.8281 16.25 19.4062 16.25H7.59375C7.10156 16.25 6.75 16.6719 6.75 17.0938V17.6562C6.75 18.1484 7.10156 18.5 7.59375 18.5H19.4062C19.8281 18.5 20.25 18.1484 20.25 17.6562V17.0938ZM20.25 21.5938C20.25 21.1719 19.8281 20.75 19.4062 20.75H7.59375C7.10156 20.75 6.75 21.1719 6.75 21.5938V22.1562C6.75 22.6484 7.10156 23 7.59375 23H19.4062C19.8281 23 20.25 22.6484 20.25 22.1562V21.5938ZM20.25 26.0938C20.25 25.6719 19.8281 25.25 19.4062 25.25H7.59375C7.10156 25.25 6.75 25.6719 6.75 26.0938V26.6562C6.75 27.1484 7.10156 27.5 7.59375 27.5H19.4062C19.8281 27.5 20.25 27.1484 20.25 26.6562V26.0938Z" fill="#2351FF"/>
</svg>
