<svg width="36" height="37" viewBox="0 0 36 37" fill="none" xmlns="http://www.w3.org/2000/svg">
<path d="M16.3125 17.9375C16.3125 17.375 15.75 16.8125 15.1875 16.8125H14.0625C13.4297 16.8125 12.9375 17.375 12.9375 17.9375V19.0625C12.9375 19.6953 13.4297 20.1875 14.0625 20.1875H15.1875C15.75 20.1875 16.3125 19.6953 16.3125 19.0625V17.9375ZM9.5625 17.9375C9.5625 17.375 9 16.8125 8.4375 16.8125H7.3125C6.67969 16.8125 6.1875 17.375 6.1875 17.9375V19.0625C6.1875 19.6953 6.67969 20.1875 7.3125 20.1875H8.4375C9 20.1875 9.5625 19.6953 9.5625 19.0625V17.9375ZM11.8125 21.3125H10.6875C10.0547 21.3125 9.5625 21.875 9.5625 22.4375V23.5625C9.5625 24.1953 10.0547 24.6875 10.6875 24.6875H11.8125C12.375 24.6875 12.9375 24.1953 12.9375 23.5625V22.4375C12.9375 21.875 12.375 21.3125 11.8125 21.3125ZM18.5625 21.3125H17.4375C16.8047 21.3125 16.3125 21.875 16.3125 22.4375V23.5625C16.3125 24.1953 16.8047 24.6875 17.4375 24.6875H18.5625C19.125 24.6875 19.6875 24.1953 19.6875 23.5625V22.4375C19.6875 21.875 19.125 21.3125 18.5625 21.3125ZM23.0625 17.9375C23.0625 17.375 22.5 16.8125 21.9375 16.8125H20.8125C20.1797 16.8125 19.6875 17.375 19.6875 17.9375V19.0625C19.6875 19.6953 20.1797 20.1875 20.8125 20.1875H21.9375C22.5 20.1875 23.0625 19.6953 23.0625 19.0625V17.9375ZM35.9297 27.2188L34.1016 14.7031C33.8906 13.0156 32.4844 11.75 30.7969 11.75H13.5V7.25H19.125C19.6875 7.25 20.25 6.75781 20.25 6.125V1.625C20.25 1.0625 19.6875 0.5 19.125 0.5H5.625C4.99219 0.5 4.5 1.0625 4.5 1.625V6.125C4.5 6.75781 4.99219 7.25 5.625 7.25H11.25V11.75H5.13281C3.44531 11.75 2.03906 13.0156 1.82812 14.7031L0 27.2188C0 27.4297 0 27.6406 0 27.8516V33.125C0 35.0234 1.47656 36.5 3.375 36.5H32.625C34.4531 36.5 36 35.0234 36 33.125V27.8516C36 27.6406 35.9297 27.4297 35.9297 27.2188ZM6.75 5V2.75H18V5H6.75ZM4.00781 14.9844C4.07812 14.4219 4.57031 14 5.13281 14H30.7969C31.3594 14 31.8516 14.4219 31.9219 14.9844L33.6797 27.5H2.25L4.00781 14.9844ZM33.75 33.125C33.75 33.7578 33.1875 34.25 32.625 34.25H3.375C2.74219 34.25 2.25 33.7578 2.25 33.125V29.75H33.75V33.125ZM28.6875 16.8125H27.5625C26.9297 16.8125 26.4375 17.375 26.4375 17.9375V19.0625C26.4375 19.6953 26.9297 20.1875 27.5625 20.1875H28.6875C29.25 20.1875 29.8125 19.6953 29.8125 19.0625V17.9375C29.8125 17.375 29.25 16.8125 28.6875 16.8125ZM25.3125 21.3125H24.1875C23.5547 21.3125 23.0625 21.875 23.0625 22.4375V23.5625C23.0625 24.1953 23.5547 24.6875 24.1875 24.6875H25.3125C25.875 24.6875 26.4375 24.1953 26.4375 23.5625V22.4375C26.4375 21.875 25.875 21.3125 25.3125 21.3125Z" fill="#2351FF"/>
</svg>
