<svg width="23" height="37" viewBox="0 0 23 37" fill="none" xmlns="http://www.w3.org/2000/svg">
<path d="M13.75 29.75C13.75 28.5547 12.6953 27.5 11.5 27.5C10.2344 27.5 9.25 28.5547 9.25 29.75C9.25 31.0156 10.2344 32 11.5 32C12.6953 32 13.75 31.0156 13.75 29.75ZM22.75 3.875C22.75 2.04688 21.2031 0.5 19.375 0.5H3.625C1.72656 0.5 0.25 2.04688 0.25 3.875V33.125C0.25 35.0234 1.72656 36.5 3.625 36.5H19.375C21.2031 36.5 22.75 35.0234 22.75 33.125V3.875ZM20.5 3.875V33.125C20.5 33.7578 19.9375 34.25 19.375 34.25H3.625C2.99219 34.25 2.5 33.7578 2.5 33.125V3.875C2.5 3.3125 2.99219 2.75 3.625 2.75H19.375C19.9375 2.75 20.5 3.3125 20.5 3.875Z" fill="#2351FF"/>
</svg>
