<svg width="108" height="69" viewBox="0 0 108 69" fill="none" xmlns="http://www.w3.org/2000/svg">
<g clip-path="url(#clip0)">
<path d="M74.1934 44.2125L63.9972 3.76581C63.284 1.50147 61.2163 0 58.8397 0H49.1902C46.8133 0 44.7456 1.52536 44.0324 3.76581L33.8127 44.2125C33.6938 44.7365 33.7889 45.2846 34.1216 45.7138C34.4541 46.1426 34.9533 46.3809 35.4999 46.3809H49.6654C50.6874 46.3809 51.5429 45.547 51.5429 44.4982V42.1862C51.5429 40.9944 52.3987 40.9232 53.5159 40.9232C53.6582 40.9232 53.8246 40.9232 53.9912 40.9232C55.3458 40.9232 56.4391 40.8278 56.4391 42.1862V44.4982C56.4391 45.5231 57.2712 46.3809 58.3169 46.3809H72.5296C73.0763 46.3809 73.5754 46.1426 73.908 45.7138C74.2171 45.2846 74.3123 44.7365 74.1934 44.2125ZM59.9568 27.9098H48.0731C47.2886 27.9098 46.7895 27.0516 47.1939 26.3842L53.1354 16.0642C53.5397 15.3731 54.5141 15.3731 54.8943 16.0642L60.8362 26.3842C61.2163 27.0516 60.741 27.9098 59.9568 27.9098Z" fill="#999999"/>
<path d="M13.4203 68.2612C13.5392 68.5469 13.4441 68.6664 13.1112 68.6664H12.4935C12.0416 68.6664 11.7803 68.5468 11.709 68.2846L10.0928 64.1619H3.29542L1.67928 68.2846C1.58409 68.6186 1.44142 68.6664 0.918559 68.6664H0.324323C0.0154944 68.6664 -0.0558772 68.5468 0.0392322 68.2612L5.83845 53.5316C5.93356 53.2934 6.10004 53.1738 6.38514 53.1738H7.02693C7.31202 53.1738 7.50224 53.2934 7.59735 53.5316L13.4203 68.2612ZM7.05066 56.1533C6.86045 55.5574 6.74152 55.0568 6.74152 54.6518H6.62291C6.62291 55.1045 6.5278 55.6052 6.36132 56.1533L3.74692 62.827H9.64125L7.05066 56.1533Z" fill="#999999"/>
<path d="M23.4739 57.4879C23.7351 57.4879 23.8541 57.6068 23.8541 57.8691V67.045C23.8541 67.7128 23.7117 67.9505 23.0224 68.2368C21.8815 68.7137 20.5031 68.9523 18.9579 68.9523C16.1061 68.9523 14.656 67.5455 14.656 64.7099V57.8692C14.656 57.5834 14.7749 57.488 15.0365 57.488H15.7021C16.0348 57.488 16.0823 57.6069 16.0823 57.8692V64.6622C16.0823 66.64 17.1043 67.641 19.1244 67.641C20.2177 67.641 21.1446 67.4978 21.9528 67.1647C22.2141 67.0451 22.333 66.8308 22.333 66.5445V57.869C22.333 57.6068 22.4519 57.4878 22.7131 57.4878H23.4739V57.4879Z" fill="#999999"/>
<path d="M28.8927 54.8901C29.2254 54.8901 29.273 55.0089 29.273 55.2709V57.4879H32.4102C32.6719 57.4879 32.7907 57.6069 32.7907 57.8691V58.4413C32.7907 58.7033 32.6719 58.8225 32.4102 58.8225H29.273V64.4713C29.273 65.7345 29.487 66.5687 29.9147 66.9497C30.3186 67.3554 31.1507 67.5698 32.3626 67.5698C32.6243 67.5698 32.7432 67.6887 32.7432 67.9749V68.571C32.7432 68.857 32.6243 68.9525 32.3626 68.9525C30.6751 68.976 29.5108 68.6897 28.8214 68.0461C28.1559 67.4267 27.7994 66.2351 27.7994 64.5192V58.8226H25.7317C25.4701 58.8226 25.3512 58.7034 25.3512 58.4415V57.8693C25.3512 57.607 25.4701 57.4881 25.7317 57.4881H27.7994V55.2711C27.7994 55.009 27.9184 54.8903 28.1796 54.8903H28.8927V54.8901Z" fill="#999999"/>
<path d="M34.1216 61.1581C34.1216 58.6556 35.928 57.1543 38.875 57.1543C41.8461 57.1543 43.6761 58.6556 43.6761 61.1581V64.9955C43.6761 67.4979 41.8461 68.9759 38.875 68.9759C35.928 68.9759 34.1216 67.4502 34.1216 64.9955V61.1581ZM42.2026 61.1581C42.2026 59.5138 40.9427 58.4891 38.875 58.4891C36.8548 58.4891 35.5713 59.5135 35.5713 61.1581V64.9955C35.5713 66.64 36.8786 67.6411 38.875 67.6411C40.9427 67.6411 42.2026 66.64 42.2026 64.9955V61.1581Z" fill="#999999"/>
<path d="M50.9725 57.1543C53.8485 57.1543 55.2983 58.5604 55.2983 61.4209V68.2612C55.2983 68.5233 55.1797 68.6422 54.9181 68.6422H54.2525C53.9674 68.6422 53.8723 68.5233 53.8723 68.2612V61.4687C53.8723 59.4901 52.8503 58.5127 50.8302 58.5127C49.8082 58.5127 48.8335 58.6557 47.9542 58.9897C47.7405 59.1086 47.6215 59.2756 47.6215 59.5378V68.2847C47.6215 68.5468 47.5026 68.6664 47.241 68.6664H46.552C46.2903 68.6664 46.1714 68.5468 46.1714 68.2847V59.1085C46.1714 58.4415 46.3141 58.2029 47.0035 57.9165C48.1445 57.3926 49.4752 57.1543 50.9725 57.1543Z" fill="#999999"/>
<path d="M57.7227 61.1581C57.7227 58.6556 59.5288 57.1543 62.4761 57.1543C65.4469 57.1543 67.2771 58.6556 67.2771 61.1581V64.9955C67.2771 67.4979 65.4469 68.9759 62.4761 68.9759C59.5288 68.9759 57.7227 67.4502 57.7227 64.9955V61.1581ZM65.7798 61.1581C65.7798 59.5138 64.52 58.4891 62.4523 58.4891C60.4322 58.4891 59.1486 59.5135 59.1486 61.1581V64.9955C59.1486 66.64 60.4559 67.6411 62.4523 67.6411C64.52 67.6411 65.7798 66.64 65.7798 64.9955V61.1581Z" fill="#999999"/>
<path d="M83.6527 53.2212C84.1993 53.2212 84.3896 53.412 84.3896 53.9603V67.927C84.3896 68.4754 84.1993 68.6662 83.6527 68.6662H82.5356C81.989 68.6662 81.799 68.4754 81.799 67.927V61.3012C81.799 59.9905 81.9651 58.5603 82.3218 56.9634H82.1791C81.7753 58.2267 81.1572 59.5611 80.3965 60.9437L78.2812 64.7099C78.0676 65.0672 77.7821 65.2339 77.4257 65.2339H76.7364C76.2849 65.2339 76.1183 65.1385 75.8809 64.7099L73.718 60.9202C73.0524 59.7997 72.5058 58.4648 72.0543 56.9634H71.9115C72.2207 58.4414 72.3631 59.8951 72.3631 61.3012V67.9037C72.3631 68.4518 72.1732 68.642 71.6265 68.642H70.5807C70.0341 68.642 69.8201 68.4519 69.8201 67.9037V53.9364C69.8201 53.3886 70.0341 53.1978 70.5807 53.1978H71.5313C72.1494 53.1978 72.3393 53.3166 72.5771 53.7694L77.0931 61.8492L81.6086 53.7936C81.8703 53.2932 82.0125 53.1978 82.6068 53.1978H83.6525V53.2212H83.6527Z" fill="#999999"/>
<path d="M91.4488 57.083C94.5385 57.083 96.0833 58.5845 96.0833 61.5631V67.1882C96.0833 67.9505 95.9168 68.1656 95.2988 68.4276C94.4433 68.8092 93.136 69 91.4012 69C89.547 69 88.3109 68.7138 87.5982 68.1179C86.9088 67.5456 86.5524 66.6642 86.5524 65.4724C86.5524 62.8746 87.9307 61.9689 91.4725 61.9689C91.6148 61.9689 92.328 62.0167 93.564 62.0879V61.4685C93.564 60.0615 92.946 59.3229 91.4012 59.3229C90.3314 59.3229 89.5708 59.6808 89.1193 60.3721C88.7867 60.8248 88.6915 60.8725 88.1924 60.7053L87.3366 60.3478C86.8613 60.1335 86.7185 59.7997 86.9802 59.3706C87.741 57.8455 89.2382 57.083 91.4488 57.083ZM93.5879 64.1376C92.0664 64.0664 91.2823 64.0186 91.2347 64.0186C89.666 64.0186 89.143 64.4714 89.143 65.4247C89.143 66.4016 89.5946 66.8785 91.1872 66.8785C92.114 66.8785 92.8271 66.8073 93.35 66.7118C93.4927 66.6399 93.5879 66.5686 93.5879 66.4016V64.1376Z" fill="#999999"/>
<path d="M107.135 57.3927C107.777 57.3927 107.943 57.6547 107.587 58.1794L104.331 62.8505L107.801 67.8796C108.181 68.4042 108.015 68.6663 107.325 68.6663H106.28C105.566 68.6663 105.4 68.5944 105.067 68.0937L102.715 64.6858L100.48 68.0937C100.148 68.5944 99.9814 68.6663 99.2683 68.6663H98.2463C97.4618 68.6663 97.3432 68.4042 97.7471 67.8796L101.217 62.8746L97.8895 58.1793C97.5331 57.6547 97.6996 57.3926 98.4127 57.3926H99.387C100.147 57.3926 100.338 57.5115 100.623 57.9643L102.762 61.0392L104.854 57.9643C105.186 57.4638 105.305 57.3926 106.018 57.3926H107.135V57.3927Z" fill="#999999"/>
</g>
<defs>
<clipPath id="clip0">
<rect width="108" height="69" fill="white"/>
</clipPath>
</defs>
</svg>
