<svg width="41" height="37" viewBox="0 0 41 37" fill="none" xmlns="http://www.w3.org/2000/svg">
<path d="M38.5 18.5H16C14.7344 18.5 13.75 19.5547 13.75 20.75V34.25C13.75 35.5156 14.7344 36.5 16 36.5H38.5C39.6953 36.5 40.75 35.5156 40.75 34.25V20.75C40.75 19.5547 39.6953 18.5 38.5 18.5ZM38.5 34.25H16V20.75H38.5V34.25ZM26.3359 32C26.5469 32 26.9688 32.0703 27.1797 32.0703C30.9062 32.0703 33.9297 28.9766 34 25.25V23.5625C34 23.2812 33.7188 23 33.4375 23H32.3125C31.9609 23 31.75 23.2812 31.75 23.5625V25.25C31.6797 27.7812 29.7109 29.8203 27.1797 29.8203C27.1094 29.8203 26.8984 29.75 26.7578 29.75C24.4375 29.5391 22.75 27.4297 22.75 25.1094V23.5625C22.75 23.2812 22.4688 23 22.1875 23H21.0625C20.7109 23 20.5 23.2812 20.5 23.5625V25.0391C20.5 28.4844 22.9609 31.5078 26.3359 32ZM2.5 14H29.5V16.25H31.75V14C31.75 12.8047 30.6953 11.75 29.5 11.75H22.75V7.25C22.75 3.59375 19.6562 0.5 16 0.5C12.2734 0.5 9.25 3.59375 9.25 7.25V11.75H2.5C1.23438 11.75 0.25 12.8047 0.25 14V32C0.25 33.2656 1.23438 34.25 2.5 34.25H11.5V32H2.5V14ZM11.5 7.25C11.5 4.78906 13.4688 2.75 16 2.75C18.4609 2.75 20.5 4.78906 20.5 7.25V11.75H11.5V7.25Z" fill="#2351FF"/>
</svg>
