<svg width="187" height="28" viewBox="0 0 187 28" fill="none" xmlns="http://www.w3.org/2000/svg">
<g clip-path="url(#clip0)">
<path d="M70.8759 19.5316H61.5247L66.2613 7.46533H66.3207L70.8759 19.5316Z" fill="#C4C4C4"/>
<path d="M73.9728 27.493H58.4044L61.1088 20.667H71.2981L73.9728 27.493Z" fill="#C4C4C4"/>
<path d="M34.4476 19.5316H25.0928L29.8297 7.46533H29.8924L34.4476 19.5316Z" fill="#C4C4C4"/>
<path d="M37.5445 27.493H21.9761L24.6775 20.667H34.8698L37.5445 27.493Z" fill="#C4C4C4"/>
<path d="M7.79597 27.4928H-0.0510864V5.83643H9.20111C4.01922 6.74346 1.02751 11.2753 1.02751 16.8434C1.02751 21.8884 3.48124 26.076 7.79597 27.4928Z" fill="#C4C4C4"/>
<path d="M54.8882 22.0042C54.8882 25.7052 51.2599 26.8738 48.7234 26.8738C44.4914 26.8738 40.8269 25.1093 41.0676 20.455H39.7549C39.6955 24.4108 41.7933 26.5858 44.8279 27.4928H38.9467L30.5455 6.18401H29.114L20.571 27.4928H14.0928C17.3319 26.3044 19.6936 23.1761 20.063 19.197H18.7502C18.5094 23.1695 15.3264 26.8738 11.1571 26.8738C5.58933 26.8738 2.33704 22.3088 2.33704 16.8434C2.33704 11.378 5.58933 6.80636 11.1571 6.81298C14.6964 6.81298 17.8266 8.95809 18.3973 12.5366H19.7002C19.7002 12.2685 18.8492 6.85933 13.1197 5.83643H45.6954C42.9247 6.32636 40.375 7.99478 40.375 11.3482C40.375 15.3736 44.0099 16.2972 47.6151 17.0155C51.25 17.7372 54.8882 18.4257 54.8882 22.0042Z" fill="#C4C4C4"/>
<path d="M76.2325 5.83643V27.4928H75.3749L66.977 6.18401H65.5455L57.0025 27.4928H51.9327C54.2186 26.7248 56.1976 25.0299 56.1976 22.0042C56.1976 17.8265 52.5627 16.8136 48.9278 16.0919C45.3226 15.3802 41.6877 14.7843 41.6877 11.3482C41.6877 7.81933 45.1115 6.80636 47.526 6.80636C51.4544 6.80636 54.1922 8.63037 54.3439 12.2718V12.2784H55.6567C55.4555 8.35561 53.008 6.37932 49.6238 5.83643H76.2325Z" fill="#C4C4C4"/>
<path d="M77.1818 6.18408H86.776C92.1083 6.18408 94.1296 9.56032 94.1296 13.0193C94.1296 16.4786 92.1011 19.8545 86.776 19.8545H81.8583V27.5001H77.1818V6.18408ZM81.8583 16.2138H85.4936C87.6356 16.2138 89.6041 15.7368 89.6041 13.0193C89.6041 10.3018 87.6356 9.82515 85.4936 9.82515H81.8583V16.2138Z" fill="#999999"/>
<path d="M94.6653 6.18441H110.572V10.1284H99.3415V14.7003H109.645V18.3414H99.3415V23.5645H110.806V27.5081H94.6653V6.18441ZM103.867 4.23891H100.918L103.784 0H108.46L103.867 4.23891Z" fill="#999999"/>
<path d="M111.583 6.18408H123.048C126.857 6.18408 129.27 8.84098 129.27 12.0659C129.27 14.5712 128.289 16.4561 125.906 17.4102V17.4707C128.199 18.0991 128.855 20.2793 129.006 22.4591C129.096 23.8064 129.036 26.3422 129.896 27.5081H125.22C124.684 26.1608 124.715 24.1017 124.473 22.3985C124.149 20.1578 123.281 19.1739 120.928 19.1739H116.252V27.5005H111.575V6.18408H111.583ZM116.259 15.8275H121.381C123.492 15.8275 124.594 14.9344 124.594 12.7846C124.594 10.7256 123.492 9.83243 121.381 9.83243H116.259V15.8275Z" fill="#999999"/>
<path d="M140.237 5.66992C146.791 5.66992 150.69 10.5977 150.69 16.9258C150.69 23.0801 146.791 28.0003 140.237 28.0003C133.682 28.0003 129.783 23.0725 129.783 16.9258C129.783 10.5977 133.69 5.66992 140.237 5.66992ZM140.237 24.0639C144.438 24.0639 146.015 20.4838 146.015 16.9258C146.015 13.194 144.438 9.61388 140.237 9.61388C136.036 9.61388 134.459 13.194 134.459 16.9258C134.459 20.4838 136.036 24.0639 140.237 24.0639Z" fill="#999999"/>
<path d="M151.498 6.18408H156.174V23.5641H166.538V27.5078H151.498V6.18408Z" fill="#999999"/>
<path d="M174.374 6.18408H179.171L187.121 27.5005H182.263L180.657 22.7541H172.707L171.04 27.5005H166.303L174.374 6.18408ZM173.929 19.2567H179.442L176.765 11.4373H176.704L173.929 19.2567Z" fill="#999999"/>
</g>
<defs>
<clipPath id="clip0">
<rect width="187" height="28" fill="white"/>
</clipPath>
</defs>
</svg>
