<svg width="108" height="70" viewBox="0 0 108 70" fill="none" xmlns="http://www.w3.org/2000/svg">
<g clip-path="url(#clip0)">
<path fill-rule="evenodd" clip-rule="evenodd" d="M12.1701 65.8559V67.2875H14.849V67.8903H12.1701V69.3973H15.2317V70.0001H11.4812V65.3284H15.2317V65.9312H12.1701V65.8559ZM23.8044 69.0206V65.2531H24.4167V69.9248H23.7278L20.8958 66.1573V69.9248H20.2835V65.2531H20.9723L23.8044 69.0206ZM33.6017 69.0206V67.8903H32.1474V67.3629H34.214V69.2466C33.6017 69.7741 32.9128 70.0001 32.0709 70.0001C30.6166 70.0001 29.545 69.0206 29.545 67.5889C29.545 66.1573 30.6166 65.1777 32.0709 65.1777C32.6832 65.1777 33.4486 65.3284 33.9844 65.7052V66.3833L33.9079 66.308C33.4486 65.8559 32.6832 65.7052 32.0709 65.7052C30.9993 65.7052 30.2339 66.4587 30.2339 67.5136C30.2339 68.5685 30.9993 69.322 32.0709 69.322C32.6066 69.3973 33.1424 69.2466 33.6017 69.0206ZM40.1842 65.8559V67.2875H42.8632V67.8903H40.1842V69.3973H43.2459V70.0001H39.4954V65.3284H43.2459V65.9312H40.1842V65.8559ZM51.8186 69.0206V65.2531H52.4309V69.9248H51.742L48.91 66.1573V69.9248H48.2976V65.2531H48.9865L51.8186 69.0206ZM58.5542 67.2875H61.3097V65.2531H61.9986V69.9248H61.3097V67.8903H58.5542V69.9248H57.8653V65.2531H58.5542V67.2875ZM70.4947 68.6438H67.9688L67.3565 69.9248H66.6676L68.8108 65.2531H69.6527L71.7193 69.9248H71.0305L70.4947 68.6438ZM79.3735 68.3424L81.1339 69.9248H80.2154L78.5315 68.3424H77.2303V69.9248H76.5415V65.2531H79.2969C80.2154 65.2531 80.9809 65.9312 80.9809 66.8354C80.9809 67.6643 80.2154 68.3424 79.3735 68.3424ZM86.1091 69.9248V65.2531H86.798V69.9248H86.1091ZM95.2941 68.6438H92.7682L92.2324 69.9248H91.5436L93.6867 65.2531H94.5287L96.5953 69.9248H95.9064L95.2941 68.6438ZM68.275 68.1164H70.3416L69.3465 65.8559L68.275 68.1164ZM77.2303 67.815H79.2969C79.8327 67.815 80.292 67.3629 80.292 66.8354C80.292 66.308 79.8327 65.8559 79.2204 65.8559H77.1538V67.815H77.2303ZM92.9979 68.1164H95.0645L94.0694 65.8559L92.9979 68.1164Z" fill="#999999"/>
<path fill-rule="evenodd" clip-rule="evenodd" d="M13.854 57.7937V60.7324H7.88377C6.73565 60.7324 5.89369 60.657 5.28136 60.5817C3.21474 60.2049 1.68391 58.9993 0.841956 57.1156C0.306166 55.8346 0 54.3276 0 52.4439C0 50.1834 0.459249 48.375 1.3012 46.9433C1.99008 45.8131 2.90858 45.0596 4.0567 44.6075C5.12828 44.2308 6.42948 44.0047 8.03685 44.0047H13.7775V46.9433H8.41956C6.81219 46.9433 5.58753 47.3954 4.89865 48.2243C4.28632 48.9024 3.98016 50.1834 3.98016 52.0671C3.98016 54.5537 4.4394 56.2114 5.43444 56.9649C6.12332 57.4923 7.1949 57.7937 8.57264 57.7937H13.854ZM23.4217 43.854C25.0291 43.854 26.5599 44.1554 27.7845 44.6829C29.3154 45.361 30.387 46.4912 30.9993 48.1489C31.4585 49.4299 31.6882 50.8615 31.6882 52.5192C31.6882 54.2523 31.382 55.7593 30.7697 57.0402C30.1573 58.3212 29.2388 59.3007 28.0142 59.9035C26.7895 60.5063 25.3352 60.8831 23.4982 60.8831C21.5847 60.8831 19.9008 60.5063 18.523 59.8282C17.0687 59.15 16.0737 57.9444 15.4614 56.2114C15.0787 55.1565 14.849 53.8755 14.849 52.4439C14.849 49.2792 15.691 46.9433 17.2984 45.587C18.7527 44.4568 20.8193 43.854 23.4217 43.854ZM23.3451 46.7173C21.7378 46.7173 20.5131 47.2447 19.8242 48.2996C19.2884 49.1285 18.9823 50.4848 18.9823 52.3685C18.9823 54.3276 19.365 55.7593 20.0539 56.7388C20.7427 57.643 21.8909 58.0951 23.4217 58.0951C25.1056 58.0951 26.3303 57.4923 27.0191 56.2867C27.5549 55.3825 27.7845 54.1016 27.7845 52.3685C27.7845 50.6355 27.4784 49.3545 26.9426 48.4503C26.1772 47.2447 25.0291 46.7173 23.3451 46.7173ZM37.9646 54.403V60.8077H34.3671V44.0047H42.7101C45.0829 44.0047 46.7668 44.3061 47.6853 44.9089C48.3742 45.361 48.91 45.8884 49.2162 46.6419C49.5223 47.2447 49.6754 47.9229 49.6754 48.6764C49.6754 51.2383 48.6038 52.8206 46.3841 53.5741C47.1495 53.8002 47.6853 54.1016 47.9915 54.403C48.91 55.3072 49.3692 56.5881 49.4458 58.2458C49.5223 59.4514 49.6754 60.2803 49.8285 60.8077H45.7718C45.6187 60.431 45.5422 59.6021 45.3891 58.3965C45.3125 57.7184 45.236 57.2663 45.1595 56.8895C45.0829 56.5128 44.9298 56.2114 44.7002 55.8346C44.241 55.1565 43.5521 54.7044 42.557 54.4783C42.0978 54.403 41.4855 54.3276 40.7966 54.3276H37.9646V54.403ZM37.9646 51.389H43.0163C43.8583 51.389 44.4706 51.2383 44.8533 51.0122C45.3891 50.6355 45.6953 49.9573 45.6953 49.0531C45.6953 47.9982 45.3125 47.3954 44.4706 47.094C44.1644 47.0187 43.7052 46.9433 43.0928 46.9433H38.0411V51.389H37.9646ZM52.584 44.0047H59.8554C61.6924 44.0047 63.0702 44.1554 64.0652 44.5322C65.9022 45.2103 67.1269 46.3405 67.7392 48.1489C68.1984 49.5052 68.4281 50.9369 68.4281 52.4439C68.4281 53.9509 68.1984 55.3825 67.7392 56.7388C67.2799 58.0951 66.5911 59.15 65.5195 59.7528C64.601 60.3556 63.5294 60.657 62.2282 60.7324C61.5393 60.8077 60.7739 60.8077 59.8554 60.8077H52.584V44.0047ZM56.258 46.9433V57.7937H59.8554C61.4628 57.7937 62.5344 57.417 63.1467 56.7388C63.5294 56.2867 63.8356 55.6839 64.0652 54.9304C64.2948 54.1016 64.3714 53.2727 64.3714 52.3685C64.3714 51.0122 64.1417 49.882 63.6825 48.9024C63.2998 48.0736 62.6875 47.4708 61.922 47.1694C61.4628 47.0187 60.7739 46.868 59.8554 46.868H56.258V46.9433ZM70.8774 60.7324V44.0047H74.4748V60.8077H70.8774V60.7324ZM76.3884 60.7324L83.4302 43.9294H87.64L94.6818 60.7324H90.3955L88.7881 56.8895H82.2821L80.5982 60.7324H76.3884ZM85.4968 47.9982L83.0475 53.8755H87.8696L85.4968 47.9982ZM96.2892 44.0047H99.8866V53.4234C99.9631 54.629 99.9631 55.3825 100.04 55.8346C100.193 56.8895 100.882 57.4923 102.106 57.7184C102.642 57.7937 103.484 57.8691 104.479 57.8691H107.923V60.8077H104.096C102.259 60.8077 100.958 60.7324 100.116 60.5063C98.2027 59.9789 97.0546 58.7733 96.5188 56.9649C96.2892 56.2867 96.2126 55.0811 96.2126 53.4234V44.0047H96.2892Z" fill="#999999"/>
<path fill-rule="evenodd" clip-rule="evenodd" d="M65.0601 8.43912L48.0679 18.0839L44.8531 12.6587L59.6257 4.29488C60.7738 3.69208 61.7688 3.08928 62.6873 2.56183C71.5661 -2.18521 81.8992 1.20554 86.7979 9.56937C89.3237 13.8643 89.9361 18.4607 88.6349 23.2077C87.3337 27.9547 84.5016 31.6469 80.1388 34.1334C76.924 35.9418 73.4797 36.7707 69.8057 36.5446C66.2082 36.3186 62.9935 35.113 60.0849 33.0032L66.3613 29.3864C70.0353 30.8934 73.5562 30.6673 76.924 28.7082C79.7561 27.1259 81.5931 24.7147 82.5116 21.55C83.3535 18.3853 82.9708 15.4467 81.2869 12.6587C79.603 9.87077 77.2302 8.06237 74.0154 7.23352C70.9538 6.40468 67.8921 6.85677 65.0601 8.43912Z" fill="#999999"/>
<path fill-rule="evenodd" clip-rule="evenodd" d="M42.7866 28.181L59.7788 18.5362L62.9936 23.9614L48.1445 32.3252C46.9964 32.928 46.0013 33.5308 45.0829 34.0583C36.204 38.8053 25.8709 35.4146 20.9723 27.0507C18.4464 22.7558 17.8341 18.1594 19.1353 13.4124C20.4365 8.66536 23.2685 4.97322 27.6314 2.48668C30.8461 0.678284 34.2905 -0.150564 37.9645 0.0754851C41.5619 0.301535 44.7767 1.50713 47.6853 3.61693L41.4089 7.23372C37.7349 5.72672 34.214 5.95277 30.8461 7.91187C28.0141 9.49421 26.1771 11.9054 25.2586 15.0701C24.4167 18.2348 24.7994 21.1734 26.4067 23.9614C28.0906 26.7493 30.4634 28.5577 33.6782 29.3866C36.8929 30.2154 39.878 29.7633 42.7866 28.181Z" fill="#999999"/>
</g>
<defs>
<clipPath id="clip0">
<rect width="108" height="70" fill="white"/>
</clipPath>
</defs>
</svg>
