<svg width="108" height="60" viewBox="0 0 108 60" fill="none" xmlns="http://www.w3.org/2000/svg">
<g clip-path="url(#clip0)">
<path d="M8.55174 44.8873H11.8224L9.81903 53.7088C9.769 53.9842 9.84285 54.1584 10.1239 54.1584C11.0363 54.1584 12.0773 52.3531 12.3298 51.6258L12.8634 51.7529C12.3059 53.6594 11.0363 55.1869 8.88047 55.1869C7.89428 55.1869 6.77707 54.735 6.77707 53.5817C6.77707 53.1039 6.90333 52.605 6.95335 52.1272L6.90333 52.0777C5.86473 53.7818 4.7237 55.1846 2.51786 55.1846C1.50309 55.1846 0.0309448 54.6574 0.0309448 53.457C0.0309448 53.304 0.0809691 53.0545 0.159579 52.7532L1.85802 45.5863H0.0309448L0.209603 44.8849H2.82039C3.25155 44.8849 3.68272 44.859 4.11388 44.8331C4.54504 44.8072 4.9762 44.7837 5.40736 44.7837L3.32778 53.1298C3.20153 53.6571 2.94664 54.3043 3.68272 54.3043C4.57124 54.3043 5.55982 53.1298 6.041 52.4779C6.31971 52.1013 6.95335 51.1998 7.05578 50.7738L8.55174 44.8873Z" fill="#999999"/>
<path d="M18.8758 47.4431L18.9258 47.4925C20.0931 46.1885 21.1579 44.7363 23.1112 44.7363C24.2284 44.7363 25.9507 45.3624 25.4957 47.3419L24.0259 53.5579C23.9735 53.8074 24.2284 54.0334 24.4547 54.0334C25.2932 54.0334 26.408 52.1551 26.6867 51.4796L27.1179 51.6044C26.2818 53.6332 25.3671 54.9113 23.035 54.9113C21.7415 54.9113 20.4718 54.3841 20.9816 52.3058L22.3013 46.9935C22.5538 45.9414 22.2751 45.5907 21.9702 45.5907C21.2865 45.5907 20.5004 46.5204 20.043 46.9935C18.7996 48.2974 18.5209 49.1236 18.1159 50.7782L17.1512 54.8101H13.8281L16.0864 45.5884H14.2617L14.4379 44.887H17.0511C17.9134 44.887 18.7758 44.7858 19.6381 44.7858L18.8758 47.4431Z" fill="#999999"/>
<path d="M28.0303 45.5888L28.2089 44.8874H30.8197C31.2509 44.8874 31.682 44.8615 32.1132 44.8356C32.5444 44.8098 32.9755 44.7862 33.4043 44.7862L31.401 53.1324C31.2485 53.8079 31.1723 54.135 31.7059 54.135C32.5682 54.135 33.6068 52.1038 33.9141 51.3789L34.4477 51.6284C33.6092 53.7608 32.5944 55.1895 30.1599 55.1895C29.0951 55.1895 28.1065 54.6387 28.1065 53.7867C28.1065 53.4101 28.2852 52.6098 28.4614 51.8072L29.855 45.5912H28.0303V45.5888ZM34.1428 40.4013C34.1428 41.404 33.3305 42.2066 32.3681 42.2066C31.4295 42.2066 30.7459 41.3287 30.7459 40.4013C30.7459 39.5752 31.5582 38.749 32.3681 38.749C33.2804 38.749 34.1428 39.4245 34.1428 40.4013Z" fill="#999999"/>
<path d="M34.9812 45.5886L35.1313 44.8872H37.5158C38.1994 42.0039 39.6978 39.2219 42.3848 38.0215C42.816 37.8214 43.3734 37.6943 43.857 37.6943C45.1743 37.6943 46.7727 38.3463 46.7727 39.8997C46.7727 40.8765 46.1628 41.3802 45.2267 41.3802C44.543 41.3802 43.8331 40.9283 43.8331 40.1798C43.8331 39.6526 44.1881 39.2266 44.3167 38.7252C44.3667 38.5252 44.1881 38.4004 43.8093 38.4004C41.3724 38.4004 41.1961 43.0866 40.7912 44.8919H43.6307L43.4782 45.5933H40.6625C40.0813 48.4765 39.4977 51.3339 38.5329 54.0665C37.8231 56.1943 36.4033 60.0049 33.6901 60.0049C32.0679 60.0049 31.2794 58.8751 31.2794 58.0254C31.2794 57.2746 31.8892 56.5991 32.6468 56.5991C33.3328 56.5991 34.0927 56.9733 34.0927 57.8018C34.0927 58.3526 33.7139 58.9528 33.7139 59.1552C33.7139 59.3294 33.8664 59.3035 33.9926 59.3035C35.0574 59.3035 35.4648 56.1213 35.5648 55.4717L37.3395 45.598H34.9812V45.5886Z" fill="#999999"/>
<path d="M55.8033 48.973C55.8033 51.7786 53.0638 54.3088 50.4769 54.9373C49.6646 55.1373 49.0833 55.1891 48.271 55.1891C45.2529 55.1891 43.7831 53.1579 43.7831 50.9784C43.7831 47.4455 47.8923 44.7388 51.1629 44.7388C53.5712 44.7364 55.8033 46.4664 55.8033 48.973ZM48.5998 46.9183C48.2448 47.8951 47.2301 52.9084 47.2301 53.6592C47.2301 54.4359 48.1686 54.4854 48.8022 54.4854C49.7908 54.4854 50.4245 54.3842 50.7794 53.4592C51.3106 52.1293 52.3516 48.0198 52.3516 46.6405C52.3516 45.7626 51.7942 45.4378 50.8818 45.4378C49.717 45.4378 48.9809 45.8897 48.5998 46.9183Z" fill="#999999"/>
<path d="M62.5756 47.4195L62.6256 47.4689C63.3355 46.5416 64.4265 44.7363 65.8224 44.7363C66.7586 44.7363 67.2683 45.313 67.2683 46.2144C67.2683 47.1159 66.7871 47.7208 65.8486 47.7208C65.315 47.7208 65.0363 47.4431 64.8338 47.1912C64.6313 46.9158 64.5289 46.6663 64.2764 46.6663C63.8452 46.6663 63.1592 47.6926 62.9829 47.9938C62.3731 49.02 62.1706 49.5214 61.8657 50.7264L60.8509 54.8077H57.6041L59.7599 45.586H57.9352L58.1115 44.8846H60.7247C61.5846 44.8846 62.4493 44.7834 63.3116 44.7834L62.5756 47.4195Z" fill="#999999"/>
<path d="M71.9587 47.5443L72.0087 47.5937C73.1259 46.2403 74.3193 44.7363 76.2441 44.7363C78.145 44.7363 78.8072 46.0662 78.4761 47.7679L78.5261 47.8197C79.4671 46.2898 80.8106 44.7363 82.7877 44.7363C84.1074 44.7363 85.0722 45.4636 85.0722 46.817C85.0722 47.1677 84.9173 47.8926 84.7149 48.6458L83.8001 52.1034C83.6239 52.7812 83.4476 53.4073 83.4476 53.532C83.4476 53.7815 83.5238 53.9581 83.8287 53.9581C84.7411 53.9581 85.8321 52.0045 86.2108 51.3031L86.7706 51.5291C85.9083 53.2331 84.8435 54.9113 82.6877 54.9113C80.9869 54.9113 80.4056 54.1346 80.4056 53.1813C80.4056 52.7059 80.5819 52.1057 80.7868 51.3031L82.0016 46.4922C82.1803 45.8143 81.9516 45.5884 81.773 45.5884C80.277 45.5884 78.1712 48.8741 77.5876 51.602L76.9039 54.8077H73.6071L75.508 46.7887C75.6867 46.0873 75.8129 45.586 75.1531 45.586C74.7219 45.586 74.2908 45.9885 73.8834 46.3886C72.921 47.3395 71.9325 48.7964 71.5513 50.2981L70.3865 54.8077H67.1158L69.2716 45.586H67.4446L67.6232 44.8846H70.1316C70.9677 44.8846 71.7824 44.7834 72.6185 44.7834L71.9587 47.5443Z" fill="#999999"/>
<path d="M91.3109 50.7268C91.1585 51.5789 90.8798 52.4544 90.8798 53.3065C90.8798 54.2103 91.411 54.4857 92.2233 54.4857C94.4053 54.4857 96.1299 53.3583 97.3972 51.6542L97.8045 52.0049C96.3848 54.1091 94.329 55.1871 91.7921 55.1871C89.41 55.1871 87.3804 53.7325 87.3804 51.2258C87.3804 47.8436 91.1084 44.7344 94.3791 44.7344C95.9751 44.7344 98.1071 45.4358 98.1071 47.3917C98.1071 48.9945 96.9922 49.823 95.5725 50.2961C94.8888 50.5221 94.1004 50.7245 93.3643 50.7245H91.3109V50.7268ZM92.9593 50.0254C93.6692 50.0254 95.5225 49.2252 95.5225 46.8668C95.5225 45.9136 95.1652 45.4381 94.1504 45.4381C93.3905 45.4381 92.7569 45.7865 92.3257 47.2175L91.4872 50.0254H92.9593Z" fill="#999999"/>
<path d="M101.785 49.7991C100.897 49.1236 100.975 48.4457 100.975 48.0197C100.975 46.4639 102.445 44.7363 105.032 44.7363C106.149 44.7363 108 45.2141 108 46.6405C108 47.2642 107.545 47.8926 106.859 47.8926C106.125 47.8926 105.642 47.5419 105.515 46.817C105.489 46.6663 105.592 46.0662 105.642 45.8402C105.718 45.5366 104.856 45.4377 104.653 45.4377C104.069 45.4377 103.055 45.5625 103.055 46.3156C103.055 46.7676 103.233 46.9182 103.562 47.1418L106.097 48.9965C106.961 49.6249 107.619 50.3734 107.619 51.529C107.619 53.9604 105.539 55.189 103.331 55.189C101.937 55.189 99.603 54.7112 99.603 52.9083C99.603 52.0563 100.237 51.4278 101.101 51.4278C101.837 51.4278 102.395 52.0304 102.395 52.7553C102.395 53.1813 102.066 53.685 102.066 53.9839C102.066 54.4358 103.081 54.4853 103.46 54.4853C104.22 54.4853 105.489 54.3346 105.489 53.3061C105.489 52.7553 105.108 52.3293 104.679 52.0045L101.785 49.7991Z" fill="#999999"/>
<path d="M0 34.3705L0.307292 32.8618H4.02338L10.4408 2.26399H6.56985L6.92717 0.75293H22.3084C30.6601 0.75293 38.097 4.88128 38.097 15.0445C38.097 21.7901 34.3285 27.9779 28.7258 31.5508C23.8377 34.6718 19.7119 34.3682 14.2093 34.3682H0V34.3705ZM12.6323 32.8618H16.1459C18.185 32.8618 20.0669 32.7112 22.0035 32.0051C25.3147 30.7977 27.1965 24.5086 27.9112 21.3876C28.6258 18.1678 29.7454 11.5234 29.7454 8.35296C29.7454 2.91832 25.672 2.26399 22.7658 2.26399H18.9997L12.6323 32.8618Z" fill="#999999"/>
<path d="M57.1968 14.4422H62.8496L58.4712 30.6449C58.0639 32.2054 58.8286 32.4055 59.1335 32.4055C60.8653 32.4055 62.902 28.4301 63.5642 27.0203L64.6338 27.3733C63.1568 30.4425 61.0677 34.5709 57.1468 34.5709C54.7027 34.5709 53.5307 32.4055 53.1234 30.2942C51.444 32.9115 49.3525 35.124 45.9914 35.124C41.6107 35.124 39.0642 31.4499 39.0642 27.3733C39.0642 21.9387 42.7827 16.8053 47.7732 14.8423C48.7403 14.4399 49.7599 14.1362 50.777 14.1362C53.3735 14.1362 55.1077 15.5955 56.1249 17.9115L57.1968 14.4422ZM47.0609 23.6027C46.7036 25.0126 45.3816 30.5484 45.3816 31.6029C45.3816 32.8621 46.1462 33.7188 47.4183 33.7188C52.1039 33.7188 55.0577 23.3015 55.0577 19.6274C55.0577 17.7656 54.0905 15.5531 51.949 15.5531C51.0843 15.5508 48.9952 16.0545 47.0609 23.6027Z" fill="#999999"/>
<path d="M68.4522 24.3062C66.6704 22.9481 66.8205 21.5877 66.8205 20.7333C66.8205 17.6123 69.7743 14.1406 74.9697 14.1406C77.2112 14.1406 80.9273 15.0962 80.9273 17.9654C80.9273 19.2246 80.0102 20.4838 78.6357 20.4838C77.1588 20.4838 76.1917 19.7777 75.9368 18.3184C75.8868 18.0171 76.0893 16.8073 76.1917 16.3554C76.3442 15.7505 74.6124 15.5505 74.205 15.5505C73.033 15.5505 70.9963 15.8023 70.9963 17.311C70.9963 18.2148 71.3536 18.5185 72.0159 18.9727L77.1088 22.6963C78.8406 23.9555 80.1651 25.4642 80.1651 27.7802C80.1651 32.6617 75.9892 35.126 71.5585 35.126C68.7571 35.126 64.0715 34.1704 64.0715 30.5458C64.0715 28.8346 65.3436 27.5778 67.0778 27.5778C68.5547 27.5778 69.6743 28.7852 69.6743 30.2445C69.6743 31.1012 69.0096 32.1063 69.0096 32.7112C69.0096 33.615 71.0463 33.7185 71.8134 33.7185C73.3403 33.7185 75.8868 33.4149 75.8868 31.3531C75.8868 30.2469 75.1221 29.3901 74.2574 28.7358L68.4522 24.3062Z" fill="#999999"/>
<path d="M88.874 1.9111H85.208L85.5653 0.501246H90.8107C92.5425 0.501246 94.2743 0.199975 96.0061 -0.00244141L91.218 19.1706L91.3181 19.2718C93.8145 16.1014 95.8012 14.1385 100.13 14.1385C102.778 14.1385 104.765 15.5977 104.765 18.015C104.765 18.6175 104.46 20.0274 104.05 21.7903L101.606 31.9535C101.504 32.4077 101.861 32.8078 102.421 32.8078C104.05 32.8078 106.242 28.7831 106.802 27.425L107.871 27.8275C107.414 28.8843 106.954 29.8916 106.292 30.7955C104.61 33.062 103.186 34.5708 100.182 34.5708C97.6331 34.5708 94.5792 33.8152 95.6988 29.0349L97.9904 19.4225C98.2977 18.1656 98.5526 16.9064 98.5526 16.4051C98.5526 16.0002 98.2453 15.5507 97.7903 15.5507C95.9036 15.5507 93.917 17.7137 92.8498 19.0224C91.118 21.136 90.0985 23.7015 89.4886 26.42L87.7044 34.3707H81.1346L88.874 1.9111Z" fill="#999999"/>
</g>
<defs>
<clipPath id="clip0">
<rect width="108" height="60" fill="white"/>
</clipPath>
</defs>
</svg>
