<svg width="148" height="76" viewBox="0 0 148 76" fill="none" xmlns="http://www.w3.org/2000/svg">
<g clip-path="url(#clip0)">
<path d="M63.7386 51.9796C72.3226 51.4874 76.9599 45.4822 76.9599 41.7413C76.9599 36.819 66.9946 35.933 63.9359 51.0936L63.7386 51.9796ZM62.8506 56.6066C61.8639 60.9382 60.9759 64.3838 60.9759 64.9744C60.9759 66.1558 61.5679 66.7465 62.4559 66.7465C63.8373 66.7465 66.7973 63.7931 66.7973 58.0833C66.7973 56.3112 66.3039 55.1299 65.5146 55.1299C64.9226 55.1299 63.7386 55.5237 62.8506 56.6066ZM60.9759 51.9796C64.9226 36.2283 77.0586 36.0314 77.0586 41.8397C77.0586 45.7775 72.1253 51.5858 63.7386 52.0781L62.8506 56.5081C63.7386 55.5237 64.8239 54.933 66.1066 54.933C68.6719 54.933 69.5599 57.0988 69.5599 59.363C69.5599 62.7102 67.1919 66.8449 63.5413 66.8449C61.8639 66.8449 58.8053 66.5496 58.8053 62.6117C58.8053 61.1351 59.3973 58.7724 60.1866 55.2283L60.6799 52.9641C60.7786 52.7672 60.8773 52.3734 60.9759 51.9796C53.7733 51.5858 51.1093 47.648 51.1093 44.4978C51.1093 41.8397 52.6879 40.6584 53.9706 40.6584C54.7599 40.6584 55.4506 41.1506 55.4506 42.0366C55.4506 42.4304 55.1546 43.3164 54.8586 43.5133C55.1546 43.3164 55.4506 42.6273 55.4506 42.0366C55.4506 41.1506 54.8586 40.6584 54.0693 40.6584C52.8853 40.6584 51.3066 41.8397 51.3066 44.4978C51.1093 47.5496 53.6746 51.4874 60.9759 51.9796Z" fill="#999999"/>
<path d="M76.96 41.6427V41.7412C76.96 43.1194 76.368 44.6946 75.2827 46.2697C76.368 44.793 76.96 43.2179 76.96 41.8396C76.96 41.7412 76.96 41.6427 76.96 41.6427ZM73.5067 38.5909C70.3493 38.5909 65.9093 41.8396 64.0347 51.0935L63.8373 51.9795C72.224 51.3889 76.8613 45.5806 76.8613 41.7412C76.8613 39.8707 75.48 38.5909 73.5067 38.5909ZM60.976 51.9795C60.8773 52.3733 60.7787 52.7671 60.68 53.0624L60.1867 55.3267C59.9893 56.0158 59.8907 56.6065 59.792 57.1971C59.2 59.6583 58.8053 61.4303 58.8053 62.6116C58.8053 64.8759 59.792 66.1557 61.7653 66.6479C61.1733 66.451 60.8773 65.7619 60.8773 64.9743C60.8773 64.5806 61.1733 63.1039 61.7653 60.8396C62.0613 59.5598 62.3573 58.1816 62.752 56.6065L63.8373 51.0935C65.712 41.8396 70.152 38.4925 73.408 38.4925C73.704 38.4925 73.9013 38.4925 74.1973 38.5909C73.9013 38.394 73.5067 38.394 73.0133 38.394C70.8427 38.394 68.4747 39.4769 66.5013 41.5443C64.0347 43.907 62.0613 47.5495 60.976 51.9795ZM62.8507 56.6065C62.456 58.1816 62.16 59.5598 61.864 60.8396C61.3707 63.0054 60.976 64.5806 60.976 64.9743C60.976 66.0572 61.4693 66.6479 62.3573 66.6479C63.8373 66.6479 66.6987 63.5961 66.6987 57.9847C66.6987 56.2127 66.2053 55.0313 65.416 55.0313C64.9227 55.1298 63.7387 55.5236 62.8507 56.6065ZM62.5547 66.7464C62.8507 66.7464 63.2453 66.8448 63.5413 66.8448C65.2187 66.8448 66.6987 65.9588 67.8827 64.3837C68.8693 63.0054 69.56 61.135 69.56 59.3629C69.56 55.2282 66.9947 54.9329 66.2053 54.9329C66.008 54.9329 65.712 54.9329 65.5147 54.9329C66.304 54.9329 66.896 56.2127 66.896 57.9847C66.896 63.5961 64.0347 66.6479 62.5547 66.7464ZM63.5413 66.9433C60.2853 66.9433 58.7067 65.565 58.7067 62.7101C58.7067 61.5287 59.1013 59.7567 59.6933 57.2956C59.792 56.7049 59.9893 56.1142 60.088 55.4251L60.5813 53.1609C60.68 52.8655 60.68 52.4718 60.7787 52.1764C57.5227 51.9795 54.8587 50.9951 53.1813 49.4199C51.7013 48.1402 50.912 46.3681 50.912 44.5961C50.912 41.7412 52.5893 40.6583 53.7733 40.6583C54.5627 40.6583 55.2533 41.1505 55.2533 42.135C55.2533 42.5288 54.9573 43.4148 54.5627 43.7101L54.464 43.6117C54.76 43.4148 55.056 42.7256 55.056 42.135C55.056 41.3474 54.5627 40.8552 53.7733 40.8552C52.688 40.8552 51.1093 41.8396 51.1093 44.6946C51.1093 46.3681 51.8987 48.0417 53.28 49.3215C54.9573 50.8966 57.6213 51.7826 60.7787 52.078C61.864 47.6479 63.8373 44.0054 66.304 41.5443C68.376 39.5754 70.744 38.394 72.9147 38.394C75.3813 38.394 76.96 39.7723 76.96 41.9381C76.96 44.0054 75.5787 46.4666 73.408 48.337C70.8427 50.6013 67.3893 51.9795 63.64 52.1764L62.8507 56.4096C63.7387 55.4251 64.824 54.9329 66.1067 54.9329C68.2773 54.9329 69.56 56.6065 69.56 59.4614C69.56 61.135 68.968 63.1039 67.8827 64.4821C66.7973 66.0572 65.2187 66.9433 63.5413 66.9433Z" fill="#999999"/>
<path d="M74.296 66.8445C72.52 67.3367 70.152 68.6165 70.152 70.3885C70.152 71.4714 71.1387 72.4559 72.4213 72.4559C74 72.4559 76.368 70.5854 77.552 65.2693C76.7627 66.1553 75.5787 66.5491 74.296 66.8445ZM79.8213 55.4248C80.3147 55.6217 80.6107 55.8186 81.104 55.8186C81.4987 55.8186 81.8933 55.7201 82.584 55.4248L82.7813 54.6372L80.216 66.3522C78.8347 72.4559 76.4667 74.5232 73.5067 74.5232C71.4347 74.5232 69.7573 73.0465 69.7573 71.2745C69.7573 69.9947 70.6453 67.8289 74.0987 66.8445C72.3227 66.8445 71.336 66.1553 71.336 64.6787C71.336 63.202 73.3093 57.4921 73.3093 56.1139C73.3093 55.3263 73.0133 55.2279 72.6187 55.2279C72.0267 55.2279 70.6453 56.1139 70.5467 58.3781C70.744 56.0154 72.224 54.9325 73.6053 54.9325C74.7893 54.9325 75.8747 55.5232 75.8747 57.0983C75.8747 58.7719 74.3947 62.9066 74.3947 64.974C74.3947 65.9584 74.888 66.3522 75.48 66.3522C76.072 66.3522 76.96 65.9585 77.7493 65.2693L79.8213 55.4248Z" fill="#999999"/>
<path d="M72.6186 55.228C73.1119 55.228 73.4079 55.4249 73.4079 56.2124C73.4079 56.9016 72.9146 58.5751 72.5199 60.2487C72.0266 62.0207 71.5332 63.9897 71.5332 64.6788C71.5332 66.057 72.4212 66.7461 74.1972 66.7461H74.3946C74.9866 66.6477 75.4799 66.4508 75.9732 66.2539C75.7759 66.3524 75.5786 66.3524 75.4799 66.3524C75.0852 66.3524 74.3946 66.1555 74.3946 64.8757C74.3946 63.7928 74.7892 62.1192 75.1839 60.5441C75.5786 59.1658 75.8746 57.7876 75.8746 57.0985C75.8746 55.5233 74.6906 55.0311 73.7039 55.0311C73.2106 55.0311 72.9146 55.1295 72.6186 55.228C72.5199 55.228 72.6186 55.228 72.6186 55.228ZM77.5519 65.4663C76.7626 66.1555 75.6772 66.6477 74.3946 66.943C72.7172 67.3368 70.3492 68.715 70.3492 70.4871C70.3492 71.7669 71.5332 72.5544 72.5199 72.5544C73.0132 72.5544 75.9732 72.1606 77.5519 65.4663ZM70.3492 69.5026C69.9546 70.0933 69.7572 70.7824 69.7572 71.3731C69.7572 73.0467 71.4346 74.5233 73.5066 74.5233C76.7626 74.5233 78.9332 71.9638 80.1172 66.3524L82.4852 55.4249C81.7946 55.7202 81.3999 55.8187 81.0052 55.8187C80.5119 55.8187 80.2159 55.7202 79.7226 55.4249L77.5519 65.171V65.3679C75.9732 72.2591 72.9146 72.6529 72.3226 72.6529C71.0399 72.6529 70.0532 71.6684 70.0532 70.4871C70.1519 70.0933 70.2506 69.7979 70.3492 69.5026ZM73.5066 74.6218C71.4346 74.6218 69.6586 73.1451 69.6586 71.3731C69.6586 69.8964 70.7439 67.9275 73.8026 66.943C72.1252 66.8446 71.3359 66.1555 71.3359 64.7772C71.3359 63.9897 71.8292 62.1192 72.3226 60.2487C72.8159 58.4767 73.2106 56.8031 73.2106 56.2124C73.2106 55.4249 72.9146 55.3264 72.5199 55.3264C72.0266 55.3264 70.6452 56.2125 70.4479 58.4767H70.3492V58.3783C70.5466 55.9171 72.0266 54.8342 73.5066 54.8342C74.5919 54.8342 75.8746 55.4249 75.8746 57C75.8746 57.7876 75.5786 59.0674 75.1839 60.5441C74.7892 62.1192 74.3946 63.7928 74.3946 64.8757C74.3946 65.7617 74.6906 66.2539 75.3812 66.2539C75.9732 66.2539 76.8612 65.8601 77.5519 65.171L79.7226 55.228H79.8212C80.3146 55.4249 80.6106 55.6218 81.1039 55.6218C81.4986 55.6218 81.8932 55.5233 82.5839 55.228L82.7812 54.4404H82.8799V54.5389L80.3146 66.2539C79.0319 71.9638 76.8612 74.6218 73.5066 74.6218Z" fill="#999999"/>
<path d="M98.1733 57.2953C98.1733 62.4145 94.1279 66.943 91.7599 66.943C89.8853 66.943 88.6026 66.3523 88.6026 64.5803C88.6026 62.5129 90.6746 58.3782 90.6746 56.3108C90.6746 55.7202 90.4772 55.4248 89.9839 55.4248C89.2932 55.4248 88.3066 56.0155 88.1093 56.5077C88.6026 55.7202 89.8853 55.2279 91.1679 55.2279C92.3519 55.2279 93.4373 55.8186 93.4373 57.3937C93.4373 59.2642 91.3653 63.7927 91.3653 65.5647C91.3653 66.3523 91.5626 66.7461 92.1546 66.7461C94.5226 66.7461 97.9759 61.7253 97.9759 58.4766C97.9759 58.2797 97.7786 58.0828 97.6799 58.0828C97.3839 58.0828 96.9893 58.772 96.1999 58.772C95.4106 58.772 94.7199 58.1813 94.7199 57.1968C94.7199 56.2124 95.3119 55.2279 96.3973 55.2279C97.3839 55.1295 98.1733 56.2124 98.1733 57.2953Z" fill="#999999"/>
<path d="M97.5812 57.9846C97.7786 57.9846 97.8772 58.1815 97.8772 58.3784C97.8772 58.4768 97.8772 58.6737 97.8772 58.7722C97.9759 58.28 97.9759 57.6893 97.9759 57.1971C97.9759 56.2126 97.2852 55.1297 96.1999 55.1297C95.4106 55.1297 94.5226 55.9173 94.5226 57.0986C94.5226 57.9846 95.1146 58.5753 96.0026 58.5753C96.4959 58.5753 96.7919 58.3784 96.9892 58.1815C97.2852 58.0831 97.4826 57.9846 97.5812 57.9846ZM89.9839 55.3266C90.4772 55.3266 90.6746 55.6219 90.6746 56.2126C90.6746 57.2955 90.1812 58.8706 89.5892 60.3473C89.0959 61.824 88.5039 63.3991 88.5039 64.482C88.5039 66.0572 89.5892 66.8447 91.5626 66.8447C91.8586 66.8447 92.1546 66.7463 92.5492 66.6478C92.3519 66.7463 92.1546 66.7463 91.9572 66.7463C91.2666 66.7463 91.1679 66.2541 91.1679 65.4665C91.1679 64.5805 91.6612 63.1038 92.1546 61.5287C92.6479 59.9535 93.2399 58.28 93.2399 57.2955C93.2399 55.425 91.6612 55.1297 90.9706 55.1297C90.6746 55.2281 90.2799 55.2281 89.9839 55.3266ZM91.7599 66.9432C89.6879 66.9432 88.6026 66.1556 88.6026 64.482C88.6026 63.3991 89.0959 61.824 89.6879 60.3473C90.1812 58.8706 90.7732 57.2955 90.7732 56.2126C90.7732 55.6219 90.5759 55.425 90.1812 55.425C89.4906 55.425 88.5039 56.0157 88.3066 56.5079H88.1093L88.2079 56.4095C88.7012 55.6219 90.0826 55.0312 91.2666 55.0312C91.9572 55.0312 93.6346 55.2281 93.6346 57.2955C93.6346 58.28 93.0426 59.9535 92.5492 61.5287C92.0559 63.1038 91.5626 64.5805 91.5626 65.4665C91.5626 66.3525 91.7599 66.6478 92.2532 66.6478C94.5226 66.6478 98.0746 61.6271 98.0746 58.4768C98.0746 58.28 97.9759 58.1815 97.8772 58.1815C97.7786 58.1815 97.6799 58.28 97.4826 58.3784C97.1866 58.5753 96.8906 58.8706 96.3972 58.8706C95.5092 58.8706 94.8186 58.1815 94.8186 57.2955C94.8186 56.311 95.5092 55.2281 96.5946 55.2281C97.7786 55.2281 98.4692 56.311 98.4692 57.3939C98.4692 59.6582 97.5812 62.1193 96.1012 64.1867C94.5226 65.7618 92.9439 66.9432 91.7599 66.9432Z" fill="#999999"/>
<path d="M105.376 51.5856C105.376 52.57 104.685 53.5545 103.699 53.5545C102.909 53.5545 102.219 52.9638 102.219 51.9794C102.219 50.9949 102.811 50.0105 103.995 50.0105C104.784 49.912 105.376 50.798 105.376 51.5856ZM102.12 65.4664C102.12 66.254 102.416 66.6478 102.811 66.6478C103.6 66.6478 104.883 65.1711 104.883 63.4975C104.685 65.8602 103.205 66.9431 101.824 66.9431C100.64 66.9431 99.5546 66.0571 99.5546 64.5804C99.5546 62.513 101.232 58.083 101.232 56.0156C101.232 55.425 101.035 55.1296 100.541 55.1296C99.8506 55.1296 98.864 55.7203 98.6666 56.2125C99.16 55.425 100.443 54.9327 101.725 54.9327C102.909 54.9327 103.995 55.5234 103.995 57.0985C103.995 58.969 102.12 63.6944 102.12 65.4664Z" fill="#999999"/>
<path d="M103.896 50.0106C102.811 50.0106 102.12 50.995 102.12 51.9795C102.12 52.8655 102.712 53.4561 103.6 53.4561C104.587 53.4561 105.277 52.4717 105.277 51.5857C105.277 50.7981 104.784 50.0106 103.896 50.0106ZM103.6 53.5546C102.712 53.5546 102.021 52.8655 102.021 51.9795C102.021 50.995 102.712 49.9121 103.896 49.9121C104.784 49.9121 105.376 50.7981 105.376 51.5857C105.376 52.5701 104.685 53.5546 103.6 53.5546ZM100.64 55.0313C101.133 55.0313 101.331 55.3266 101.331 55.9173C101.331 57.0002 100.936 58.5753 100.541 60.2489C100.147 61.824 99.7519 63.4976 99.7519 64.4821C99.7519 65.6634 100.541 66.8448 101.923 66.8448C102.219 66.8448 102.613 66.7463 102.909 66.6479H102.811C102.515 66.6479 102.12 66.451 102.12 65.4665C102.12 64.5805 102.515 63.0054 103.008 61.4302C103.501 59.7567 103.995 57.9846 103.995 57.0986C103.995 55.2282 102.416 54.9328 101.725 54.9328C101.331 54.9328 100.936 54.9328 100.64 55.0313C100.541 55.0313 100.64 55.0313 100.64 55.0313ZM101.923 66.9432C100.739 66.9432 99.5546 66.1556 99.5546 64.4821C99.5546 63.3992 99.9492 61.824 100.344 60.1505C100.739 58.5753 101.133 56.9017 101.133 55.9173C101.133 55.3266 100.936 55.1297 100.541 55.1297C99.8506 55.1297 98.8639 55.7204 98.6666 56.2126H98.4692L98.6666 56.1142C99.1599 55.3266 100.541 54.7359 101.725 54.7359C102.416 54.7359 104.093 54.9328 104.093 57.0002C104.093 57.9847 103.6 59.7567 103.107 61.4302C102.613 63.1038 102.219 64.5805 102.219 65.4665C102.219 66.1556 102.416 66.5494 102.811 66.5494C103.6 66.5494 104.784 65.1712 104.883 63.3992L105.08 63.3007V63.3992C104.784 65.8603 103.304 66.9432 101.923 66.9432Z" fill="#999999"/>
<path d="M114.059 55.8186C113.664 55.4248 112.973 55.0311 112.085 55.0311C109.816 55.0311 108.237 58.772 108.237 61.9223C108.237 64.1865 108.829 66.057 110.704 66.057C111.987 66.057 112.973 65.2694 113.861 63.7927V63.8912C112.875 65.5647 111.099 66.943 109.224 66.943C106.264 66.943 105.376 64.9741 105.376 62.6114C105.376 59.1658 107.744 54.9326 111.691 54.9326C114.059 54.9326 114.947 56.5077 114.947 57.3938C114.947 58.3782 114.256 59.3627 113.269 59.3627C112.48 59.3627 111.789 58.772 111.789 57.7875C111.789 56.8031 112.381 55.8186 113.565 55.8186C113.664 55.7202 113.861 55.7202 114.059 55.8186Z" fill="#999999"/>
<path d="M114.157 55.8189L114.355 56.0158C114.256 55.9174 114.256 55.9174 114.157 55.8189ZM113.565 55.7205C112.48 55.7205 111.789 56.7049 111.789 57.6894C111.789 58.5754 112.381 59.1661 113.269 59.1661C114.256 59.1661 114.947 58.1816 114.947 57.2956C114.947 57.0003 114.848 56.508 114.453 56.1143L114.157 55.9174C113.861 55.8189 113.664 55.7205 113.565 55.7205ZM111.691 54.9329C109.915 54.9329 108.237 55.8189 107.053 57.4925C105.968 58.8707 105.376 60.8396 105.376 62.6117C105.376 64.5806 106.067 66.8448 109.224 66.8448C110.408 66.8448 111.691 66.2542 112.677 65.2697C112.085 65.8604 111.395 66.0573 110.704 66.0573C109.027 66.0573 108.139 64.5806 108.139 61.9225C108.139 60.3474 108.533 58.5754 109.224 57.2956C109.915 55.9174 110.901 55.0314 111.888 55.0314C111.888 54.9329 111.789 54.9329 111.691 54.9329ZM109.224 66.9433C105.968 66.9433 105.277 64.5806 105.277 62.5132C105.277 59.2645 107.448 54.8345 111.691 54.8345C113.072 54.8345 113.861 55.3267 114.256 55.7205C114.848 56.2127 115.045 56.9018 115.045 57.2956C115.045 58.2801 114.355 59.2645 113.269 59.2645C112.381 59.2645 111.691 58.5754 111.691 57.6894C111.691 56.7049 112.381 55.622 113.565 55.622C113.664 55.622 113.763 55.622 113.861 55.622C113.467 55.3267 112.776 55.0314 112.184 55.0314C110.013 55.0314 108.336 58.6738 108.336 61.8241C108.336 63.6946 108.731 65.8604 110.704 65.8604C111.888 65.8604 112.776 65.1712 113.763 63.5961L113.96 63.3992L113.861 63.793C112.875 65.7619 111 66.9433 109.224 66.9433Z" fill="#999999"/>
<path d="M69.4613 33.6687C69.4613 39.1817 65.416 46.2698 59.8907 46.2698C55.5493 46.2698 53.3787 43.0211 53.3787 39.2801C53.3787 32.6843 57.6213 26.876 63.64 26.876C64.528 26.876 66.4027 27.0729 67.488 28.4511V28.5496C66.4027 27.2698 64.7253 26.9744 64.1333 26.9744C60.384 26.9744 57.8187 33.1765 57.8187 38.1972C57.8187 41.8397 59.1013 44.8915 62.16 44.8915C65.8107 44.8915 69.1653 38.591 69.1653 33.5703V33.1765C68.968 34.5547 67.8827 35.8345 66.4027 35.8345C65.12 35.8345 64.0347 34.8501 64.0347 33.2749C64.0347 31.6998 65.0213 30.0262 66.896 30.0262C67.784 30.0262 68.5733 30.6169 68.8693 31.5029C69.3627 31.8967 69.4613 32.8812 69.4613 33.6687Z" fill="#999999"/>
<path d="M67.192 30.0262C65.3173 30.0262 64.3307 31.6998 64.3307 33.1765C64.3307 34.6532 65.3173 35.6376 66.6987 35.6376C68.2773 35.6376 69.1653 34.2594 69.3627 33.078H69.4613C69.4613 32.3889 69.3627 31.6998 69.1653 31.4045C68.7707 30.5185 67.9813 30.0262 67.192 30.0262ZM63.7387 26.876C60.8773 26.876 58.2133 28.1558 56.3387 30.6169C54.464 32.8812 53.4773 36.0314 53.4773 39.2801C53.4773 41.249 54.0693 42.9226 55.056 44.2024C56.1413 45.5806 57.8187 46.2698 59.8907 46.2698C62.456 46.2698 64.824 44.7931 66.6987 42.0366C68.376 39.5755 69.3627 36.5236 69.3627 33.7672C69.3627 33.7672 69.3627 33.6687 69.3627 33.5703C69.3627 36.0314 68.5733 38.7879 67.192 41.1506C65.712 43.5133 63.936 44.99 62.2587 44.99C60.7787 44.99 59.6933 44.3008 58.904 43.0211C58.2133 41.8397 57.8187 40.2646 57.8187 38.2957C57.8187 35.7361 58.5093 32.8812 59.5947 30.8138C60.7787 28.5496 62.3573 27.1713 63.936 27.0729C63.936 26.876 63.8373 26.876 63.7387 26.876ZM59.8907 46.2698C57.8187 46.2698 56.1413 45.5806 54.9573 44.2024C53.872 42.9226 53.3787 41.249 53.3787 39.2801C53.3787 36.0314 54.3653 32.8812 56.24 30.6169C58.1147 28.2542 60.7787 26.876 63.7387 26.876C64.7253 26.876 66.5013 27.0729 67.6853 28.4511L67.8827 28.9433L67.5867 28.5496C66.304 27.0729 64.4293 26.9744 64.232 26.9744C60.68 26.9744 58.016 32.8812 58.016 38.0988C58.016 42.2335 59.5947 44.6946 62.3573 44.6946C65.9093 44.6946 69.3627 38.3941 69.3627 33.4718C69.0667 34.5547 68.08 35.6376 66.6987 35.6376C65.3173 35.6376 64.232 34.5547 64.232 33.078C64.232 31.5029 65.2187 29.8293 67.192 29.8293C68.08 29.8293 68.8693 30.42 69.264 31.306C69.4613 31.7983 69.56 32.7827 69.56 33.5703C69.56 36.3268 68.5733 39.477 66.7973 41.9382C64.9227 44.7931 62.456 46.2698 59.8907 46.2698Z" fill="#999999"/>
<path d="M86.3333 33.6687C86.3333 39.1817 82.288 46.2698 76.7626 46.2698C72.4213 46.2698 70.2506 43.0211 70.2506 39.2801C70.2506 32.6843 74.4933 26.876 80.5119 26.876C81.3999 26.876 83.2746 27.0729 84.3599 28.4511V28.5496C83.2746 27.2698 81.5973 26.9744 81.0053 26.9744C77.2559 26.9744 74.6906 33.1765 74.6906 38.1972C74.6906 41.8397 75.9733 44.8915 79.0319 44.8915C82.6826 44.8915 86.0373 38.591 86.0373 33.5703V33.1765C85.8399 34.5547 84.7546 35.8345 83.2746 35.8345C81.992 35.8345 80.9066 34.8501 80.9066 33.2749C80.9066 31.6998 81.8933 30.0262 83.768 30.0262C84.656 30.0262 85.4453 30.6169 85.7413 31.5029C86.2346 31.8967 86.3333 32.8812 86.3333 33.6687Z" fill="#999999"/>
<path d="M83.9653 30.0262C82.0906 30.0262 81.1039 31.6998 81.1039 33.1765C81.1039 34.6532 82.0906 35.6376 83.4719 35.6376C85.0506 35.6376 85.9386 34.2594 86.136 33.078H86.2346C86.2346 32.3889 86.1359 31.6998 85.9386 31.4045C85.5439 30.5185 84.8533 30.0262 83.9653 30.0262ZM80.5119 26.876C77.6506 26.876 74.9866 28.1558 73.1119 30.6169C71.2373 32.8812 70.2506 36.0314 70.2506 39.2801C70.2506 41.249 70.8426 42.9226 71.8293 44.2024C72.9146 45.5806 74.5919 46.2698 76.6639 46.2698C79.2293 46.2698 81.5973 44.7931 83.4719 42.0366C85.1493 39.5755 86.136 36.5236 86.136 33.7672V33.6687C86.136 36.1299 85.3466 38.8863 83.9653 41.249C82.4853 43.6117 80.7093 45.0884 79.0319 45.0884C77.5519 45.0884 76.4666 44.3993 75.6773 43.1195C74.9866 41.9382 74.5919 40.363 74.5919 38.3941C74.5919 35.8345 75.2826 32.9796 76.3679 30.9122C77.5519 28.648 79.1306 27.2698 80.7093 27.1713C80.808 26.876 80.7093 26.876 80.5119 26.876ZM76.7626 46.2698C74.6906 46.2698 73.0133 45.5806 71.8293 44.2024C70.7439 42.9226 70.2506 41.249 70.2506 39.2801C70.2506 36.0314 71.2373 32.8812 73.1119 30.6169C74.9866 28.2542 77.6506 26.876 80.6106 26.876C81.5973 26.876 83.3733 27.0729 84.5573 28.4511L84.7546 28.9433L84.4586 28.5496C83.1759 27.0729 81.3013 26.9744 81.1039 26.9744C77.5519 26.9744 74.8879 32.8812 74.8879 38.0988C74.8879 42.2335 76.4666 44.6946 79.2293 44.6946C82.7813 44.6946 86.2346 38.3941 86.2346 33.4718C85.9386 34.5547 84.9519 35.6376 83.5706 35.6376C82.1893 35.6376 81.1039 34.5547 81.1039 33.078C81.1039 31.5029 82.0906 29.8293 84.0639 29.8293C84.9519 29.8293 85.7413 30.42 86.136 31.306C86.3333 31.7983 86.4319 32.7827 86.4319 33.5703C86.4319 36.3268 85.4453 39.477 83.6693 41.9382C81.7946 44.7931 79.3279 46.2698 76.7626 46.2698Z" fill="#999999"/>
<path d="M107.053 25.2023C107.547 25.2023 108.139 25.2023 108.632 25.2023C115.144 25.2023 125.603 19.8862 125.603 10.2385C125.603 6.20226 123.235 4.1349 120.176 4.1349C115.341 4.1349 108.731 9.45097 107.744 20.8707V20.9691C107.744 21.7567 107.448 23.2334 107.053 25.2023ZM91.8586 39.1815C91.8586 42.5287 92.8453 45.2852 95.4106 45.2852C96.3973 45.2852 97.384 44.6945 98.272 43.6116V43.3163C98.272 41.938 99.6533 36.3266 100.936 30.8137C100.344 28.451 99.0613 27.1712 97.384 27.1712C94.5226 27.0727 91.8586 33.8655 91.8586 39.1815ZM97.1866 9.64786C97.1866 11.223 96.1013 12.7981 94.424 12.7981C93.1413 12.7981 92.056 11.8137 92.056 10.2385C92.056 8.76185 92.944 7.08827 94.8186 6.98983H94.72C92.7466 6.98983 90.28 8.95874 90.28 13.1919C90.28 17.5235 93.536 23.0365 102.515 24.71C103.107 22.2489 103.403 20.28 103.403 19.2955C103.403 18.3111 103.008 17.9173 102.317 17.9173C101.232 17.9173 99.5546 18.9017 99.16 19.6893H99.0613C99.8506 18.508 102.021 17.5235 103.995 17.5235C105.771 17.5235 107.448 18.3111 107.744 20.4769C109.619 4.33179 120.571 0.0986328 125.307 0.0986328C130.931 0.0986328 133.397 2.65822 133.397 6.20226C133.397 13.6841 122.445 25.3992 108.731 25.3992C108.139 25.3992 107.645 25.3992 107.053 25.3992C105.672 31.995 102.613 43.2178 102.613 44.5961C102.613 45.8758 103.107 45.9743 103.699 45.9743C104.981 45.9743 106.955 43.71 107.152 40.8551H107.251C106.856 44.6945 104.488 46.4665 102.317 46.4665C100.541 46.4665 98.7653 45.8758 98.568 43.71C96.9893 45.2852 95.2133 46.2696 93.0426 46.2696C88.7013 46.2696 86.9253 43.2178 86.9253 39.4769C86.9253 33.8655 90.872 26.8758 96.8906 26.8758C99.0613 26.8758 100.443 28.0572 101.035 30.5183L102.416 24.8085C93.4373 23.0365 90.0826 17.622 90.0826 13.0935C90.0826 8.76185 92.648 6.89138 94.6213 6.89138C96.1013 6.89138 97.1866 8.17117 97.1866 9.64786Z" fill="#999999"/>
<path d="M94.8186 6.98975C93.0426 7.18664 92.1546 8.76177 92.1546 10.2385C92.1546 11.7151 93.1413 12.6996 94.5226 12.6996C96.2 12.6996 97.1866 11.1245 97.1866 9.64778C97.1866 8.1711 96.1013 7.0882 94.8186 6.98975ZM93.3386 7.18664C91.76 7.77732 90.0826 9.54934 90.0826 13.0934C90.0826 15.5545 91.0693 18.0157 92.8453 19.9846C92.944 20.083 93.1413 20.2799 93.24 20.3784C93.1413 20.2799 93.0426 20.083 92.8453 19.9846C91.0693 18.0157 90.0826 15.653 90.0826 13.1918C90.1813 9.64778 91.76 7.87576 93.3386 7.18664ZM107.053 25.2022C107.547 25.2022 108.04 25.2022 108.632 25.2022C112.184 25.2022 116.328 23.7255 119.584 21.3628C122.347 19.2955 125.603 15.7514 125.603 10.3369C125.603 6.59597 123.531 4.23327 120.176 4.23327C117.611 4.23327 114.749 5.70996 112.579 8.26954C110.704 10.4353 108.435 14.3732 107.744 20.8706V20.969C107.744 21.6581 107.547 22.9379 107.053 25.2022ZM120.176 4.13483C123.531 4.13483 125.701 6.59597 125.701 10.3369C125.701 15.8499 122.445 19.3939 119.683 21.4613C116.92 23.5286 113.368 24.9069 110.112 25.3006C123.037 24.5131 133.2 13.4872 133.2 6.20219C133.2 3.93794 132.115 0.197005 125.208 0.197005C122.741 0.197005 118.893 1.27991 115.44 4.33172C112.184 7.18664 109.816 11.1245 108.533 16.0467C109.52 12.4043 111.099 9.94312 112.48 8.36799C114.749 5.61151 117.611 4.13483 120.176 4.13483ZM99.752 28.1556C100.147 28.6478 100.541 29.3369 100.837 30.1245C100.64 29.2385 100.245 28.6478 99.752 28.1556ZM97.4826 27.1711C96.2 27.1711 94.72 28.6478 93.6346 31.2074C92.5493 33.6685 91.9573 36.6219 91.9573 39.1815C91.9573 43.0208 93.24 45.1866 95.4106 45.1866C96.3973 45.1866 97.384 44.596 98.272 43.5131V43.2177C98.272 42.0364 99.3573 37.4094 100.541 32.5856C100.64 31.9949 100.837 31.4043 100.936 30.8136C100.344 28.3524 99.16 27.1711 97.4826 27.1711ZM98.3706 43.6115V43.71C98.4693 44.8913 99.2586 46.368 102.021 46.368C102.712 46.368 103.304 46.1711 103.995 45.8758C103.797 45.9742 103.699 45.9742 103.6 45.9742C102.909 45.9742 102.416 45.8758 102.416 44.4975C102.416 43.71 103.304 39.969 104.389 35.6374C105.277 32.1918 106.264 28.254 106.856 25.3006C107.349 23.0364 107.547 21.7566 107.547 21.0675V20.969V20.8706V20.4768C107.349 18.6063 105.968 17.6219 103.896 17.6219C103.107 17.6219 102.317 17.7203 101.627 18.0157C101.824 18.0157 102.021 17.9172 102.12 17.9172C102.613 17.9172 103.205 18.2126 103.205 19.3939C103.205 20.2799 102.909 22.1504 102.317 24.8084V24.9069L100.936 30.8136C100.837 31.4043 100.64 31.9949 100.541 32.6841C99.3573 37.5079 98.272 42.1348 98.272 43.3162L98.3706 43.6115C97.4826 44.6944 96.3973 45.3835 95.4106 45.3835C93.1413 45.3835 91.8586 43.1193 91.8586 39.2799C91.8586 33.9638 94.5226 27.1711 97.4826 27.1711C97.8773 27.1711 98.272 27.2695 98.568 27.368C98.0746 27.1711 97.5813 27.0727 96.8906 27.0727C94.128 27.0727 91.6613 28.5493 89.688 31.3058C88.0106 33.6685 87.024 36.8188 87.024 39.6737C87.024 43.9069 89.1946 46.368 93.0426 46.368C95.1146 46.2695 96.8906 45.3835 98.3706 43.6115ZM102.12 46.4664C100.837 46.4664 98.6666 46.0727 98.3706 43.8084C96.8906 45.482 95.1146 46.2695 93.1413 46.2695C89.1946 46.2695 86.9253 43.8084 86.9253 39.4768C86.9253 36.6219 87.912 33.4716 89.688 31.0105C91.6613 28.254 94.2266 26.7773 96.9893 26.7773C99.16 26.7773 100.443 27.9587 101.133 30.2229L102.416 24.8084C98.3706 24.0208 95.016 22.3473 92.944 19.9846C91.168 18.0157 90.0826 15.5545 90.0826 13.0934C90.0826 8.46644 92.8453 6.79286 94.72 6.79286C96.2 6.79286 97.384 8.07265 97.384 9.54934C97.384 11.1245 96.2986 12.6996 94.6213 12.6996C93.24 12.6996 92.1546 11.6167 92.1546 10.14C92.1546 8.86022 92.7466 7.58042 93.9306 7.0882C92.352 7.58042 90.3786 9.35245 90.3786 13.1918C90.3786 15.5545 91.3653 18.0157 93.1413 19.8861C95.2133 22.2488 98.4693 23.8239 102.515 24.6115C103.107 21.9535 103.403 20.083 103.403 19.197C103.403 18.311 103.008 17.8188 102.416 17.8188C101.331 17.8188 99.752 18.8032 99.3573 19.4923H99.16L99.2586 19.3939C100.048 18.2126 102.219 17.2281 104.192 17.2281C106.165 17.2281 107.547 18.2126 107.941 19.8861C108.829 13.0934 111.493 7.58042 115.637 3.93794C119.189 0.886124 123.037 -0.196777 125.504 -0.196777C128.168 -0.196777 130.339 0.393896 131.72 1.57524C133.003 2.65815 133.693 4.13483 133.693 6.0053C133.693 13.5856 122.643 25.2022 109.027 25.2022C108.533 25.2022 107.941 25.2022 107.448 25.2022C106.856 28.1556 105.869 32.0934 104.981 35.539C103.896 39.8706 103.008 43.6115 103.008 44.3991C103.008 45.6789 103.403 45.7773 104.093 45.7773C104.685 45.7773 105.573 45.1866 106.165 44.3006C106.955 43.3162 107.349 42.0364 107.448 40.6581L107.645 40.5597V40.6581C106.757 44.6944 104.291 46.4664 102.12 46.4664Z" fill="#999999"/>
<path d="M117.709 21.4613C117.709 23.0364 116.624 24.6115 114.947 24.6115C113.664 24.6115 112.579 23.6271 112.579 22.0519C112.579 20.4768 113.565 18.8032 115.44 18.8032C116.821 18.8032 117.709 20.083 117.709 21.4613ZM112.579 43.9069C112.579 45.1866 113.072 45.7773 113.664 45.7773C114.947 45.7773 117.019 43.4146 117.117 40.6581H117.216C116.821 44.4975 114.453 46.2695 112.283 46.2695C110.408 46.2695 108.632 44.8913 108.632 42.4302C108.632 39.083 111.296 31.8965 111.296 28.5493C111.296 27.5649 110.901 27.1711 110.211 27.1711C109.125 27.1711 107.448 28.1556 107.053 28.9431H106.955C107.744 27.7618 109.915 26.7773 111.888 26.7773C113.861 26.7773 115.637 27.7618 115.637 30.3214C115.637 33.3732 112.579 41.0519 112.579 43.9069Z" fill="#999999"/>
<path d="M115.44 18.9017C113.565 18.9017 112.579 20.5752 112.579 22.0519C112.579 23.5286 113.565 24.5131 114.947 24.5131C116.624 24.5131 117.611 22.9379 117.611 21.4613C117.709 20.1815 116.821 18.9017 115.44 18.9017ZM114.947 24.6115C113.565 24.6115 112.48 23.5286 112.48 22.0519C112.48 20.4768 113.467 18.8032 115.44 18.8032C116.821 18.8032 117.709 20.1815 117.709 21.4613C117.808 23.0364 116.723 24.6115 114.947 24.6115ZM110.112 27.0727C110.605 27.0727 111.197 27.368 111.197 28.5493C111.197 30.2229 110.507 32.8809 109.816 35.539C109.125 38.0986 108.435 40.7566 108.435 42.4302C108.435 44.3006 109.717 46.2695 112.085 46.2695C112.776 46.2695 113.368 46.0727 113.96 45.7773C113.763 45.7773 113.664 45.8758 113.565 45.8758C113.171 45.8758 112.381 45.6789 112.381 44.0053C112.381 42.6271 113.072 40.0675 113.861 37.4094C114.651 34.653 115.44 31.8965 115.44 30.3214C115.44 29.2385 115.045 26.8758 111.789 26.8758C111 26.8758 110.211 26.9742 109.52 27.2695C109.816 27.0727 110.013 27.0727 110.112 27.0727ZM112.184 46.2695C111.197 46.2695 110.309 45.8758 109.619 45.2851C108.829 44.596 108.435 43.6115 108.435 42.4302C108.435 40.7566 109.125 38.0986 109.816 35.4405C110.507 32.8809 111.197 30.2229 111.197 28.5493C111.197 27.6633 110.803 27.1711 110.211 27.1711C109.125 27.1711 107.547 28.1556 107.152 28.8447H106.955L107.053 28.7462C107.843 27.5649 110.013 26.5804 111.987 26.5804C113.072 26.5804 113.96 26.8758 114.651 27.368C115.44 27.9587 115.835 28.9431 115.835 30.1245C115.835 31.6996 115.045 34.5545 114.256 37.2125C113.467 39.8706 112.776 42.4302 112.776 43.8084C112.776 44.9898 113.171 45.5804 113.861 45.5804C115.144 45.5804 117.117 43.3162 117.216 40.5597L117.413 40.4613V40.5597C116.821 44.4975 114.453 46.2695 112.184 46.2695Z" fill="#999999"/>
<path d="M122.643 38.9848C129.648 38.1972 133.2 34.0625 133.2 31.2076C133.2 28.5496 131.325 26.9744 129.451 26.9744C125.208 26.9744 122.445 33.7672 122.643 38.9848ZM122.643 39.0832C122.84 42.3319 124.221 44.8915 127.083 44.8915C129.451 44.8915 131.128 43.8086 132.608 40.1661C130.832 44.5962 127.971 46.2698 124.024 46.2698C113.664 46.2698 116.427 26.876 128.859 26.876C131.325 26.876 133.299 28.3527 133.299 31.306C133.397 34.161 129.648 38.2957 122.643 39.0832Z" fill="#999999"/>
<path d="M129.549 27.0725C128.267 27.0725 127.083 27.6632 126.096 28.7461C124.024 30.9119 122.544 35.2435 122.741 38.9844C126.688 38.4922 129.253 37.0155 130.635 35.8342C132.312 34.4559 133.299 32.6839 133.299 31.2072C133.2 29.2383 131.917 27.0725 129.549 27.0725ZM128.957 26.8756C124.813 26.8756 122.149 29.0414 120.768 30.8134C118.992 33.0777 117.907 36.031 117.907 38.886C117.907 40.9533 118.499 42.7253 119.485 44.0051C120.571 45.3834 122.248 46.1709 124.221 46.1709C126.984 46.1709 129.155 45.2849 130.733 43.6114C129.747 44.4974 128.661 44.9896 127.181 44.9896C124.517 44.9896 122.84 42.8238 122.643 39.0829C122.445 35.2435 123.827 31.0103 125.997 28.7461C127.083 27.5647 128.267 27.0725 129.549 27.0725C129.747 27.0725 129.845 27.0725 130.043 27.0725C129.747 26.8756 129.352 26.8756 128.957 26.8756ZM124.123 46.2694C122.051 46.2694 120.373 45.4818 119.288 44.1036C118.301 42.8238 117.709 40.9533 117.709 38.886C117.709 36.031 118.795 32.9792 120.571 30.715C122.051 28.8445 124.715 26.6787 128.859 26.6787C131.621 26.6787 133.299 28.4507 133.299 31.2072C133.299 34.3575 129.253 38.2953 122.643 39.0829C122.84 42.6269 124.517 44.7927 127.083 44.7927C129.648 44.7927 131.227 43.4145 132.608 40.1658H132.707V40.2642C131.128 44.3989 128.365 46.2694 124.123 46.2694Z" fill="#999999"/>
<path d="M138.429 37.9016C138.035 37.7047 137.64 37.6063 137.147 37.6063C135.469 37.6063 133.693 39.083 133.693 41.2488C133.693 44.399 136.456 46.0726 139.613 46.0726C141.883 46.0726 143.56 44.3006 143.56 41.5441C143.56 37.9016 136.851 36.9172 136.851 31.5027C136.851 28.6477 139.317 26.4819 143.165 26.4819C145.829 26.4819 148 27.7617 148 30.026C148 31.6996 146.717 32.4871 145.829 32.4871C144.744 32.4871 143.757 31.6011 143.757 30.7151C143.757 30.2229 144.053 29.4353 144.645 29.3369V29.4353C144.053 29.5337 143.757 30.2229 143.757 30.7151C143.757 31.6011 144.645 32.3887 145.731 32.3887C146.619 32.3887 147.803 31.6011 147.803 30.026C147.803 27.8602 145.632 26.5804 143.363 26.5804C142.08 26.5804 140.6 27.4664 140.6 29.4353C140.6 32.7825 147.408 34.8498 147.408 39.5752C147.408 44.0053 143.659 46.2695 139.811 46.2695C136.456 46.2695 133.496 44.5959 133.496 41.2488C133.496 38.9845 135.469 37.5078 137.048 37.5078C137.64 37.5078 138.035 37.6063 138.331 37.8032L138.429 37.9016Z" fill="#999999"/>
<path d="M133.693 40.7564C133.693 40.9533 133.693 41.0517 133.693 41.2486C133.693 41.6424 133.693 41.9377 133.792 42.233C133.693 41.9377 133.693 41.5439 133.693 41.2486C133.693 41.0517 133.693 40.9533 133.693 40.7564ZM136.259 45.3833C137.344 45.974 138.627 46.1709 139.909 46.1709C143.56 46.1709 147.408 44.1035 147.408 39.575C147.408 37.0154 145.336 35.2434 143.56 33.6683C141.981 32.29 140.6 31.0102 140.6 29.4351C140.6 28.4507 140.896 27.6631 141.488 27.1709C141.981 26.7771 142.672 26.4817 143.363 26.4817C143.264 26.4817 143.264 26.4817 143.165 26.4817C139.515 26.4817 136.949 28.5491 136.949 31.404C136.949 34.3574 139.021 36.031 140.797 37.4092C142.277 38.5906 143.659 39.7719 143.659 41.4455C143.659 44.202 141.981 46.0724 139.712 46.0724C138.429 46.0724 137.245 45.8755 136.259 45.3833ZM139.909 46.2693C136.752 46.2693 133.595 44.6942 133.595 41.2486C133.595 40.1657 133.989 39.1812 134.779 38.4921C135.469 37.803 136.357 37.4092 137.147 37.4092C137.739 37.4092 138.133 37.5077 138.429 37.7045L138.528 37.9999L138.429 37.9014C138.133 37.7045 137.64 37.6061 137.245 37.6061C135.568 37.6061 133.792 39.0828 133.792 41.2486C133.792 44.4973 136.752 45.974 139.613 45.974C141.883 45.974 143.461 44.1035 143.461 41.4455C143.461 39.7719 142.08 38.689 140.6 37.5077C138.824 36.031 136.752 34.3574 136.752 31.404C136.752 28.4507 139.317 26.3833 143.067 26.3833C145.928 26.3833 147.901 27.86 147.901 30.0258C147.901 31.7978 146.52 32.4869 145.731 32.4869C144.645 32.4869 143.659 31.6009 143.659 30.7149C143.659 30.2227 143.955 29.4351 144.645 29.2382H144.744V29.4351C144.152 29.5336 143.955 30.2227 143.955 30.7149C143.955 31.6009 144.843 32.3885 145.928 32.3885C147.211 32.3885 147.901 31.2071 147.901 30.1242C147.901 27.9584 145.632 26.6786 143.461 26.6786C142.08 26.6786 140.699 27.5646 140.699 29.5336C140.699 31.1087 142.179 32.29 143.659 33.6683C145.435 35.2434 147.507 37.0154 147.507 39.6735C147.507 41.7408 146.717 43.5128 145.139 44.6942C143.757 45.6786 141.883 46.2693 139.909 46.2693Z" fill="#999999"/>
<path d="M11.0506 75.9019C6.80796 75.8034 3.65063 74.4252 1.87463 71.6687C0.493294 69.6998 0.394628 67.1402 0.394628 67.1402C0.394628 65.3682 0.986628 63.7931 1.97329 62.6117C3.05863 61.3319 4.73596 60.6428 6.61063 60.6428C10.656 60.6428 13.8133 63.4977 17.464 66.7464C19.4373 68.5184 21.608 70.4874 24.0746 72.0625C20.9173 74.0314 17.464 76.0003 11.0506 75.9019ZM34.2373 63.5962C36.112 60.8397 38.184 57.9848 40.9466 57.1972C41.5386 57.3941 50.4186 59.9537 50.4186 63.3993C50.4186 64.2853 50.2213 67.8293 47.1626 69.6013C47.1626 69.6013 47.064 69.6013 47.064 69.6998C46.5706 69.9951 46.0773 70.0936 45.584 70.2905C44.7946 70.4874 43.9066 70.5858 42.92 70.5858C39.1706 70.5858 35.9146 68.5184 32.6586 65.8604C33.2506 65.1713 33.744 64.3837 34.2373 63.5962ZM50.5173 24.8086C49.136 24.8086 48.1493 26.1868 48.1493 27.4666C48.1493 28.0573 48.3466 28.648 48.544 29.0418C47.4586 28.1557 45.9786 28.0573 45.1893 28.0573C42.328 28.0573 39.664 29.3371 37.6906 31.7982C35.816 34.1609 34.8293 37.2127 34.8293 40.4614C34.8293 42.0366 35.1253 43.3164 35.7173 44.3993C35.6186 44.3008 35.3226 44.3008 35.0266 44.3008C33.9413 44.3008 33.0533 44.6946 32.3626 45.4822C31.7706 46.1713 31.4746 47.0573 31.4746 47.9433C31.4746 53.7516 35.9146 55.7205 40.4533 57.0988C37.7893 57.9848 35.816 60.8397 34.04 63.5962C33.5466 64.3837 33.0533 65.1713 32.4613 65.8604C31.2773 64.9744 30.192 63.8915 29.008 62.907C24.272 58.6739 19.3386 54.3423 13.1226 54.3423C8.09063 54.3423 5.03196 56.5081 3.25596 58.2801C1.28263 60.4459 -3.90646e-05 63.4977 -3.90646e-05 66.5495C-3.90646e-05 66.5495 -0.0987057 69.4045 1.87463 71.964C4.34129 75.2127 8.09063 76.0003 11.0506 76.0003C11.248 76.0003 11.4453 76.0003 11.6426 76.0003C17.76 76.0003 21.1146 74.0314 24.1733 72.0625C27.528 74.2283 31.5733 75.8034 36.8026 75.8034C40.256 75.8034 43.7093 74.4252 46.472 72.0625C49.2346 69.6998 50.8133 66.5495 50.8133 63.4977C50.8133 59.6583 49.432 56.8034 46.472 54.7361C43.9066 52.964 40.7493 52.1765 37.9866 51.4874C34.632 50.6013 31.968 49.9122 31.968 48.0418C31.968 45.6791 33.6453 44.5962 35.224 44.5962C35.6186 44.5962 35.9146 44.6946 36.112 44.7931C36.9013 46.0728 38.48 47.648 41.6373 47.648C44.2026 47.648 46.6693 46.1713 48.544 43.4148C50.2213 40.9537 51.3066 37.8034 51.3066 35.0469C51.3066 34.2594 51.208 33.2749 51.0106 32.7827C50.616 31.8967 49.8266 31.306 48.9386 31.306C47.064 31.306 45.9786 32.9796 45.9786 34.5547C45.9786 36.0314 46.9653 37.1143 48.4453 37.1143C49.8266 37.1143 50.8133 36.0314 51.1093 34.9485C51.1093 39.8708 47.7546 46.1713 44.104 46.1713C41.44 46.1713 39.7626 43.7102 39.7626 39.5754C39.7626 34.2594 42.4266 28.4511 45.9786 28.4511C46.176 28.4511 47.952 28.4511 49.2346 30.0262L49.3333 30.1247V29.9278L49.136 29.534C48.84 29.0418 48.3466 28.3526 48.3466 27.3682C48.3466 25.9899 49.5306 24.907 50.5173 24.907C51.8 24.907 52.5893 25.8915 52.5893 26.6791C52.5893 27.3682 51.9973 28.0573 51.504 28.0573H51.3066V28.2542H51.4053C52.2933 28.2542 52.7866 27.3682 52.7866 26.6791C52.7866 25.793 51.8986 24.8086 50.5173 24.8086Z" fill="#999999"/>
</g>
<defs>
<clipPath id="clip0">
<rect width="148" height="76" fill="white"/>
</clipPath>
</defs>
</svg>
