<svg width="108" height="72" viewBox="0 0 108 72" fill="none" xmlns="http://www.w3.org/2000/svg">
<path d="M41.803 71.6582C41.5804 71.7656 41.3352 71.8496 41.0691 71.9095C40.8025 71.9698 40.4958 71.9998 40.1498 71.9998C39.7944 71.9998 39.4697 71.9429 39.1775 71.829C38.8836 71.7151 38.632 71.5559 38.421 71.3509C38.2108 71.1462 38.0463 70.9018 37.9293 70.6184C37.8114 70.3351 37.7529 70.0217 37.7529 69.6784C37.7529 69.3265 37.8131 69.0089 37.9353 68.7255C38.0566 68.4422 38.2241 68.2012 38.4368 68.0021C38.6495 67.8039 38.9003 67.6507 39.1899 67.5432C39.4791 67.4353 39.7922 67.3818 40.131 67.3818C40.4817 67.3818 40.803 67.4324 41.0947 67.5338C41.3856 67.6353 41.6197 67.7688 41.7975 67.934L41.2592 68.5175C41.1473 68.3934 40.9918 68.2876 40.791 68.2012C40.5902 68.1143 40.3728 68.0706 40.1378 68.0706C39.9067 68.0706 39.6966 68.1121 39.5086 68.1947C39.3211 68.2778 39.1609 68.3912 39.0289 68.5363C38.896 68.681 38.7939 68.8505 38.7217 69.0453C38.6495 69.2396 38.6132 69.4507 38.6132 69.6784C38.6132 69.9143 38.6495 70.1304 38.7217 70.3269C38.7939 70.5234 38.8973 70.6942 39.0323 70.8389C39.166 70.984 39.3288 71.0966 39.5214 71.1771C39.7132 71.258 39.9311 71.2982 40.175 71.2982C40.5095 71.2982 40.8004 71.2468 41.0482 71.1428V70.026H40.125V69.3805H41.8039V71.6582H41.803Z" fill="#999999"/>
<path d="M44.0367 67.4932H45.5601C45.766 67.4932 45.9663 67.515 46.1607 67.5582C46.3546 67.6019 46.5272 67.6734 46.678 67.7727C46.8292 67.872 46.9493 68.0021 47.0403 68.1635C47.1317 68.3249 47.1766 68.5214 47.1766 68.7534C47.1766 69.0719 47.0868 69.3317 46.907 69.532C46.7272 69.7332 46.4828 69.8685 46.1731 69.9387L47.344 71.8877H46.4025L45.3866 70.0256H44.8168V71.8877H44.0363V67.4932H44.0367ZM45.4546 69.3865C45.5665 69.3865 45.6776 69.3779 45.7891 69.3617C45.9006 69.345 46.0005 69.3141 46.0894 69.2683C46.1782 69.223 46.2513 69.1579 46.3094 69.0731C46.3679 68.988 46.3961 68.8797 46.3961 68.747C46.3961 68.6271 46.3692 68.5291 46.3158 68.452C46.2619 68.3758 46.1936 68.3146 46.1112 68.2692C46.0291 68.2239 45.9347 68.1926 45.8292 68.1759C45.7241 68.1597 45.6225 68.1511 45.5225 68.1511H44.8172V69.3865H45.4546Z" fill="#999999"/>
<path d="M52.689 70.2739C52.689 70.5388 52.6442 70.7777 52.5536 70.9909C52.4626 71.2041 52.3387 71.3851 52.1819 71.5337C52.0243 71.6831 51.8389 71.7978 51.624 71.8783C51.4092 71.9592 51.1755 71.9994 50.9235 71.9994C50.6718 71.9994 50.4382 71.9592 50.2237 71.8783C50.0093 71.7978 49.8222 71.6831 49.6628 71.5337C49.5039 71.3851 49.38 71.2041 49.2916 70.9909C49.2023 70.7777 49.1579 70.5388 49.1579 70.2739V67.4932H49.9388V70.243C49.9388 70.371 49.955 70.4982 49.9879 70.6245C50.0212 70.7507 50.0759 70.8633 50.1524 70.9626C50.2284 71.0619 50.3297 71.1428 50.4553 71.2049C50.5813 71.267 50.7376 71.2982 50.923 71.2982C51.1097 71.2982 51.2648 71.267 51.3912 71.2049C51.5168 71.1428 51.6181 71.0619 51.6945 70.9626C51.7714 70.8633 51.8257 70.7507 51.8594 70.6245C51.8923 70.4982 51.9081 70.371 51.9081 70.243V67.4932H52.6886V70.2739H52.689Z" fill="#999999"/>
<path d="M54.9214 67.4937H56.3525C56.605 67.4937 56.8314 67.5163 57.0347 67.5617C57.2364 67.6075 57.4102 67.6816 57.555 67.7852C57.699 67.8888 57.8105 68.021 57.8895 68.1824C57.9677 68.3438 58.0066 68.5381 58.0066 68.7659C58.0066 69.0103 57.9617 69.2149 57.8707 69.3806C57.7797 69.5458 57.6571 69.6794 57.5025 69.7808C57.347 69.8823 57.1663 69.9555 56.9596 70.0008C56.7536 70.0466 56.5349 70.0693 56.303 70.0693H55.7028V71.8882H54.9219V67.4937H54.9214ZM56.2474 69.4114C56.376 69.4114 56.4973 69.4024 56.6127 69.3836C56.7284 69.3652 56.8314 69.3318 56.9224 69.2842C57.0134 69.2367 57.0856 69.1712 57.1398 69.0886C57.1936 69.006 57.2201 68.8986 57.2201 68.7659C57.2201 68.6379 57.1936 68.533 57.1398 68.4525C57.0856 68.3716 57.0147 68.3087 56.9262 68.2633C56.8369 68.2175 56.7361 68.188 56.6221 68.173C56.5084 68.1589 56.3922 68.1516 56.2726 68.1516H55.7028V69.4114H56.2474Z" fill="#999999"/>
<path d="M59.7529 69.6784C59.7529 69.327 59.8115 69.0093 59.9294 68.7255C60.0464 68.4421 60.2096 68.2012 60.4185 68.0025C60.6274 67.8039 60.8751 67.6511 61.1618 67.5432C61.4489 67.4358 61.762 67.3818 62.1003 67.3818C62.4433 67.3818 62.759 67.4358 63.0482 67.5432C63.337 67.6511 63.5869 67.8039 63.7975 68.0025C64.0085 68.2012 64.1722 68.4421 64.2901 68.7255C64.4071 69.0093 64.4665 69.327 64.4665 69.6784C64.4665 70.0221 64.4071 70.3355 64.2901 70.6189C64.1722 70.9022 64.0085 71.1462 63.7975 71.3513C63.5869 71.5559 63.337 71.7156 63.0482 71.829C62.759 71.9429 62.4433 71.9998 62.1003 71.9998C61.762 71.9998 61.4489 71.9429 61.1618 71.829C60.8751 71.7156 60.6274 71.5559 60.4185 71.3513C60.21 71.1462 60.0468 70.9022 59.9294 70.6189C59.8115 70.3359 59.7529 70.0221 59.7529 69.6784ZM60.6009 69.6784C60.6009 69.9143 60.6372 70.1304 60.7098 70.3269C60.782 70.5238 60.885 70.6946 61.0195 70.8389C61.1532 70.984 61.3126 71.0966 61.4967 71.1775C61.68 71.258 61.8833 71.2986 62.1063 71.2986C62.3293 71.2986 62.5339 71.258 62.7197 71.1775C62.9064 71.0966 63.0662 70.984 63.1999 70.8389C63.334 70.6946 63.4378 70.5238 63.51 70.3269C63.5822 70.1304 63.6185 69.9143 63.6185 69.6784C63.6185 69.4511 63.5822 69.2401 63.51 69.0453C63.4378 68.851 63.3353 68.681 63.2033 68.5363C63.0704 68.3916 62.912 68.2778 62.7266 68.1952C62.5403 68.1121 62.3344 68.071 62.1067 68.071C61.8799 68.071 61.6744 68.1121 61.4907 68.1952C61.3066 68.2778 61.149 68.3916 61.0174 68.5363C60.8845 68.681 60.7829 68.851 60.7107 69.0453C60.6372 69.2401 60.6009 69.4511 60.6009 69.6784Z" fill="#999999"/>
<path d="M60.0549 18.7526C63.4933 12.7846 61.4454 5.12521 55.4892 1.67972C53.5895 0.580883 51.4407 0 49.2732 0C48.1839 0 47.0907 0.145114 46.0253 0.431489C42.8078 1.29532 40.1182 3.36373 38.4518 6.25488C35.0133 12.2229 37.0613 19.8814 43.0175 23.3274L61.5979 34.0769V31.7816L44.0086 21.6057C41.5864 20.2046 39.8529 17.9376 39.1263 15.2224C38.4005 12.508 38.7709 9.67597 40.1699 7.24841C41.5698 4.81701 43.8317 3.07821 46.5379 2.35136C47.435 2.11036 48.3535 1.98879 49.2702 1.98879C51.0922 1.98879 52.9 2.47721 54.4968 3.4014C59.506 6.29897 61.2284 12.7396 58.3359 17.7591C58.2317 17.9397 58.1168 18.1247 57.9933 18.3105L56.8681 17.6598C56.9946 17.4723 57.1086 17.2908 57.2133 17.1093C59.7482 12.7105 58.2385 7.06606 53.8488 4.52635C52.4553 3.72031 50.8713 3.29438 49.2676 3.29438C45.9835 3.29438 42.9282 5.05801 41.2921 7.89822C40.0665 10.0253 39.741 12.5076 40.3771 14.8864C41.0132 17.266 42.5331 19.2526 44.6566 20.4807L61.5971 30.2817V27.9864L45.649 18.7595C43.9817 17.7946 42.789 16.2369 42.2904 14.3731C41.7923 12.5093 42.0478 10.5629 43.0107 8.89175C43.9731 7.22102 45.5281 6.02543 47.3876 5.52631C49.2296 5.0319 51.2075 5.29344 52.8577 6.24803C54.5225 7.21117 55.7143 8.76933 56.2128 10.6353C56.7118 12.5008 56.4576 14.4472 55.4964 16.1153C55.3918 16.2973 55.2739 16.4805 55.1457 16.6628L54.0154 16.0087C54.1525 15.8234 54.2708 15.6445 54.3734 15.4655C55.1632 14.0957 55.3734 12.4991 54.9646 10.9704C54.5558 9.44182 53.5775 8.16447 52.2097 7.37298C50.8572 6.59048 49.2339 6.37602 47.7234 6.7814C46.1983 7.19062 44.9236 8.17132 44.1337 9.54155C43.3443 10.9122 43.1346 12.5085 43.5434 14.0371C43.9518 15.5657 44.93 16.843 46.2983 17.6341L61.5983 26.4861V24.1912L47.2894 15.9129C45.4132 14.8273 44.7681 12.4151 45.8515 10.5355C46.376 9.6246 47.2236 8.97351 48.2369 8.70126C49.2399 8.43201 50.3185 8.57413 51.2177 9.09466C52.1264 9.62032 52.7765 10.4692 53.0478 11.4845C53.3195 12.5003 53.1802 13.5611 52.6552 14.472C52.5506 14.6539 52.4254 14.8333 52.2823 15.0058L51.1379 14.3436C51.2904 14.1869 51.4237 14.0123 51.5326 13.8222C52.2584 12.5628 51.8261 10.9469 50.5697 10.2196C50.1694 9.98845 49.7153 9.86603 49.2548 9.86603C48.3167 9.86603 47.4427 10.3716 46.9741 11.1849C46.2483 12.4443 46.6802 14.0606 47.9374 14.7879L61.5983 22.6908V20.3956L59.7157 19.3061C59.8371 19.1186 59.9507 18.9333 60.0549 18.7526ZM48.6918 12.1789C48.8076 11.9785 49.0229 11.854 49.2544 11.854C49.3685 11.854 49.4774 11.8831 49.5769 11.9409C49.8866 12.1202 49.993 12.5183 49.8144 12.8287C49.6987 13.0286 49.4838 13.1531 49.2523 13.1531C49.1374 13.1531 49.0293 13.124 48.9293 13.0662C48.6196 12.8869 48.5128 12.4892 48.6918 12.1789Z" fill="#999999"/>
<path d="M16.3821 53.8485C16.2061 53.3618 15.9536 52.9376 15.6307 52.5866C15.2962 52.2223 14.8895 51.8974 14.4235 51.6213C13.9429 51.3371 13.4029 51.0969 12.8207 50.9081L11.5233 50.4869L12.7404 49.8701C13.109 49.6834 13.4644 49.4557 13.7976 49.1942C14.1176 48.9425 14.4025 48.645 14.6439 48.3102C14.8823 47.9793 15.0805 47.5808 15.2326 47.1266C15.3842 46.6767 15.4607 46.1493 15.4607 45.5586C15.4607 44.0321 14.9139 42.8635 13.7878 41.9868C12.6344 41.0888 11.0273 40.6333 9.01146 40.6333H0V60.9308H9.31733C10.4622 60.9308 11.5071 60.8088 12.4217 60.5678C13.3158 60.332 14.089 59.9814 14.7208 59.5251C15.3359 59.0807 15.8169 58.5255 16.151 57.8757C16.4834 57.2264 16.6525 56.4597 16.6525 55.5976C16.6517 54.9345 16.5615 54.3459 16.3821 53.8485ZM2.60284 42.8438H8.55267C9.88847 42.8438 10.9389 43.1246 11.6754 43.6794C12.4606 44.2718 12.8591 45.1113 12.8591 46.1755C12.8591 47.377 12.405 48.2858 11.5096 48.8765C10.6894 49.418 9.60269 49.6924 8.27884 49.6924H2.60284V42.8438ZM12.7083 57.8727C11.8856 58.4356 10.7646 58.7207 9.37628 58.7207H2.60284V51.7189H9.10288C10.6954 51.7189 11.9159 52.0108 12.7305 52.587C13.6058 53.2064 14.0497 54.0822 14.0497 55.1892C14.0497 56.3612 13.5977 57.264 12.7083 57.8727Z" fill="#999999"/>
<path d="M43.8283 40.6333H40.6821V60.9308H43.2845V44.4499L51.1438 55.3561L59.1206 44.4037V60.9308H61.7235V40.6333H58.5764L51.2023 51.1821L43.8283 40.6333Z" fill="#999999"/>
<path d="M26.4 40.6333L17.4877 60.9308H20.2242L21.5472 57.7743H34.1035L35.4461 60.9308H38.0617L29.1485 40.6333H26.4ZM22.5327 55.4555L27.8358 42.9778L33.1205 55.4555H22.5327Z" fill="#999999"/>
<path d="M76.1551 40.6333H73.4061L64.4938 60.9308H67.2303L68.5529 57.7743H81.1096L82.4522 60.9308H85.0679L76.1551 40.6333ZM69.5393 55.4555L74.8423 42.9774L80.1279 55.4555H69.5393Z" fill="#999999"/>
<path d="M108 58.6269L104.763 56.7545C105.88 55.0337 106.532 52.9833 106.532 50.7817C106.532 44.7259 101.615 39.7993 95.5723 39.7993C89.5294 39.7993 84.6129 44.7259 84.6129 50.7817C84.6129 56.8376 89.5294 61.7646 95.5723 61.7646C98.6989 61.7646 101.522 60.4436 103.52 58.3319L108 60.92V58.6269ZM95.5723 59.4102C90.825 59.4102 86.9624 55.5397 86.9624 50.7817C86.9624 46.0242 90.825 42.1537 95.5723 42.1537C100.32 42.1537 104.183 46.0242 104.183 50.7817C104.183 52.5548 103.646 54.2041 102.727 55.5765L95.5723 51.4375V53.7392L101.414 57.1141C99.8767 58.5378 97.8245 59.4102 95.5723 59.4102Z" fill="#999999"/>
</svg>
