<svg width="108" height="93" viewBox="0 0 108 93" fill="none" xmlns="http://www.w3.org/2000/svg">
<path fill-rule="evenodd" clip-rule="evenodd" d="M57.4734 34.7193C57.6864 34.7233 57.896 34.724 58.1029 34.724C58.4945 34.724 58.6724 34.6183 58.6724 34.4411C58.6724 34.3361 58.6016 34.2291 58.388 34.2291C58.0672 34.2291 57.499 34.1595 57.0002 34.0886C55.934 33.9475 55.721 33.171 55.6145 32.1477C55.4359 30.6663 55.4359 27.8779 55.4359 24.4903V21.0338H55.6145C57.3211 23.1139 64.8589 31.196 66.4589 32.5015C67.9889 33.7 68.8779 34.4772 70.7617 34.6524C71.5435 34.7233 72.2195 34.7233 73.2156 34.7233H75.0287C75.6339 34.7233 75.8105 34.6177 75.8105 34.4404C75.8105 34.2993 75.5975 34.2284 75.3481 34.2284C75.0988 34.2284 74.0682 34.1589 73.1435 33.7703C71.4377 33.0653 70.8324 32.5008 67.8467 29.748C66.3882 28.4076 58.9925 20.8212 58.0672 19.7979C58.8139 18.915 65.0011 12.917 65.8894 12.0689C67.4901 10.5527 68.272 9.67053 69.7305 9.03514C70.4415 8.71812 71.1883 8.54155 71.7214 8.54155C72.0058 8.54155 72.0766 8.47066 72.0766 8.29409C72.0766 8.11752 71.9344 8.04729 71.5428 8.04729C70.6538 8.04729 68.3077 8.1523 68.1304 8.1523C67.2765 8.1523 66.1745 8.04729 65.4635 8.04729C65.2141 8.04729 65.0368 8.11752 65.0368 8.29409C65.0368 8.43521 65.1784 8.50544 65.357 8.577C65.6414 8.68268 65.8187 8.89402 65.8187 9.31672C65.8187 9.91732 64.8946 10.835 63.8985 11.8583C62.6193 13.2334 56.1827 19.7263 55.5781 20.3958H55.4359V18.279C55.4359 12.7745 55.4359 3.73873 55.5074 2.60975C55.533 2.1496 55.5896 1.77773 55.6988 1.48278C55.9064 1.02196 56.2892 0.749083 57.007 0.598598C57.2914 0.528371 57.896 0.492923 58.2161 0.492923C58.3583 0.492923 58.5005 0.422697 58.5005 0.280906C58.5012 0.0702265 58.3246 0 57.933 0C57.7854 0 57.6318 0.000668824 57.4774 0.00200647C57.4599 0.00200647 57.4478 0 57.4276 0C56.7448 0 55.657 0.0421359 54.8772 0.0735707C54.6581 0.0829342 54.4688 0.0889536 54.3238 0.0956419C54.1735 0.100324 54.0637 0.103668 54.001 0.104337C53.9363 0.103668 53.8265 0.100324 53.6762 0.0956419C53.5326 0.0889536 53.3425 0.0822654 53.1235 0.0735707C52.3423 0.0421359 51.2545 0 50.5718 0C50.5522 0 50.5401 0.00200647 50.5219 0.00200647C50.3669 0.000668824 50.2139 0 50.067 0C49.6747 0 49.4981 0.0702265 49.4981 0.282244C49.4981 0.423366 49.6403 0.494261 49.7825 0.494261C50.102 0.494261 50.7072 0.529709 50.9903 0.599935C51.7095 0.75109 52.0923 1.0233 52.2985 1.48412C52.4084 1.77907 52.4657 2.15094 52.4913 2.61109C52.5627 3.74006 52.5627 12.7759 52.5627 18.2803V20.3971H52.4205C51.816 19.7276 45.3801 13.2347 44.1008 11.8596C43.1054 10.8356 42.18 9.91866 42.18 9.31806C42.18 8.89469 42.3579 8.68334 42.6437 8.57834C42.821 8.50744 42.9638 8.43655 42.9638 8.29543C42.9638 8.11886 42.7859 8.04863 42.5359 8.04863C41.8261 8.04863 40.7235 8.15364 39.8702 8.15364C39.6916 8.15364 37.3455 8.04863 36.4565 8.04863C36.0649 8.04863 35.9227 8.11886 35.9227 8.29543C35.9227 8.47133 35.9935 8.54289 36.2786 8.54289C36.8117 8.54289 37.5592 8.71946 38.2702 9.03648C39.728 9.67187 40.5105 10.554 42.1106 12.0703C42.9989 12.9183 49.1867 18.9164 49.9322 19.7992C49.0068 20.8225 41.6118 28.409 40.154 29.7493C37.1676 32.5022 36.5623 33.0667 34.8558 33.7716C33.9318 34.1602 32.8999 34.2298 32.6512 34.2298C32.4025 34.2298 32.1895 34.3 32.1895 34.4418C32.1895 34.619 32.3668 34.7247 32.9713 34.7247H34.7857C35.7812 34.7247 36.4565 34.7247 37.239 34.6538C39.1221 34.4779 40.0125 33.7014 41.5417 32.5028C43.1411 31.1966 50.6789 23.1152 52.3848 21.0352H52.5634V24.4917C52.5634 27.8793 52.5634 30.6669 52.3848 32.149C52.2783 33.1723 52.066 33.9488 50.9991 34.09C50.501 34.1602 49.9322 34.2304 49.612 34.2304C49.3984 34.2304 49.3276 34.3374 49.3276 34.4424C49.3276 34.6197 49.5049 34.7253 49.8964 34.7253C50.1027 34.7253 50.3123 34.7247 50.5246 34.7207C50.5522 34.722 50.5711 34.7253 50.6008 34.7253C51.6535 34.7253 53.6755 34.623 53.9997 34.6197C54.3225 34.6224 56.3451 34.7253 57.3979 34.7253C57.4276 34.724 57.4478 34.7207 57.4734 34.7193ZM27.9798 91.9312C27.7102 91.9312 26.5941 91.8543 25.5932 91.4336C23.7465 90.6705 23.0914 90.0592 19.859 87.0809C18.2805 85.6296 10.2756 77.4184 9.2747 76.3102C10.0828 75.3551 16.7789 68.8628 17.7413 67.9458C19.4734 66.3039 20.32 65.3488 21.8984 64.6619C22.6681 64.3181 23.4762 64.1275 24.0532 64.1275C24.3612 64.1275 24.438 64.0506 24.438 63.86C24.438 63.668 24.2837 63.5925 23.8604 63.5925C22.8986 63.5925 20.3577 63.7075 20.1663 63.7075C19.2423 63.7075 18.0493 63.5925 17.2796 63.5925C17.01 63.5925 16.8173 63.668 16.8173 63.86C16.8173 64.0132 16.9709 64.0887 17.1637 64.1656C17.4717 64.2807 17.6631 64.5094 17.6631 64.9676C17.6631 65.617 16.6629 66.6095 15.5852 67.7171C14.1995 69.2066 7.2332 76.2339 6.57877 76.9589H6.42712V74.6675C6.42712 68.7096 6.42712 58.9294 6.50395 57.7068C6.58079 56.3705 6.8888 55.7211 7.92808 55.5305C8.39044 55.4549 8.62027 55.4154 8.89053 55.4154C9.0442 55.4154 9.19854 55.3398 9.19854 55.1867C9.19854 54.9566 9.00578 54.881 8.58252 54.881C7.42799 54.881 5.19508 54.9961 4.84932 54.9961C4.61814 54.9961 2.34682 54.881 0.615348 54.881C0.19276 54.8824 0 54.9579 0 55.188C0 55.3412 0.153669 55.4168 0.308011 55.4168C0.654439 55.4168 1.30888 55.4562 1.61622 55.5318C2.88668 55.798 3.19401 56.41 3.27085 57.7082C3.34768 58.9308 3.34768 68.711 3.34768 74.6689V81.3899C3.34768 85.0564 3.34768 88.0741 3.1556 89.6786C3.00125 90.7862 2.80849 91.6262 2.03948 91.7794C1.69305 91.855 1.23137 91.9325 0.884942 91.9325C0.654439 91.9325 0.576931 92.0463 0.576931 92.1613C0.576931 92.3914 0.769691 92.4669 1.19363 92.4669C2.34749 92.4669 4.57973 92.3532 4.88841 92.3532C5.19575 92.3532 7.42866 92.4669 9.3138 92.4669C9.73706 92.4669 9.92982 92.3532 9.92982 92.1613C9.92982 92.0463 9.85298 91.9325 9.62181 91.9325C9.27538 91.9325 8.65936 91.8556 8.12084 91.7794C6.96631 91.6262 6.7358 90.7869 6.62055 89.6786C6.42779 88.0748 6.42779 85.057 6.42779 81.3899V77.6471H6.62055C8.46727 79.9004 16.6265 88.646 18.3587 90.0599C20.014 91.358 20.9758 92.1981 23.0152 92.39C23.8618 92.4656 24.5937 92.4656 25.6707 92.4656H27.6334C28.2885 92.4656 28.4799 92.3519 28.4799 92.16C28.4799 92.0068 28.2494 91.9312 27.9798 91.9312ZM53.4248 87.1565C53.1936 87.1565 53.1167 87.3484 53.0783 87.6527C52.9631 88.3791 52.5782 89.3342 52.0775 89.9455C51.1534 91.0517 48.4777 91.0898 46.4382 91.0898C43.4363 91.0898 40.3312 90.8236 39.7159 90.2117C39.023 89.5248 38.8694 87.0802 38.8694 81.4661V74.6682C38.8694 68.7103 38.8694 67.6402 38.9469 66.4189C39.0237 65.0826 39.3317 64.4318 40.4479 64.2412C40.9095 64.1656 41.4487 64.1275 41.7183 64.1275C41.872 64.1275 42.0263 64.0506 42.0263 63.8975C42.0263 63.6674 41.8336 63.5918 41.4103 63.5918C40.2558 63.5918 37.4459 63.7068 37.2538 63.7068C37.0611 63.7068 34.6368 63.5918 32.9039 63.5918C32.4807 63.5918 32.2886 63.6674 32.2886 63.8975C32.2886 64.0506 32.4429 64.1275 32.5966 64.1275C32.9424 64.1275 33.5968 64.1656 33.9048 64.2412C35.1753 64.5088 35.4833 65.1201 35.5601 66.4189C35.6369 67.6402 35.6369 68.7103 35.6369 74.6682V81.3892C35.6369 85.0557 35.6369 88.0734 35.4455 89.6779C35.2912 90.7855 35.0991 91.6256 34.3294 91.7787C33.983 91.8543 33.5213 91.9319 33.1742 91.9319C32.943 91.9319 32.8669 92.0456 32.8669 92.1606C32.8669 92.3907 33.059 92.4663 33.4829 92.4663C34.0598 92.4663 34.9063 92.4282 35.676 92.3907C36.4464 92.3907 37.1008 92.3526 37.2545 92.3526C38.3706 92.3526 39.5636 92.3907 41.1798 92.4663C42.7967 92.5044 47.8839 92.5813 50.6547 92.5813C52.6948 92.5813 52.8101 92.4281 53.0797 91.5507C53.3877 90.4417 53.6566 88.1517 53.6566 87.731C53.6566 87.3103 53.6175 87.1565 53.4248 87.1565ZM83.4353 63.5925C82.2801 63.5925 80.4718 63.7075 80.2022 63.7075C79.971 63.7075 77.8547 63.5925 76.1225 63.5925C75.6993 63.5925 75.5065 63.668 75.5065 63.8981C75.5065 64.0513 75.6609 64.1282 75.8145 64.1282C76.161 64.1282 76.8147 64.1663 77.1227 64.2419C78.3932 64.5094 78.7005 65.1207 78.7774 66.4196C78.8562 67.6409 78.8562 68.7103 78.8562 74.6689V79.4436C78.8562 83.377 78.3939 86.6228 76.6233 88.8004C75.2376 90.4411 72.9292 91.55 70.5804 91.55C68.3872 91.55 66.6558 91.2049 64.7693 89.4479C63.1146 87.8828 61.8826 85.5145 61.8826 80.0148V74.6682C61.8826 68.7103 61.8826 67.6402 61.9601 66.4189C62.0369 65.0826 62.3449 64.3944 63.3836 64.2412C63.8459 64.1656 64.0764 64.1275 64.346 64.1275C64.5004 64.1275 64.654 64.0506 64.654 63.8975C64.654 63.6674 64.4613 63.5918 64.038 63.5918C62.8835 63.5918 60.5744 63.7068 60.228 63.7068C59.8815 63.7068 57.534 63.5918 55.8026 63.5918C55.3786 63.5918 55.1866 63.6674 55.1866 63.8975C55.1866 64.0506 55.3409 64.1275 55.4946 64.1275C55.841 64.1275 56.4948 64.1656 56.8028 64.2412C58.0726 64.5088 58.3812 65.1201 58.4581 66.4189C58.5342 67.6402 58.5342 68.7103 58.5342 74.6682V80.2449C58.5342 85.8202 59.9968 88.4928 61.8826 90.2879C64.6156 92.8468 68.5025 93 69.8113 93C72.082 93 74.968 92.6188 77.7394 90.1742C80.8189 87.4621 81.2805 82.88 81.2805 78.7547V74.6689C81.2805 68.711 81.2805 67.6409 81.3574 66.4196C81.4342 65.0833 81.7422 64.4706 82.7815 64.2419C83.2432 64.1663 83.4737 64.1282 83.7433 64.1282C83.8976 64.1282 84.0513 64.0513 84.0513 63.8981C84.0513 63.668 83.8585 63.5925 83.4353 63.5925ZM100.743 76.0807L99.3508 75.2407C94.5783 72.3761 93.2856 71.0017 93.2856 68.824C93.2856 66.0377 95.97 64.3944 99.4006 64.3944C103.974 64.3944 104.584 65.9982 104.883 66.4189C105.181 66.8383 105.481 67.8703 105.529 68.3284C105.579 68.6327 105.628 68.8233 105.927 68.8233C106.175 68.8233 106.275 68.5571 106.275 67.9452C106.275 65.3481 106.474 64.0874 106.474 63.8968C106.474 63.7062 106.375 63.6293 105.977 63.6293C105.58 63.6293 105.181 63.5911 104.238 63.4386C102.994 63.2099 102.285 63.0574 100.346 63.0574C94.0323 63.0574 90.0552 65.8451 90.0552 69.9309C90.0552 72.528 91.2488 74.8963 96.518 78.2197L98.7543 79.6329C103.029 82.3436 104.47 83.8719 104.47 86.5064C104.47 88.9516 102.134 91.5868 97.3618 91.5868C94.0317 91.5868 90.7507 90.5166 90.006 87.6902C89.8557 87.1558 89.8557 86.6214 89.8557 86.2783C89.8557 85.9727 89.8058 85.8576 89.5072 85.8576C89.2585 85.8576 89.1588 86.0482 89.1096 86.4689C89.0604 87.0802 88.8609 88.6072 88.8609 90.5173C88.8609 91.5493 88.9114 91.7018 89.607 91.9687C91.6444 92.7331 93.9306 92.9993 96.268 92.9993C98.9518 92.9993 101.638 92.5419 103.775 91.3955C107.205 89.5248 108 86.6221 108 85.0557C108 82.0018 106.608 79.6335 100.743 76.0807Z" fill="#999999"/>
</svg>
