<svg width="108" height="83" viewBox="0 0 108 83" fill="none" xmlns="http://www.w3.org/2000/svg">
<g clip-path="url(#clip0)">
<path d="M4.84979 47.4672C5.68109 47.4563 6.5232 47.6942 7.20328 48.1846C7.26449 48.2268 7.30329 48.2963 7.30329 48.3658C7.30329 48.4281 7.27449 48.4856 7.22808 48.5274C7.17808 48.5724 7.10687 48.6009 7.02846 48.6009C6.96445 48.6009 6.89524 48.5784 6.84924 48.5443C6.26396 48.1219 5.54108 47.9217 4.82619 47.9374C4.03889 47.9551 3.262 48.234 2.68713 48.7661C2.62312 48.8248 2.56271 48.8863 2.50671 48.9494C2.4695 48.9908 2.4343 49.033 2.40029 49.0748C2.04545 49.5225 1.87383 50.0434 1.88263 50.5622C1.89143 51.0807 2.08185 51.5968 2.4523 52.0352C2.4891 52.0786 2.52711 52.1216 2.56751 52.1638C2.62472 52.2225 2.68513 52.2812 2.74954 52.3367C2.90955 52.4761 3.08638 52.5983 3.276 52.702C3.32801 52.7305 3.38121 52.7579 3.43522 52.784C3.46482 52.7976 3.49443 52.8109 3.52443 52.8246C3.57924 52.8487 3.63524 52.8712 3.69125 52.8925C3.72245 52.9038 3.75366 52.9154 3.78486 52.9259C4.1081 53.036 4.45374 53.0991 4.80779 53.1083C5.58388 53.13 6.34117 52.8937 6.91804 52.4512C6.96565 52.4142 7.03646 52.3905 7.10287 52.3905C7.25449 52.3905 7.3773 52.4958 7.3773 52.6256C7.3773 52.6923 7.3417 52.7591 7.28449 52.8017C7.01686 53.007 6.71482 53.1754 6.39238 53.3016C5.89472 53.497 5.34665 53.5938 4.79018 53.5782C4.36853 53.5669 3.95688 53.4913 3.57244 53.3591C3.53843 53.3475 3.50483 53.3354 3.47122 53.3225C3.43482 53.3093 3.39881 53.2952 3.36321 53.2803C3.33001 53.2671 3.2972 53.2534 3.2648 53.2385C3.23239 53.2237 3.20039 53.2104 3.16839 53.1947C3.13358 53.1783 3.09918 53.1614 3.06517 53.1437C3.03397 53.1276 3.00277 53.1111 2.97196 53.0939C2.75074 52.9721 2.54471 52.8294 2.35789 52.6666C2.27988 52.5983 2.20667 52.528 2.13746 52.456C2.09185 52.4086 2.04825 52.3604 2.00704 52.3109C1.98544 52.2856 1.96424 52.2595 1.94344 52.2338C1.54739 51.7322 1.34376 51.1522 1.33376 50.5695C1.32376 49.9867 1.50698 49.4015 1.88503 48.8899C1.90503 48.8638 1.92463 48.8369 1.94544 48.8111C1.98544 48.7609 2.02705 48.7111 2.07105 48.6624C2.13746 48.5885 2.20827 48.5165 2.28388 48.4474C2.97196 47.8108 3.90728 47.48 4.84979 47.4672Z" fill="#999999"/>
<path d="M4.90261 53.6104C4.86461 53.6104 4.82701 53.6096 4.7894 53.6088C4.36775 53.5975 3.9553 53.5232 3.56245 53.3881C3.52805 53.3761 3.49444 53.3636 3.46044 53.3508C3.42443 53.3379 3.38763 53.3234 3.35163 53.3086C3.31882 53.2953 3.28562 53.2816 3.25281 53.2664C3.22001 53.2523 3.188 53.2378 3.1556 53.2221C3.1204 53.2057 3.08599 53.1888 3.05159 53.1707C3.01998 53.1546 2.98838 53.1382 2.95758 53.1205C2.73355 52.9971 2.52512 52.8524 2.3383 52.6896C2.26069 52.6221 2.18588 52.5506 2.11587 52.4774C2.06667 52.426 2.02346 52.3777 1.98386 52.3303C1.96226 52.305 1.94145 52.2789 1.92025 52.2532C1.5274 51.756 1.31418 51.1736 1.30377 50.5704C1.29297 49.9667 1.4858 49.3799 1.86064 48.8723C1.88105 48.8458 1.90145 48.8189 1.92225 48.7927C1.96306 48.7409 2.00586 48.6906 2.04867 48.6428C2.11547 48.5681 2.18788 48.4949 2.26349 48.425C2.93797 47.8016 3.85649 47.4508 4.84941 47.4375H4.90501C5.75192 47.4375 6.57242 47.6935 7.2209 48.1605C7.29011 48.2088 7.33331 48.2875 7.33331 48.3667C7.33331 48.4354 7.30331 48.5009 7.2485 48.5508C7.19129 48.6026 7.11088 48.632 7.02847 48.632C6.95887 48.632 6.88366 48.6079 6.83125 48.5697C6.27238 48.1662 5.5643 47.9523 4.82701 47.9688C4.01291 47.9869 3.26001 48.2787 2.70755 48.7891C2.64434 48.847 2.58473 48.9081 2.52872 48.97C2.49192 49.011 2.45752 49.0524 2.42391 49.0946C2.08027 49.5282 1.90345 50.0354 1.91265 50.5623C1.92185 51.0892 2.11627 51.592 2.47512 52.0164C2.51232 52.0602 2.55073 52.1032 2.58913 52.1434C2.64794 52.2045 2.70835 52.262 2.76915 52.3146C2.92717 52.4521 3.10279 52.5739 3.29082 52.6764C3.34202 52.7045 3.39443 52.731 3.44804 52.7571C3.47724 52.7708 3.50724 52.7841 3.53645 52.7977C3.59085 52.8214 3.64606 52.844 3.70207 52.8649C3.73247 52.8761 3.76328 52.8874 3.79448 52.8978C4.11892 53.0087 4.46016 53.0698 4.8086 53.0787C4.84141 53.0799 4.87461 53.0803 4.90742 53.0803C5.64471 53.0803 6.34879 52.8504 6.89966 52.428C6.95327 52.3866 7.03087 52.3609 7.10288 52.3609C7.2709 52.3609 7.40772 52.4798 7.40772 52.6261C7.40772 52.7025 7.36812 52.7776 7.30251 52.8267C7.03447 53.0321 6.73204 53.2017 6.4036 53.3307C5.93474 53.5139 5.41828 53.6104 4.90261 53.6104ZM4.85021 47.4974C3.88609 47.5102 2.95838 47.8643 2.3043 48.4688C2.22949 48.5379 2.15868 48.6099 2.09307 48.6826C2.05107 48.7288 2.00906 48.7787 1.96906 48.8293C1.94825 48.8554 1.92865 48.882 1.90865 48.9081C1.5418 49.404 1.35338 49.9784 1.36378 50.5684C1.37418 51.1588 1.58261 51.7279 1.96706 52.2146C1.98746 52.2399 2.00826 52.266 2.02986 52.2909C2.06867 52.3371 2.11067 52.3842 2.15868 52.4348C2.22789 52.5068 2.3015 52.5771 2.37711 52.6434C2.56113 52.8034 2.76595 52.946 2.98638 53.0674C3.01718 53.0843 3.04799 53.1008 3.07879 53.1169C3.1124 53.1341 3.1468 53.151 3.1812 53.1671C3.21281 53.1824 3.24481 53.1968 3.27682 53.2113C3.30882 53.2254 3.34162 53.239 3.37483 53.2527C3.41003 53.2676 3.44524 53.2812 3.48124 53.2945C3.51484 53.307 3.54845 53.3194 3.58205 53.3307C3.9689 53.4637 4.37535 53.5372 4.791 53.5481C5.33467 53.5658 5.88633 53.4685 6.3816 53.2732C6.70483 53.147 7.00247 52.9798 7.2661 52.7776C7.31651 52.7403 7.34731 52.682 7.34731 52.6253C7.34731 52.5124 7.2377 52.4203 7.10288 52.4203C7.04328 52.4203 6.97967 52.4412 6.93646 52.475C6.34959 52.9247 5.5903 53.1578 4.807 53.1382C4.45256 53.1289 4.10572 53.0662 3.77488 52.9541C3.74367 52.9436 3.71207 52.9312 3.68127 52.9203C3.62446 52.8982 3.56805 52.8761 3.51244 52.8516C3.48204 52.8383 3.45244 52.8251 3.42243 52.8102C3.36443 52.7829 3.31202 52.7555 3.26161 52.7278C3.07039 52.6233 2.89157 52.4995 2.72995 52.3589C2.66834 52.3054 2.60633 52.2467 2.54593 52.1836C2.50672 52.1422 2.46712 52.0988 2.42911 52.0542C2.06147 51.6185 1.86184 51.1025 1.85264 50.5619C1.84304 50.021 2.02466 49.5001 2.37671 49.0552C2.41111 49.0122 2.44671 48.9696 2.48432 48.9282C2.54153 48.8647 2.60273 48.8024 2.66674 48.7433C3.23001 48.2224 3.9969 47.9254 4.82541 47.9069C4.85181 47.9065 4.87821 47.9061 4.90421 47.9061C5.6227 47.9061 6.31639 48.1224 6.86685 48.519C6.90886 48.5504 6.97247 48.5701 7.02847 48.5701C7.09608 48.5701 7.16169 48.546 7.2085 48.5046C7.2501 48.466 7.2733 48.4165 7.2733 48.3651C7.2733 48.306 7.2401 48.2457 7.18609 48.2084C6.54721 47.7478 5.73952 47.4962 4.90501 47.4962C4.88701 47.497 4.86861 47.497 4.85021 47.4974Z" fill="#999999"/>
<path d="M12.3675 47.4653C14.3389 47.4653 15.9383 48.8342 15.9383 50.5218C15.9383 52.2095 14.3389 53.5784 12.3675 53.5784C10.3957 53.5784 8.79626 52.2095 8.79626 50.5218C8.79626 48.8342 10.3957 47.4653 12.3675 47.4653ZM12.3675 47.9356C10.6981 47.9356 9.34553 49.0931 9.34553 50.5222C9.34553 51.9514 10.6981 53.1089 12.3675 53.1089C14.0369 53.1089 15.3891 51.9514 15.3891 50.5222C15.3891 49.0931 14.0369 47.9356 12.3675 47.9356Z" fill="#999999"/>
<path d="M12.3676 53.6087C10.3818 53.6087 8.76636 52.2241 8.76636 50.5216C8.76636 48.8191 10.3818 47.4346 12.3676 47.4346C14.353 47.4346 15.9684 48.8191 15.9684 50.5216C15.9684 52.2241 14.353 53.6087 12.3676 53.6087ZM12.3676 47.4953C10.415 47.4953 8.82636 48.8529 8.82636 50.5216C8.82636 52.1903 10.415 53.548 12.3676 53.548C14.3198 53.548 15.9084 52.1903 15.9084 50.5216C15.9084 48.8529 14.3198 47.4953 12.3676 47.4953ZM12.3676 53.1384C10.685 53.1384 9.31562 51.9645 9.31562 50.5216C9.31562 49.0788 10.685 47.9048 12.3676 47.9048C14.0502 47.9048 15.4192 49.0788 15.4192 50.5216C15.4192 51.9645 14.0502 53.1384 12.3676 53.1384ZM12.3676 47.9655C10.7178 47.9655 9.37563 49.1125 9.37563 50.5216C9.37563 51.9307 10.7178 53.0778 12.3676 53.0778C14.017 53.0778 15.3592 51.9307 15.3592 50.5216C15.3592 49.1125 14.017 47.9655 12.3676 47.9655Z" fill="#999999"/>
<path d="M17.9054 47.4648C17.9966 47.4648 18.085 47.5038 18.1362 47.5697L20.8377 51.0382L23.5393 47.5697C23.5901 47.5046 23.6769 47.4648 23.7677 47.4648C23.9193 47.4648 24.0425 47.5701 24.0425 47.7V53.3432C24.0425 53.4734 23.9193 53.5787 23.7677 53.5787C23.6161 53.5787 23.4933 53.4734 23.4933 53.3436V48.4768L21.0662 51.5928C21.0157 51.6575 20.9289 51.6973 20.8377 51.6973C20.7469 51.6973 20.6601 51.6575 20.6093 51.5928L18.1822 48.4768V53.3432C18.1822 53.4734 18.0594 53.5787 17.9078 53.5787C17.7561 53.5787 17.6329 53.4734 17.6329 53.3436V47.7C17.6329 47.5718 17.7517 47.4669 17.9054 47.4648Z" fill="#999999"/>
<path d="M23.7678 53.6087C23.5998 53.6087 23.4633 53.4897 23.4633 53.3434V48.5639L21.0899 51.6108C21.0342 51.6823 20.9378 51.7269 20.8378 51.7269C20.737 51.7269 20.6426 51.6835 20.5858 51.6108L18.2127 48.5639V53.343C18.2127 53.4893 18.0759 53.6087 17.9079 53.6087C17.7398 53.6087 17.603 53.4897 17.603 53.3434V47.6998C17.603 47.5535 17.7358 47.4374 17.9051 47.4346H17.9055C18.0067 47.4346 18.1039 47.4792 18.1599 47.5507L20.8378 50.989L23.5157 47.5507C23.5726 47.478 23.667 47.4346 23.7678 47.4346C23.9358 47.4346 24.0726 47.5535 24.0726 47.6998V53.343C24.0726 53.4893 23.9358 53.6087 23.7678 53.6087ZM23.5233 48.3887V53.343C23.5233 53.456 23.633 53.548 23.7678 53.548C23.9026 53.548 24.0126 53.4559 24.0126 53.3426V47.6994C24.0126 47.5865 23.9026 47.4945 23.7678 47.4945C23.6866 47.4945 23.6082 47.5302 23.563 47.5873L20.8378 51.0859L20.8146 51.0558L18.1131 47.5873C18.0679 47.5298 17.9887 47.4945 17.9059 47.4945C17.7694 47.4965 17.6634 47.5865 17.6634 47.6994V53.343C17.6634 53.456 17.773 53.548 17.9079 53.548C18.0427 53.548 18.1523 53.4559 18.1523 53.3426V48.3887L18.2059 48.4574L20.6326 51.5734C20.6778 51.6309 20.7562 51.6663 20.8378 51.6663C20.9194 51.6663 20.9982 51.6305 21.0426 51.5734L23.5233 48.3887Z" fill="#999999"/>
<path d="M2.31116 43.7147V8.52246H25.5308V9.28448H6.81291V24.0904H17.9019V24.852H6.81291V43.7147H2.31116Z" fill="#999999"/>
<path d="M73.1765 12.6333H77.415V23.0323C78.3075 17.7432 80.0922 11.9609 86.5169 11.9609C92.9421 11.9609 98.5632 14.7401 98.5632 22.2257C98.5632 28.8145 95.3064 31.5487 90.7554 32.5796L98.3844 43.8752H93.2982L85.9813 33.0728H84.9107H77.415V43.8752H73.1765V12.6333ZM77.415 32.4004H84.9107C89.2385 32.4004 94.1911 31.6834 94.1911 22.2257C94.1911 14.7847 91.3799 12.6779 86.5165 12.6779C83.4386 12.6779 81.1179 13.44 79.0216 19.1776C77.1922 24.0632 77.415 32.4004 77.415 32.4004Z" fill="#999999"/>
<path d="M34.3622 8.32764H29.8605V43.7H34.3622V8.32764Z" fill="#999999"/>
<path d="M0 73.6217C0 70.0034 1.94304 66.8138 6.16035 65.6712L1.6586 63.1959C3.50643 60.0059 6.16035 57.8159 14.4534 57.8159C20.4717 57.8159 25.3051 59.1012 25.3051 67.3375V82.2861H20.8505V70.3366C19.808 76.716 17.865 83.0003 10.046 83.0003C6.20756 83.0003 0 82.3817 0 73.6217ZM4.64377 74.0976C4.64377 80.3344 7.15567 82.2861 9.99882 82.2861C14.2161 82.2861 17.4861 80.5719 19.2395 74.0502C19.95 71.4314 20.5189 68.6228 20.7085 65.9566H9.99882C7.15567 65.9566 4.64377 68.147 4.64377 74.0976ZM9.99882 65.1475H20.8033C20.8033 60.3391 20.4241 58.4349 14.4534 58.4349C9.28833 58.4349 7.3925 61.577 6.96605 65.4333C7.3925 65.2902 8.76667 65.1475 9.99882 65.1475Z" fill="#999999"/>
<path d="M30.0441 49.1035H34.5926L46.4877 64.8141L58.3811 49.1035H62.9305V82.2854H58.4759V50.3414L46.4877 66.1468L34.5458 50.3414V82.2854H30.0441V49.1035Z" fill="#999999"/>
<path d="M79.1568 60.9263C85.9145 60.9263 91.1887 64.6934 91.1887 71.9373C91.1887 79.1813 85.9141 82.948 79.1568 82.948C72.4408 82.948 67.1254 79.1813 67.1254 71.9373C67.1254 64.6934 72.4408 60.9263 79.1568 60.9263ZM71.1631 71.9373C71.1631 79.0157 73.5942 82.3275 79.1564 82.3275C84.6371 82.3275 87.1498 79.0161 87.1498 71.9373C87.1498 64.7761 84.3071 61.5464 79.1564 61.5464C74.089 61.5468 71.1631 64.7761 71.1631 71.9373Z" fill="#999999"/>
<path d="M108 61.6299C99.759 61.6299 98.606 76.2839 98.606 82.286H94.6912V61.5881H98.606V73.6755C99.4713 68.5427 101.696 60.9258 107.959 60.9258" fill="#999999"/>
<path d="M67.982 15.0366C67.9176 14.162 66.739 14.0105 66.4518 14.6327C65.4205 15.4948 63.4662 17.1028 62.3617 18.0107C61.6224 16.9887 60.6359 15.9763 59.4953 14.8103C58.5336 13.8268 57.4431 12.712 56.2821 11.3736C55.9801 11.026 55.6077 10.5308 55.2164 9.94281C55.9841 8.94407 56.6614 7.85329 57.1334 6.65239C57.6099 5.43903 58.2756 2.27763 57.1482 0.787352C56.6978 0.192126 56.0041 -0.0731332 55.1428 0.0172961C53.6154 0.179265 52.6209 0.823523 52.1872 1.93279C51.3207 4.14891 52.9581 7.61295 54.4263 9.90865C53.629 10.8961 52.7485 11.7932 51.9136 12.6155C49.4105 15.0824 47.6603 17.1635 46.515 18.6618L45.9501 18.0332C45.0164 17.0425 44.0198 16.1004 42.9433 15.2199C42.5369 14.8875 42.0364 15.0265 41.7556 15.3264C41.592 15.4124 41.4607 15.5691 41.4067 15.8127C40.3426 20.6082 40.3334 25.5762 41.4879 30.3581C42.4837 34.4821 44.2747 38.9497 47.6187 41.7229C50.7855 44.3489 54.9544 44.5644 58.4564 42.4105C62.2829 40.0566 64.3595 35.7377 65.8085 31.6342C67.6835 26.3238 68.3948 20.6504 67.982 15.0366ZM52.7829 2.16791C53.127 1.28773 53.9211 0.79338 55.21 0.656731C55.302 0.647086 55.3912 0.641861 55.476 0.641861C55.9853 0.641861 56.3678 0.818298 56.639 1.1764C57.5387 2.36524 57.0078 5.2216 56.5382 6.41647C56.1197 7.48032 55.5257 8.46058 54.8468 9.36808C53.4706 7.14875 52.0628 4.00985 52.7829 2.16791ZM53.6666 29.8027C52.8029 28.0516 49.7261 22.3766 47.013 19.216L46.9542 19.1505C48.0867 17.6602 49.8462 15.5538 52.3621 13.0749C53.1678 12.2807 54.0159 11.4182 54.7968 10.4697C55.1764 11.0256 55.5276 11.4829 55.7997 11.7964C56.9738 13.1488 58.0712 14.271 59.0397 15.2609C60.193 16.4405 61.1595 17.4336 61.8656 18.4182C61.6656 18.5826 61.5476 18.6791 61.5476 18.6791C58.2316 21.8429 55.4876 25.5256 53.6666 29.8027Z" fill="#999999"/>
<path d="M98.6409 52.1104H67.7903V54.9157H98.6409V52.1104Z" fill="#999999"/>
</g>
<defs>
<clipPath id="clip0">
<rect width="108" height="83" fill="white"/>
</clipPath>
</defs>
</svg>
