<svg width="128" height="49" viewBox="0 0 128 49" fill="none" xmlns="http://www.w3.org/2000/svg">
<g clip-path="url(#clip0)">
<path d="M27.0172 30.9109C27.0172 30.9109 24.0624 27.0404 15.7669 30.9282C8.57902 34.2967 5.69727 30.9441 5.69727 30.9441C5.69727 35.2157 6.70628 38.5222 8.72332 40.862C10.7417 43.2019 13.2805 44.3728 16.341 44.3728C19.7181 44.3728 22.3417 43.0549 24.2121 40.4193C26.0818 37.7831 27.0172 34.6134 27.0172 30.9109Z" fill="#C4C4C4"/>
<path d="M6.04217 31.3434C6.04217 35.0757 7.02213 38.1482 8.98239 40.5629C10.9413 42.9776 13.4439 44.1844 16.4879 44.1844C19.1588 44.1844 21.5185 43.1527 23.5663 41.0896C25.6137 39.0261 26.6373 35.7663 26.6373 31.3112C26.6373 27.1846 25.6624 23.9905 23.7143 21.73C21.7652 19.4694 19.3122 18.3387 16.3561 18.3387C13.0932 18.3387 10.5588 19.612 8.75227 22.1581C6.94576 24.7042 6.04217 27.7669 6.04217 31.3434ZM3.34863 0H29.6593V4.80671H11.2644C13.4541 7.04596 16.8816 9.77838 21.5458 13.0053C25.7066 15.9024 28.6077 18.5911 30.2506 21.0718C31.8919 23.5522 32.7144 26.9106 32.7144 31.1459C32.7144 36.8309 31.186 41.2379 28.1312 44.3656C25.0764 47.4933 21.0971 49.0569 16.1912 49.0569C10.8261 49.0569 6.78627 47.3006 4.0711 43.7895C1.35593 40.278 -0.00183105 36.1074 -0.00183105 31.278C-0.00183105 25.6591 1.4323 21.3736 4.30122 18.4207C7.16947 15.4688 10.5963 13.9158 14.582 13.7624C12.5454 12.3353 8.80127 9.17546 3.34829 4.28035V0H3.34863Z" fill="#999999"/>
<path d="M47.1897 21.4811V23.1347V24.3473V25.4505H46.255H44.7144V25.2848V24.182V23.1624V21.7293C44.7144 21.3988 44.5955 21.1132 44.3566 20.8744C44.1183 20.6356 43.8253 20.5167 43.4773 20.5167C43.1471 20.5167 42.8623 20.6356 42.624 20.8744C42.3858 21.1132 42.2669 21.3988 42.2669 21.7293V21.9221V23.1902V24.3476V25.9741V29.3366V34.0776C42.2669 34.4274 42.3858 34.7211 42.624 34.9596C42.8623 35.1984 43.1475 35.3179 43.4773 35.3179C43.825 35.3179 44.118 35.1984 44.3566 34.9596C44.5955 34.7211 44.7144 34.4274 44.7144 34.0776V33.5265V32.2312V31.2384V30.3842H45.6491H47.1897V30.5773V31.9826V33.2507V35.0696C47.1897 35.824 46.9237 36.4669 46.3925 36.9996C45.8606 37.5324 45.2189 37.799 44.4681 37.799H44.3849H44.2207H42.5152C41.7634 37.799 41.122 37.5324 40.5901 36.9996C40.0589 36.4669 39.793 35.8236 39.793 35.0696V34.8769V34.5734V33.3893V32.0656V30.1634V26.2773V20.7643C39.793 20.0107 40.0589 19.3675 40.5901 18.835C41.122 18.3019 41.7637 18.0356 42.5152 18.0356H43.2306H44.4681C45.2193 18.0356 45.8606 18.3022 46.3925 18.835C46.9237 19.3675 47.1897 20.0107 47.1897 20.7643V21.4811Z" fill="#999999"/>
<path d="M57.5847 31.3211C57.4374 30.3283 57.2731 29.1895 57.089 27.9034L56.7041 25.3123C56.576 24.4489 56.4567 23.6949 56.3462 23.052L56.1273 24.5403C55.9799 25.5324 55.8059 26.681 55.6045 27.9857C55.4758 28.8308 55.3477 29.6858 55.2189 30.5488C55.0909 31.4129 54.9807 32.1757 54.8888 32.8368H55.3838H55.9897H57.8317L57.5847 31.3211ZM57.8868 18.4489C57.9422 18.7242 58.0155 19.1107 58.1064 19.6069C58.2531 20.5066 58.4643 21.7104 58.7387 23.2173C58.9955 24.706 59.2706 26.2952 59.5635 27.9861C59.8758 29.7322 60.1779 31.4779 60.4719 33.2233C60.7827 34.9508 61.0487 36.4756 61.269 37.7993H60.8564H60.3343H58.7383L58.5457 36.8889C58.4369 36.2643 58.345 35.7505 58.271 35.3457H57.6942H56.3459H55.3288H54.4218L54.2562 36.2551C54.146 36.8804 54.0548 37.3942 53.9815 37.7993H53.0184H51.4231L51.5056 37.3851C51.5424 37.1097 51.6073 36.7236 51.6982 36.2274C51.8631 35.3274 52.0743 34.1334 52.3304 32.6448C52.5872 31.1375 52.8623 29.5384 53.1559 27.8482C53.4675 26.1025 53.7791 24.3662 54.0906 22.6388C54.3843 20.8937 54.6495 19.359 54.8878 18.0356H55.9887H57.8307L57.8868 18.4489Z" fill="#999999"/>
<path d="M72.2126 21.4809V23.1345V24.3746V25.4771H71.2779C70.6548 25.4588 70.1415 25.4503 69.7373 25.4503V25.2847V24.0992V22.997V21.4809C69.7373 21.2049 69.6461 20.9759 69.4626 20.7916C69.2791 20.608 69.05 20.5162 68.775 20.5162H68.7202H68.2529C67.9778 20.5162 67.7487 20.6077 67.5652 20.7916C67.3817 20.9759 67.2901 21.2049 67.2901 21.4809V21.6184V22.6932V23.6307V25.0364C67.2901 25.3484 67.3726 25.6336 67.5375 25.8906C67.7024 26.166 67.9315 26.3686 68.2252 26.4969L68.3353 26.5518C68.4269 26.5884 68.7378 26.7361 69.27 26.9935C69.4903 27.085 69.7651 27.2045 70.0949 27.3515C70.425 27.5165 70.8197 27.7095 71.2776 27.9304C71.5526 28.0588 71.7811 28.2518 71.9646 28.5093C72.1295 28.7846 72.2119 29.079 72.2119 29.3913V29.6392V31.348V32.8922V35.0692C72.2119 35.8235 71.9466 36.4664 71.4154 36.9992C70.8836 37.532 70.2419 37.7985 69.4903 37.7985H69.4079H69.243H67.5375C66.7856 37.7985 66.1449 37.532 65.6131 36.9992C65.0812 36.4664 64.8159 35.8231 64.8159 35.0692V34.3528V32.7266V31.4859V30.4108H65.7506C66.3558 30.3925 66.8694 30.3834 67.2905 30.3834V30.5483V31.7619V32.837V34.3528C67.2905 34.6285 67.3821 34.8578 67.5655 35.0421C67.749 35.2253 67.9781 35.3174 68.2532 35.3174H68.308H68.7753C69.0504 35.3174 69.2795 35.2256 69.463 35.0421C69.6464 34.8578 69.7377 34.6285 69.7377 34.3528V34.2156V33.1676V32.2582C69.7377 31.8903 69.7286 31.4405 69.7106 30.907C69.7106 30.5951 69.6282 30.3099 69.4633 30.0531C69.2984 29.795 69.0784 29.5935 68.8033 29.4465L68.6661 29.3913C68.5746 29.3547 68.2715 29.2077 67.7585 28.9499C67.5382 28.8581 67.2635 28.7301 66.9336 28.5641C66.6035 28.4168 66.2088 28.2335 65.7509 28.0124C65.458 27.8843 65.2289 27.6818 65.064 27.4071C64.899 27.149 64.8166 26.8641 64.8166 26.5518V26.3594V26.3039V24.5676V22.9967V20.7638C64.8166 20.0102 65.0819 19.367 65.6137 18.8345C66.1456 18.3014 66.7867 18.0352 67.5382 18.0352H68.2536H69.491C70.2429 18.0352 70.8842 18.3017 71.4161 18.8345C71.9473 19.367 72.2126 20.0102 72.2126 20.7638V21.4809Z" fill="#999999"/>
<path d="M83.8462 21.4809V23.1345V24.3746V25.4771H82.9101C82.287 25.4588 81.7737 25.4503 81.3709 25.4503V25.2847V24.0992V22.997V21.4809C81.3709 21.2049 81.2793 20.9759 81.0958 20.7916C80.9124 20.608 80.6832 20.5162 80.4082 20.5162H80.3528H79.8854C79.6107 20.5162 79.3819 20.6077 79.1984 20.7916C79.0143 20.9759 78.9237 21.2049 78.9237 21.4809V21.6184V22.6932V23.6307V25.0364C78.9237 25.3484 79.0062 25.6336 79.1711 25.8906C79.3353 26.166 79.5644 26.3686 79.8581 26.4969L79.9675 26.5518C80.0591 26.5884 80.3714 26.7361 80.9029 26.9935C81.1232 27.085 81.3979 27.2045 81.7277 27.3515C82.0579 27.5165 82.4519 27.7095 82.9098 27.9304C83.1855 28.0588 83.414 28.2518 83.5981 28.5093C83.763 28.7846 83.8455 29.079 83.8455 29.3913V29.6392V31.348V32.8922V35.0692C83.8455 35.8235 83.5789 36.4664 83.0477 36.9992C82.5165 37.532 81.8741 37.7985 81.1232 37.7985H81.0401H80.8759H79.1711C78.4185 37.7985 77.7771 37.532 77.2459 36.9992C76.7141 36.4664 76.4481 35.8231 76.4481 35.0692V34.3528V32.7266V31.4859V30.4108H77.3835C77.9887 30.3925 78.5016 30.3834 78.924 30.3834V30.5483V31.7619V32.837V34.3528C78.924 34.6285 79.0146 34.8578 79.1988 35.0421C79.3823 35.2253 79.6114 35.3174 79.8858 35.3174H79.9412H80.4085C80.6836 35.3174 80.9127 35.2256 81.0962 35.0421C81.2797 34.8578 81.3712 34.6285 81.3712 34.3528V34.2156V33.1676V32.2582C81.3712 31.8903 81.3621 31.4405 81.3435 30.907C81.3435 30.5951 81.2611 30.3099 81.0962 30.0531C80.9313 29.795 80.7113 29.5935 80.4362 29.4465L80.2984 29.3913C80.2071 29.3547 79.9043 29.2077 79.3907 28.9499C79.1717 28.8581 78.8957 28.7301 78.5665 28.5641C78.2364 28.4168 77.8424 28.2335 77.3838 28.0124C77.0902 27.8843 76.8611 27.6818 76.6962 27.4071C76.5313 27.149 76.4488 26.8641 76.4488 26.5518V26.3594V26.3039V24.5676V22.9967V20.7638C76.4488 20.0102 76.7147 19.367 77.2466 18.8345C77.7778 18.3014 78.4195 18.0352 79.1717 18.0352H79.8858H81.1239C81.8751 18.0352 82.5171 18.3017 83.0483 18.8345C83.5795 19.367 83.8462 20.0102 83.8462 20.7638V21.4809Z" fill="#999999"/>
<path d="M93.0299 33.9946V32.699V31.5416V29.8883V26.47V21.6464C93.0299 21.3338 92.9198 21.0675 92.6998 20.847C92.4795 20.6265 92.2139 20.5168 91.9026 20.5168H91.8749H91.71C91.3985 20.5168 91.1325 20.6265 90.9122 20.847C90.6932 21.0675 90.582 21.3341 90.582 21.6464V21.8395V23.135V24.2924V25.9738V29.3637V34.2154C90.582 34.5277 90.6929 34.7943 90.9122 35.0148C91.1325 35.217 91.3985 35.3176 91.71 35.3176H91.7377H91.7918H91.9026C92.2142 35.3176 92.4795 35.2075 92.6998 34.9867C92.9194 34.7665 93.0299 34.4996 93.0299 34.1877V33.9946ZM95.5048 20.9845V22.4458V23.7688V25.6707V29.5022V34.987C95.5048 35.7593 95.2298 36.4205 94.68 36.9716C94.1295 37.5227 93.4702 37.7987 92.7001 37.7987H92.617H92.4798H90.8852C90.1157 37.7987 89.4551 37.5227 88.9053 36.9716C88.3555 36.4205 88.0804 35.7593 88.0804 34.987V34.7946V34.4912V33.3334V32.0104V30.1092V26.2773V20.7918C88.0804 20.0209 88.3555 19.359 88.9053 18.8073C89.4551 18.2562 90.1157 17.9805 90.8852 17.9805H91.5728H92.7001C93.4702 17.9805 94.1295 18.2558 94.68 18.8073C95.2298 19.359 95.5048 20.0209 95.5048 20.7918V20.9845Z" fill="#999999"/>
<path d="M99.7393 20.5164V17.9805H109.721V20.5164H105.954V37.799H104.002H103.507V20.5164H99.7393Z" fill="#999999"/>
<path d="M116.431 17.9805V37.799H114.478H113.956V17.9805H116.431Z" fill="#999999"/>
<path d="M128.035 21.4809V23.1345V24.3746V25.4771H127.1C126.477 25.4588 125.963 25.4503 125.561 25.4503V25.2847V24.0992V22.997V21.4809C125.561 21.2049 125.468 20.9759 125.285 20.7916C125.102 20.608 124.873 20.5162 124.598 20.5162H124.542H124.075C123.8 20.5162 123.572 20.6077 123.388 20.7916C123.204 20.9759 123.113 21.2049 123.113 21.4809V21.6184V22.6932V23.6307V25.0364C123.113 25.3484 123.196 25.6336 123.36 25.8906C123.525 26.166 123.754 26.3686 124.048 26.4969L124.157 26.5518C124.249 26.5884 124.56 26.7361 125.093 26.9935C125.313 27.085 125.588 27.2045 125.917 27.3515C126.248 27.5165 126.642 27.7095 127.099 27.9304C127.375 28.0588 127.604 28.2518 127.787 28.5093C127.952 28.7846 128.034 29.079 128.034 29.3913V29.6392V31.348V32.8922V35.0692C128.034 35.8235 127.769 36.4664 127.237 36.9992C126.706 37.532 126.064 37.7985 125.313 37.7985H125.23H125.066H123.36C122.608 37.7985 121.967 37.532 121.436 36.9992C120.904 36.4664 120.638 35.8231 120.638 35.0692V34.3528V32.7266V31.4859V30.4108H121.573C122.178 30.3925 122.691 30.3834 123.114 30.3834V30.5483V31.7619V32.837V34.3528C123.114 34.6285 123.204 34.8578 123.388 35.0421C123.572 35.2253 123.801 35.3174 124.075 35.3174H124.131H124.598C124.873 35.3174 125.102 35.2256 125.285 35.0421C125.469 34.8578 125.561 34.6285 125.561 34.3528V34.2156V33.1676V32.2582C125.561 31.8903 125.551 31.4405 125.533 30.907C125.533 30.5951 125.45 30.3099 125.285 30.0531C125.12 29.795 124.9 29.5935 124.626 29.4465L124.488 29.3913C124.397 29.3547 124.094 29.2077 123.58 28.9499C123.361 28.8581 123.085 28.7301 122.756 28.5641C122.425 28.4168 122.031 28.2335 121.574 28.0124C121.28 27.8843 121.051 27.6818 120.886 27.4071C120.721 27.149 120.638 26.8641 120.638 26.5518V26.3594V26.3039V24.5676V22.9967V20.7638C120.638 20.0102 120.904 19.367 121.436 18.8345C121.968 18.3014 122.609 18.0352 123.361 18.0352H124.075H125.314C126.065 18.0352 126.707 18.3017 127.238 18.8345C127.769 19.367 128.035 20.0102 128.035 20.7638V21.4809Z" fill="#999999"/>
</g>
<defs>
<clipPath id="clip0">
<rect width="128" height="49" fill="white"/>
</clipPath>
</defs>
</svg>
