<svg width="44" height="37" viewBox="0 0 44 37" fill="none" xmlns="http://www.w3.org/2000/svg">
<path d="M42.6719 8.86719L38.1016 1.55469C37.6797 0.921875 36.9766 0.5 36.2031 0.5H7.79688C7.02344 0.5 6.25 0.921875 5.82812 1.55469L1.32812 8.86719C-0.78125 12.1719 0.625 16.6719 4 18.0781V34.0391C4 35.4453 4.98438 36.5 6.25 36.5H37.75C38.9453 36.5 40 35.4453 40 34.0391V18.0781C43.375 16.6719 44.7109 12.1719 42.6719 8.86719ZM37.75 34.0391C37.75 34.1797 37.6797 34.25 37.6797 34.25L6.32031 34.3203C6.25 34.3203 6.25 34.1797 6.25 34.0391V25.25H37.75V34.0391ZM6.25 23V18.5H6.39062C8.5 18.5 10.3281 17.5859 11.5938 16.1797C12.8594 17.5859 14.6875 18.5 16.7969 18.5C18.8359 18.5 20.6641 17.5859 21.9297 16.1797C23.1953 17.5859 25.0938 18.5 27.1328 18.5C29.2422 18.5 31.0703 17.5859 32.3359 16.1797C33.6016 17.5859 35.4297 18.5 37.5391 18.5H37.6797V23H6.25ZM40.9844 14.1406C40.4219 15.3359 39.4375 16.0391 38.1719 16.25C37.9609 16.25 37.75 16.25 37.5391 16.25C36.2031 16.25 34.9375 15.6875 34.0234 14.7031L32.3359 12.8047L30.6484 14.7031C29.7344 15.7578 28.5391 16.3203 27.1328 16.3203C25.7969 16.3203 24.5312 15.7578 23.6172 14.7031L22 12.8047L20.3125 14.7031C19.3984 15.7578 18.1328 16.3203 16.7969 16.3203C15.3906 16.3203 14.1953 15.7578 13.2812 14.7031L11.5938 12.8047L9.90625 14.7031C8.99219 15.7578 7.72656 16.3203 6.39062 16.3203C6.17969 16.3203 5.96875 16.25 5.75781 16.25C4.49219 16.1094 3.50781 15.3359 2.94531 14.1406C2.38281 12.875 2.45312 11.2578 3.22656 10.0625L7.79688 2.75H36.2031L40.7031 10.0625C41.4766 11.2578 41.5469 12.8047 40.9844 14.1406Z" fill="#2351FF"/>
</svg>
