<svg width="45" height="35" viewBox="0 0 45 35" fill="none" xmlns="http://www.w3.org/2000/svg">
<path d="M18.7031 18.0469L19.4766 17.2734C19.6875 17.0625 19.6875 16.7109 19.4766 16.5L16.1719 13.125L19.4766 9.82031C19.6875 9.60938 19.6875 9.25781 19.4766 9.04688L18.7031 8.27344C18.4922 8.0625 18.1406 8.0625 17.9297 8.27344L13.4297 12.7734C13.1484 12.9844 13.1484 13.3359 13.4297 13.5469L17.9297 18.0469C18.1406 18.2578 18.4922 18.2578 18.7031 18.0469ZM25.4531 17.2734L26.2266 18.0469C26.4375 18.2578 26.7891 18.2578 27 18.0469L31.5 13.5469C31.7812 13.3359 31.7812 12.9844 31.5 12.7734L27 8.27344C26.7891 8.0625 26.4375 8.0625 26.2266 8.27344L25.4531 9.04688C25.2422 9.25781 25.2422 9.60938 25.4531 9.82031L28.7578 13.125L25.4531 16.5C25.3828 16.5703 25.3125 16.7109 25.3125 16.8516C25.3125 16.9922 25.3828 17.2031 25.4531 17.2734ZM43.875 24.375H40.5V5.25C40.5 2.78906 38.4609 0.75 36 0.75H9C6.46875 0.75 4.5 2.78906 4.5 5.25V24.375H1.125C0.492188 24.375 0 24.9375 0 25.5V28.875C0 32.0391 2.46094 34.5 5.625 34.5H39.375C42.4688 34.5 45 32.0391 45 28.875V25.5C45 24.9375 44.4375 24.375 43.875 24.375ZM6.75 5.25C6.75 4.05469 7.73438 3 9 3H36C37.1953 3 38.25 4.05469 38.25 5.25V24.375H27.4922C27.2109 24.375 27 24.6562 26.9297 24.9375C26.6484 25.9219 25.8047 26.625 24.75 26.625H20.25C19.125 26.625 18.2812 25.9219 18 24.9375C17.9297 24.6562 17.7188 24.375 17.4375 24.375H6.75V5.25ZM42.75 28.875C42.75 30.7734 41.2031 32.25 39.375 32.25H5.625C3.72656 32.25 2.25 30.7734 2.25 28.875V26.625H15.8906C16.3828 27.9609 17.6484 28.875 19.125 28.875H25.875C27.2812 28.875 28.5469 27.9609 29.0391 26.625H42.75V28.875Z" fill="#2351FF"/>
</svg>
