<svg width="108" height="59" viewBox="0 0 108 59" fill="none" xmlns="http://www.w3.org/2000/svg">
<g clip-path="url(#clip0)">
<path d="M95.2958 18.4942L94.8126 28.2803L104.845 18.4942H95.2958ZM50.7032 54.7168C45.9568 54.7168 43.7116 52.7313 43.7116 48.675C43.7116 42.4913 48.3158 39.1726 54.7958 38.038C55.7905 37.8678 57.6663 37.4423 58.8032 37.4423C58.8032 37.726 58.8032 47.2567 58.8032 51.8803C57.5242 52.8163 54.6253 54.7168 50.7032 54.7168ZM53.0053 17.4731C47.1505 17.4731 42.0916 20.1678 39.0221 22.3519C39.1926 22.6072 39.9032 23.912 40.0453 24.1389C40.9832 23.7418 45.2179 21.4442 48.7421 21.4442C56.9558 21.4442 58.7747 26.2947 58.7747 32.1947V35.5135C47.2358 35.7404 36.5495 38.8322 36.5495 48.8736C36.5495 54.9438 41.0684 59.0567 47.4916 59.0567C52.92 59.0567 57.5526 55.1707 58.7747 54.0077V58.3476H65.5389C65.5389 58.3476 65.5389 38.4067 65.5389 31.4856C65.6242 23.4865 62.1284 17.4731 53.0053 17.4731ZM75.1453 58.3476H81.7674V0L75.1453 3.46058V58.3476ZM91.3737 33.074L85.8316 37.7827L99.7863 58.3476H108C108 58.3476 96.66 41.5269 91.3737 33.074ZM24.0442 18.4942L0 58.3476H30.4105V50.6889C30.4105 50.6889 9.49263 56.5038 9.0379 56.4755C9.29368 56.0216 31.6326 18.4942 31.6326 18.4942H24.0442ZM19.0421 18.4942H2.98421L3.75158 26.5216L19.0421 18.4942Z" fill="#999999"/>
</g>
<defs>
<clipPath id="clip0">
<rect width="108" height="59" fill="white"/>
</clipPath>
</defs>
</svg>
