<svg width="36" height="37" viewBox="0 0 36 37" fill="none" xmlns="http://www.w3.org/2000/svg">
<path d="M31.5 0.5H4.5C1.96875 0.5 0 2.53906 0 5V25.25C0 27.7812 1.96875 29.75 4.5 29.75H11.25V35.6562C11.25 36.2188 11.6016 36.5 12.0938 36.5C12.2344 36.5 12.375 36.5 12.5859 36.3594L21.375 29.75H31.5C33.9609 29.75 36 27.7812 36 25.25V5C36 2.53906 33.9609 0.5 31.5 0.5ZM33.75 25.25C33.75 26.5156 32.6953 27.5 31.5 27.5H20.6016L19.9688 27.9922L13.5 32.8438V27.5H4.5C3.23438 27.5 2.25 26.5156 2.25 25.25V5C2.25 3.80469 3.23438 2.75 4.5 2.75H31.5C32.6953 2.75 33.75 3.80469 33.75 5V25.25ZM9 13.4375C8.01562 13.4375 7.3125 14.2109 7.3125 15.125C7.3125 16.1094 8.01562 16.8125 9 16.8125C9.91406 16.8125 10.6875 16.1094 10.6875 15.125C10.6875 14.2109 9.91406 13.4375 9 13.4375ZM18 13.4375C17.0156 13.4375 16.3125 14.2109 16.3125 15.125C16.3125 16.1094 17.0156 16.8125 18 16.8125C18.9141 16.8125 19.6875 16.1094 19.6875 15.125C19.6875 14.2109 18.9141 13.4375 18 13.4375ZM27 13.4375C26.0156 13.4375 25.3125 14.2109 25.3125 15.125C25.3125 16.1094 26.0156 16.8125 27 16.8125C27.9141 16.8125 28.6875 16.1094 28.6875 15.125C28.6875 14.2109 27.9141 13.4375 27 13.4375Z" fill="#2351FF"/>
</svg>
