<svg width="36" height="27" viewBox="0 0 36 27" fill="none" xmlns="http://www.w3.org/2000/svg">
<path d="M32.625 0H3.375C1.47656 0 0 1.54688 0 3.375V23.625C0 25.5234 1.47656 27 3.375 27H32.625C34.4531 27 36 25.5234 36 23.625V3.375C36 1.54688 34.4531 0 32.625 0ZM3.375 2.25H32.625C33.1875 2.25 33.75 2.8125 33.75 3.375V6.32812C32.2031 7.59375 29.9531 9.42188 23.1328 14.8359C21.9375 15.8203 19.6172 18.0703 18 18C16.3125 18.0703 13.9922 15.8203 12.7969 14.8359C5.97656 9.42188 3.72656 7.59375 2.25 6.32812V3.375C2.25 2.8125 2.74219 2.25 3.375 2.25ZM32.625 24.75H3.375C2.74219 24.75 2.25 24.2578 2.25 23.625V9.21094C3.79688 10.5469 6.32812 12.5859 11.3906 16.5938C12.8672 17.7891 15.3984 20.3203 18 20.25C20.5312 20.3203 23.0625 17.7891 24.5391 16.5938C29.6016 12.5859 32.1328 10.5469 33.75 9.21094V23.625C33.75 24.2578 33.1875 24.75 32.625 24.75Z" fill="#2351FF"/>
</svg>
