<svg width="57" height="57" viewBox="0 0 57 57" fill="none" xmlns="http://www.w3.org/2000/svg">
<path d="M29 13.625C21 13.625 14.625 20.125 14.625 28C14.625 36 21 42.375 29 42.375C36.875 42.375 43.375 36 43.375 28C43.375 20.125 36.875 13.625 29 13.625ZM29 37.375C23.875 37.375 19.625 33.25 19.625 28C19.625 22.875 23.75 18.75 29 18.75C34.125 18.75 38.25 22.875 38.25 28C38.25 33.25 34.125 37.375 29 37.375ZM47.25 13.125C47.25 11.25 45.75 9.75 43.875 9.75C42 9.75 40.5 11.25 40.5 13.125C40.5 15 42 16.5 43.875 16.5C45.75 16.5 47.25 15 47.25 13.125ZM56.75 16.5C56.5 12 55.5 8 52.25 4.75C49 1.5 45 0.5 40.5 0.25C35.875 0 22 0 17.375 0.25C12.875 0.5 9 1.5 5.625 4.75C2.375 8 1.375 12 1.125 16.5C0.875 21.125 0.875 35 1.125 39.625C1.375 44.125 2.375 48 5.625 51.375C9 54.625 12.875 55.625 17.375 55.875C22 56.125 35.875 56.125 40.5 55.875C45 55.625 49 54.625 52.25 51.375C55.5 48 56.5 44.125 56.75 39.625C57 35 57 21.125 56.75 16.5ZM50.75 44.5C49.875 47 47.875 48.875 45.5 49.875C41.75 51.375 33 51 29 51C24.875 51 16.125 51.375 12.5 49.875C10 48.875 8.125 47 7.125 44.5C5.625 40.875 6 32.125 6 28C6 24 5.625 15.25 7.125 11.5C8.125 9.125 10 7.25 12.5 6.25C16.125 4.75 24.875 5.125 29 5.125C33 5.125 41.75 4.75 45.5 6.25C47.875 7.125 49.75 9.125 50.75 11.5C52.25 15.25 51.875 24 51.875 28C51.875 32.125 52.25 40.875 50.75 44.5Z" fill="#2351FF"/>
</svg>
