<svg width="36" height="37" viewBox="0 0 36 37" fill="none" xmlns="http://www.w3.org/2000/svg">
<path d="M34.6641 25.25L27 21.9453C26.7891 21.875 26.3672 21.8047 26.1562 21.8047C25.5938 21.8047 24.8203 22.1562 24.4688 22.5781L21.375 26.375C17.2266 24.3359 12.1641 19.3438 10.125 15.125L13.9219 12.0312C14.3438 11.6797 14.6953 10.9062 14.6953 10.3438C14.6953 10.1328 14.625 9.71094 14.5547 9.5L11.25 1.83594C10.9688 1.13281 10.0547 0.570312 9.28125 0.570312C9.14062 0.570312 8.85938 0.570312 8.78906 0.570312L1.6875 2.25781C0.703125 2.46875 0 3.38281 0 4.36719C0 22.1562 14.4141 36.5 32.1328 36.5C33.1172 36.5 34.0312 35.7969 34.3125 34.8125L35.9297 27.7109C35.9297 27.6406 35.9297 27.3594 35.9297 27.2188C35.9297 26.4453 35.3672 25.5312 34.6641 25.25ZM32.0625 34.25C15.6094 34.25 2.25 20.8906 2.25 4.4375L9.21094 2.82031L12.4453 10.3438L7.3125 14.5625C10.7578 21.8047 14.6953 25.7422 22.0078 29.1875L26.1562 24.0547L33.6797 27.2891L32.0625 34.25Z" fill="#2351FF"/>
</svg>
