<svg width="64" height="52" viewBox="0 0 64 52" fill="none" xmlns="http://www.w3.org/2000/svg">
<path d="M57.375 13C59.875 11.125 62.125 8.875 63.875 6.25C61.625 7.25 59 8 56.375 8.25C59.125 6.625 61.125 4.125 62.125 1C59.625 2.5 56.75 3.625 53.875 4.25C51.375 1.625 48 0.125 44.25 0.125C37 0.125 31.125 6 31.125 13.25C31.125 14.25 31.25 15.25 31.5 16.25C20.625 15.625 10.875 10.375 4.375 2.5C3.25 4.375 2.625 6.625 2.625 9.125C2.625 13.625 4.875 17.625 8.5 20C6.375 19.875 4.25 19.375 2.5 18.375V18.5C2.5 24.875 7 30.125 13 31.375C12 31.625 10.75 31.875 9.625 31.875C8.75 31.875 8 31.75 7.125 31.625C8.75 36.875 13.625 40.625 19.375 40.75C14.875 44.25 9.25 46.375 3.125 46.375C2 46.375 1 46.25 0 46.125C5.75 49.875 12.625 52 20.125 52C44.25 52 57.375 32.125 57.375 14.75C57.375 14.125 57.375 13.625 57.375 13Z" fill="#2351FF"/>
</svg>
