<svg width="32" height="33" viewBox="0 0 32 33" fill="none" xmlns="http://www.w3.org/2000/svg">
<path d="M26.9688 5.39062C24.0859 2.4375 20.1484 0.75 15.9297 0.75C7.35156 0.75 0.320312 7.78125 0.320312 16.3594C0.320312 19.1719 1.09375 21.8438 2.42969 24.1641L0.25 32.25L8.47656 30.1406C10.7969 31.3359 13.3281 32.0391 15.9297 32.0391C24.5781 32.0391 31.75 25.0078 31.75 16.4297C31.75 12.2109 29.9219 8.34375 26.9688 5.39062ZM15.9297 29.3672C13.6094 29.3672 11.3594 28.7344 9.32031 27.5391L8.89844 27.2578L3.97656 28.5938L5.3125 23.8125L4.96094 23.3203C3.69531 21.2109 2.99219 18.8203 2.99219 16.3594C2.99219 9.25781 8.82812 3.42188 16 3.42188C19.4453 3.42188 22.6797 4.75781 25.1406 7.21875C27.6016 9.67969 29.0781 12.9141 29.0781 16.4297C29.0781 23.5312 23.1016 29.3672 15.9297 29.3672ZM23.1016 19.6641C22.6797 19.4531 20.7812 18.5391 20.4297 18.3984C20.0781 18.2578 19.7969 18.1875 19.5156 18.6094C19.3047 18.9609 18.5312 19.875 18.3203 20.1562C18.0391 20.3672 17.8281 20.4375 17.4766 20.2266C15.1562 19.1016 13.6797 18.1875 12.1328 15.5859C11.7109 14.8828 12.5547 14.9531 13.2578 13.4766C13.3984 13.1953 13.3281 12.9844 13.2578 12.7734C13.1875 12.5625 12.3438 10.6641 12.0625 9.89062C11.7109 9.11719 11.4297 9.1875 11.1484 9.1875C10.9375 9.1875 10.6562 9.1875 10.4453 9.1875C10.1641 9.1875 9.74219 9.25781 9.39062 9.67969C9.03906 10.1016 8.05469 11.0156 8.05469 12.9141C8.05469 14.8828 9.39062 16.7109 9.60156 16.9922C9.8125 17.2031 12.3438 21.1406 16.2812 22.8281C18.7422 23.9531 19.7266 24.0234 20.9922 23.8125C21.6953 23.7422 23.2422 22.8984 23.5938 21.9844C23.9453 21.0703 23.9453 20.2969 23.8047 20.1562C23.7344 19.9453 23.4531 19.875 23.1016 19.6641Z" fill="#2351FF"/>
</svg>
