<svg width="124" height="69" viewBox="0 0 124 69" fill="none" xmlns="http://www.w3.org/2000/svg">
<g clip-path="url(#clip0)">
<path d="M9.81878 51.6201H13.574L11.2738 61.7649C11.2164 62.0816 11.3012 62.2819 11.6239 62.2819C12.6714 62.2819 13.8666 60.2058 14.1565 59.3694L14.7692 59.5156C14.1292 61.7081 12.6714 63.4647 10.1962 63.4647C9.06392 63.4647 7.7812 62.945 7.7812 61.6187C7.7812 61.0693 7.92616 60.4954 7.98359 59.946L7.92616 59.8891C6.73369 61.8488 5.42362 63.462 2.891 63.462C1.72588 63.462 0.0356445 62.8557 0.0356445 61.4753C0.0356445 61.2993 0.0930798 61.0124 0.183335 60.666L2.1334 52.424H0.0356445L0.24077 51.6174H3.23834C3.73338 51.6174 4.22842 51.5876 4.72346 51.5578C5.21849 51.528 5.71353 51.501 6.20857 51.501L3.8209 61.099C3.67595 61.7054 3.3833 62.4497 4.22842 62.4497C5.24858 62.4497 6.38361 61.099 6.93608 60.3493C7.25608 59.9162 7.98359 58.8795 8.1012 58.3896L9.81878 51.6201Z" fill="#999999"/>
<path d="M21.672 54.5595L21.7294 54.6164C23.0695 53.1168 24.2921 51.4468 26.5348 51.4468C27.8175 51.4468 29.7949 52.1668 29.2726 54.4431L27.5851 61.5916C27.5249 61.8785 27.8175 62.1384 28.0774 62.1384C29.0401 62.1384 30.3201 59.9784 30.6401 59.2016L31.1351 59.345C30.1751 61.6782 29.1249 63.148 26.4473 63.148C24.9622 63.148 23.5044 62.5417 24.0897 60.1516L25.6049 54.0425C25.8948 52.8326 25.5748 52.4293 25.2247 52.4293C24.4398 52.4293 23.5372 53.4985 23.0121 54.0425C21.5844 55.5421 21.2644 56.4921 20.7995 58.395L19.6918 63.0316H15.8765L18.4693 52.4266H16.3742L16.5766 51.62H19.5769C20.567 51.62 21.5571 51.5036 22.5472 51.5036L21.672 54.5595Z" fill="#999999"/>
<path d="M32.1826 52.4268L32.3877 51.6202H35.3853C35.8804 51.6202 36.3754 51.5904 36.8704 51.5606C37.3655 51.5309 37.8605 51.5038 38.3528 51.5038L36.0527 61.1019C35.8776 61.8787 35.7901 62.2549 36.4027 62.2549C37.3928 62.2549 38.5853 59.919 38.9381 59.0854L39.5507 59.3723C38.588 61.8246 37.4229 63.4676 34.6277 63.4676C33.4052 63.4676 32.2701 62.8342 32.2701 61.8543C32.2701 61.4213 32.4753 60.501 32.6777 59.578L34.2776 52.4295H32.1826V52.4268ZM39.2007 46.4612C39.2007 47.6142 38.268 48.5372 37.1631 48.5372C36.0855 48.5372 35.3005 47.5276 35.3005 46.4612C35.3005 45.5111 36.2332 44.561 37.1631 44.561C38.2106 44.561 39.2007 45.3379 39.2007 46.4612Z" fill="#999999"/>
<path d="M40.1633 52.4265L40.3356 51.6199H43.0734C43.8583 48.3042 45.5786 45.1048 48.6637 43.7244C49.1588 43.4943 49.7988 43.3481 50.354 43.3481C51.8664 43.3481 53.7016 44.0979 53.7016 45.8844C53.7016 47.0076 53.0015 47.5869 51.9266 47.5869C51.1416 47.5869 50.3266 47.0672 50.3266 46.2065C50.3266 45.6001 50.7341 45.1102 50.8818 44.5337C50.9393 44.3036 50.7341 44.1602 50.2993 44.1602C47.5013 44.1602 47.299 49.5493 46.834 51.6253H50.0941L49.9191 52.4319H46.6863C46.019 55.7477 45.3489 59.0337 44.2412 62.1762C43.4262 64.6231 41.7961 69.0053 38.6809 69.0053C36.8184 69.0053 35.9131 67.706 35.9131 66.7289C35.9131 65.8654 36.6133 65.0886 37.483 65.0886C38.2707 65.0886 39.1431 65.519 39.1431 66.4718C39.1431 67.1051 38.7083 67.7953 38.7083 68.0281C38.7083 68.2284 38.8833 68.1986 39.0283 68.1986C40.2508 68.1986 40.7185 64.5391 40.8334 63.7921L42.871 52.4373H40.1633V52.4265Z" fill="#999999"/>
<path d="M64.0704 56.3186C64.0704 59.5451 60.9251 62.4548 57.9549 63.1775C57.0223 63.4076 56.3549 63.4671 55.4223 63.4671C51.957 63.4671 50.2695 61.1312 50.2695 58.6248C50.2695 54.562 54.9874 51.4492 58.7426 51.4492C61.5077 51.4465 64.0704 53.436 64.0704 56.3186ZM55.7997 53.9557C55.3922 55.0789 54.2271 60.8443 54.2271 61.7077C54.2271 62.601 55.3047 62.6578 56.0322 62.6578C57.1672 62.6578 57.8947 62.5414 58.3023 61.4777C58.9122 59.9484 60.1074 55.2224 60.1074 53.6363C60.1074 52.6267 59.4674 52.2531 58.4199 52.2531C57.0824 52.2531 56.2373 52.7728 55.7997 53.9557Z" fill="#999999"/>
<path d="M71.8457 54.5325L71.9031 54.5893C72.7181 53.5228 73.9708 51.4468 75.5735 51.4468C76.6483 51.4468 77.2336 52.1099 77.2336 53.1466C77.2336 54.1833 76.6812 54.8789 75.6036 54.8789C74.9909 54.8789 74.6709 54.5595 74.4385 54.2699C74.206 53.9532 74.0884 53.6663 73.7985 53.6663C73.3034 53.6663 72.5157 54.8464 72.3133 55.1929C71.6132 56.373 71.3807 56.9496 71.0306 58.3354L69.8655 63.0289H66.1377L68.6129 52.4239H66.5179L66.7202 51.6173H69.7206C70.7079 51.6173 71.7007 51.5009 72.6908 51.5009L71.8457 54.5325Z" fill="#999999"/>
<path d="M82.6189 54.6759L82.6763 54.7328C83.959 53.1764 85.3293 51.4468 87.5392 51.4468C89.7217 51.4468 90.482 52.9761 90.1019 54.933L90.1593 54.9926C91.2396 53.2332 92.7822 51.4468 95.0522 51.4468C96.5674 51.4468 97.6751 52.2832 97.6751 53.8395C97.6751 54.2428 97.4973 55.0765 97.2649 55.9427L96.2146 59.9188C96.0122 60.6984 95.8098 61.4184 95.8098 61.5618C95.8098 61.8488 95.8974 62.0518 96.2474 62.0518C97.295 62.0518 98.5476 59.8052 98.9825 58.9986L99.6252 59.2584C98.6351 61.2181 97.4126 63.148 94.9374 63.148C92.9846 63.148 92.3172 62.2548 92.3172 61.1585C92.3172 60.6118 92.5196 59.9216 92.7548 58.9986L94.1497 53.466C94.3548 52.6865 94.0923 52.4266 93.8871 52.4266C92.1695 52.4266 89.7518 56.2052 89.0817 59.3423L88.2968 63.0289H84.5115L86.694 53.807C86.8992 53.0004 87.0441 52.4239 86.2865 52.4239C85.7915 52.4239 85.2965 52.8868 84.8288 53.3469C83.7238 54.4404 82.5888 56.1159 82.1512 57.8428L80.8138 63.0289H77.0586L79.5338 52.4239H77.436L77.6412 51.6173H80.5211C81.4811 51.6173 82.4165 51.5009 83.3765 51.5009L82.6189 54.6759Z" fill="#999999"/>
<path d="M104.838 58.3352C104.663 59.315 104.343 60.3219 104.343 61.3018C104.343 62.3411 104.953 62.6578 105.886 62.6578C108.391 62.6578 110.371 61.3613 111.826 59.4016L112.294 59.8049C110.664 62.2248 108.304 63.4644 105.391 63.4644C102.656 63.4644 100.326 61.7917 100.326 58.909C100.326 55.0194 104.606 51.4438 108.361 51.4438C110.194 51.4438 112.641 52.2505 112.641 54.4997C112.641 56.343 111.361 57.2958 109.731 57.8399C108.946 58.0997 108.041 58.3325 107.196 58.3325H104.838V58.3352ZM106.731 57.5286C107.546 57.5286 109.674 56.6083 109.674 53.8961C109.674 52.7999 109.264 52.2532 108.099 52.2532C107.226 52.2532 106.499 52.6538 106.004 54.2994L105.041 57.5286H106.731Z" fill="#999999"/>
<path d="M116.864 57.269C115.844 56.4921 115.934 55.7126 115.934 55.2227C115.934 53.4335 117.622 51.4468 120.592 51.4468C121.875 51.4468 124 51.9962 124 53.6365C124 54.3538 123.477 55.0765 122.69 55.0765C121.847 55.0765 121.292 54.6732 121.147 53.8395C121.117 53.6663 121.235 52.9761 121.292 52.7162C121.38 52.3671 120.39 52.2534 120.157 52.2534C119.487 52.2534 118.322 52.3968 118.322 53.263C118.322 53.7827 118.527 53.9559 118.904 54.2131L121.815 56.346C122.807 57.0687 123.562 57.9294 123.562 59.2584C123.562 62.0545 121.175 63.4674 118.639 63.4674C117.039 63.4674 114.359 62.9179 114.359 60.8446C114.359 59.8647 115.086 59.142 116.079 59.142C116.924 59.142 117.564 59.8349 117.564 60.6686C117.564 61.1585 117.187 61.7378 117.187 62.0815C117.187 62.6012 118.352 62.6581 118.787 62.6581C119.659 62.6581 121.117 62.4848 121.117 61.302C121.117 60.6686 120.679 60.1787 120.187 59.8052L116.864 57.269Z" fill="#999999"/>
<path d="M0 39.5265L0.352817 37.7914H4.61944L11.9876 2.60393H7.54316L7.95342 0.866211H25.6134C35.2023 0.866211 43.741 5.61382 43.741 17.3015C43.741 25.059 39.4143 32.175 32.9815 36.2838C27.3693 39.8729 22.6322 39.5238 16.3143 39.5238H0V39.5265ZM14.5038 37.7914H18.5379C20.8791 37.7914 23.0397 37.6182 25.2633 36.8062C29.065 35.4176 31.2256 28.1853 32.0461 24.5961C32.8666 20.8933 34.1521 13.2522 34.1521 9.60625C34.1521 3.3564 29.4752 2.60393 26.1385 2.60393H21.8145L14.5038 37.7914Z" fill="#999999"/>
<path d="M65.6705 16.6082H72.1607L67.1337 35.2414C66.666 37.0359 67.544 37.266 67.894 37.266C69.8824 37.266 72.2208 32.6943 72.9812 31.073L74.2092 31.479C72.5135 35.0086 70.1149 39.7562 65.613 39.7562C62.8069 39.7562 61.4613 37.266 60.9936 34.8381C59.0654 37.848 56.6641 40.3923 52.805 40.3923C47.7753 40.3923 44.8516 36.1671 44.8516 31.479C44.8516 25.2292 49.1209 19.3258 54.8508 17.0684C55.9612 16.6055 57.1318 16.2563 58.2996 16.2563C61.2808 16.2563 63.2719 17.9345 64.4397 20.5979L65.6705 16.6082ZM54.033 27.1428C53.6227 28.7642 52.1048 35.1304 52.1048 36.343C52.1048 37.7911 52.9828 38.7764 54.4432 38.7764C59.823 38.7764 63.2144 26.7964 63.2144 22.5712C63.2144 20.4301 62.104 17.8858 59.6452 17.8858C58.6524 17.8831 56.2538 18.4623 54.033 27.1428Z" fill="#999999"/>
<path d="M78.5932 27.9521C76.5474 26.3903 76.7197 24.8258 76.7197 23.8433C76.7197 20.2541 80.1111 16.2617 86.0762 16.2617C88.6498 16.2617 92.9164 17.3607 92.9164 20.6602C92.9164 22.1083 91.8635 23.5564 90.2854 23.5564C88.5896 23.5564 87.4792 22.7443 87.1866 21.0662C87.1291 20.7197 87.3616 19.3284 87.4792 18.8088C87.6543 18.1131 85.6659 17.8831 85.1982 17.8831C83.8526 17.8831 81.5142 18.1727 81.5142 19.9077C81.5142 20.9471 81.9244 21.2962 82.6848 21.8186L88.5322 26.1007C90.5206 27.5488 92.0412 29.2838 92.0412 31.9472C92.0412 37.561 87.2468 40.3949 82.1596 40.3949C78.9432 40.3949 73.5635 39.296 73.5635 35.1276C73.5635 33.1598 75.024 31.7145 77.0151 31.7145C78.7108 31.7145 79.9962 33.103 79.9962 34.7812C79.9962 35.7664 79.2332 36.9222 79.2332 37.6178C79.2332 38.6572 81.5716 38.7763 82.4523 38.7763C84.2054 38.7763 87.1292 38.4271 87.1292 36.0561C87.1292 34.7839 86.2512 33.7986 85.2584 33.0462L78.5932 27.9521Z" fill="#999999"/>
<path d="M102.041 2.19764H97.8317L98.2419 0.576311H104.264C106.253 0.576311 108.241 0.229849 110.229 -0.00292969L104.732 22.0461L104.847 22.1625C107.713 18.5165 109.994 16.2591 114.964 16.2591C118.005 16.2591 120.286 17.9373 120.286 20.7171C120.286 21.41 119.936 23.0314 119.466 25.0587L116.659 36.7464C116.542 37.2688 116.952 37.7289 117.595 37.7289C119.466 37.7289 121.982 33.1004 122.625 31.5386L123.853 32.0015C123.327 33.2168 122.8 34.3753 122.039 35.4146C120.108 38.0212 118.473 39.7562 115.024 39.7562C112.097 39.7562 108.591 38.8874 109.877 33.39L112.508 22.3357C112.861 20.8903 113.153 19.4422 113.153 18.8657C113.153 18.4001 112.8 17.8832 112.278 17.8832C110.112 17.8832 107.831 20.3706 106.606 21.8756C104.617 24.3062 103.447 27.2566 102.746 30.3828L100.698 39.5262H93.1548L102.041 2.19764Z" fill="#999999"/>
</g>
<defs>
<clipPath id="clip0">
<rect width="124" height="69" fill="white"/>
</clipPath>
</defs>
</svg>
