<svg width="124" height="63" viewBox="0 0 124 63" fill="none" xmlns="http://www.w3.org/2000/svg">
<g clip-path="url(#clip0)">
<path d="M53.4026 43.0883C60.5946 42.6803 64.48 37.7023 64.48 34.6013C64.48 30.521 56.1306 29.7865 53.568 42.3539L53.4026 43.0883ZM52.6586 46.9238C51.832 50.5145 51.088 53.3707 51.088 53.8603C51.088 54.8396 51.584 55.3293 52.328 55.3293C53.4853 55.3293 55.9653 52.8811 55.9653 48.1479C55.9653 46.679 55.552 45.6997 54.8906 45.6997C54.3946 45.6997 53.4026 46.0261 52.6586 46.9238ZM51.088 43.0883C54.3946 30.0313 64.5626 29.8681 64.5626 34.6829C64.5626 37.9471 60.4293 42.7619 53.4026 43.1699L52.6586 46.8422C53.4026 46.0261 54.312 45.5365 55.3866 45.5365C57.536 45.5365 58.28 47.3318 58.28 49.2088C58.28 51.9834 56.296 55.4109 53.2373 55.4109C51.832 55.4109 49.2693 55.166 49.2693 51.9018C49.2693 50.6777 49.7653 48.7192 50.4266 45.7813L50.84 43.9044C50.9226 43.7412 51.0053 43.4147 51.088 43.0883C45.0533 42.7619 42.8213 39.4977 42.8213 36.8863C42.8213 34.6829 44.144 33.7036 45.2186 33.7036C45.88 33.7036 46.4586 34.1116 46.4586 34.8461C46.4586 35.1725 46.2106 35.907 45.9626 36.0702C46.2106 35.907 46.4586 35.3357 46.4586 34.8461C46.4586 34.1116 45.9626 33.7036 45.3013 33.7036C44.3093 33.7036 42.9866 34.6829 42.9866 36.8863C42.8213 39.416 44.9706 42.6803 51.088 43.0883Z" fill="#999999"/>
<path d="M64.4802 34.5197V34.6013C64.4802 35.7438 63.9843 37.0495 63.0749 38.3552C63.9843 37.1311 64.4802 35.8254 64.4802 34.6829C64.4802 34.6013 64.4802 34.5197 64.4802 34.5197ZM61.5869 31.9899C58.9416 31.9899 55.2216 34.6829 53.6509 42.3539L53.4856 43.0883C60.5122 42.5987 64.3976 37.7839 64.3976 34.6013C64.3976 33.0508 63.2402 31.9899 61.5869 31.9899ZM51.0882 43.0883C51.0056 43.4147 50.9229 43.7412 50.8403 43.986L50.4269 45.8629C50.2616 46.4342 50.1789 46.9238 50.0962 47.4134C49.6002 49.4536 49.2696 50.9225 49.2696 51.9018C49.2696 53.7787 50.0962 54.8396 51.7496 55.2476C51.2536 55.0844 51.0056 54.5132 51.0056 53.8603C51.0056 53.5339 51.2536 52.3098 51.7496 50.4329C51.9976 49.372 52.2456 48.2295 52.5762 46.9238L53.4856 42.3539C55.0562 34.6829 58.7763 31.9083 61.5042 31.9083C61.7522 31.9083 61.9176 31.9083 62.1656 31.9899C61.9176 31.8267 61.5869 31.8267 61.1736 31.8267C59.3549 31.8267 57.3709 32.7243 55.7176 34.4381C53.6509 36.3966 51.9976 39.416 51.0882 43.0883ZM52.6589 46.9238C52.3282 48.2295 52.0803 49.372 51.8323 50.4329C51.4189 52.2282 51.0882 53.5339 51.0882 53.8603C51.0882 54.758 51.5016 55.2476 52.2456 55.2476C53.4856 55.2476 55.8829 52.7178 55.8829 48.0663C55.8829 46.5974 55.4696 45.6181 54.8083 45.6181C54.3949 45.6997 53.4029 46.0261 52.6589 46.9238ZM52.4109 55.3292C52.6589 55.3292 52.9896 55.4108 53.2376 55.4108C54.6429 55.4108 55.8829 54.6764 56.8749 53.3707C57.7016 52.2282 58.2802 50.6777 58.2802 49.2088C58.2802 45.7813 56.1309 45.5365 55.4696 45.5365C55.3042 45.5365 55.0563 45.5365 54.8909 45.5365C55.5523 45.5365 56.0483 46.5974 56.0483 48.0663C56.0483 52.7178 53.6509 55.2476 52.4109 55.3292ZM53.2376 55.4925C50.5096 55.4925 49.1869 54.35 49.1869 51.9834C49.1869 51.0041 49.5176 49.5352 50.0136 47.495C50.0963 47.0054 50.2616 46.5158 50.3443 45.9445L50.7576 44.0676C50.8403 43.8228 50.8402 43.4963 50.9229 43.2515C48.1949 43.0883 45.9629 42.2723 44.5576 40.9666C43.3176 39.9057 42.6562 38.4368 42.6562 36.9678C42.6562 34.6013 44.0616 33.7036 45.0536 33.7036C45.7149 33.7036 46.2936 34.1116 46.2936 34.9277C46.2936 35.2541 46.0456 35.9886 45.7149 36.2334L45.6323 36.1518C45.8803 35.9886 46.1283 35.4173 46.1283 34.9277C46.1283 34.2748 45.7149 33.8668 45.0536 33.8668C44.1443 33.8668 42.8216 34.6829 42.8216 37.0495C42.8216 38.4368 43.4829 39.8241 44.6403 40.8849C46.0456 42.1906 48.2776 42.9251 50.9229 43.1699C51.8322 39.4976 53.4856 36.4782 55.5522 34.4381C57.2882 32.8059 59.2722 31.8267 61.0909 31.8267C63.1576 31.8267 64.4802 32.9691 64.4802 34.7645C64.4802 36.4782 63.3229 38.5184 61.5042 40.0689C59.3549 41.9458 56.4616 43.0883 53.3202 43.2515L52.6589 46.7606C53.4029 45.9445 54.3122 45.5365 55.3869 45.5365C57.2056 45.5365 58.2802 46.9238 58.2802 49.2904C58.2802 50.6777 57.7843 52.3098 56.8749 53.4523C55.9656 54.758 54.6429 55.4925 53.2376 55.4925Z" fill="#999999"/>
<path d="M62.2485 55.4107C60.7605 55.8187 58.7765 56.8796 58.7765 58.3485C58.7765 59.2462 59.6031 60.0622 60.6778 60.0622C62.0005 60.0622 63.9845 58.5117 64.9765 54.105C64.3151 54.8394 63.3231 55.1659 62.2485 55.4107ZM66.8778 45.9444C67.2911 46.1076 67.5391 46.2708 67.9525 46.2708C68.2831 46.2708 68.6138 46.1892 69.1925 45.9444L69.3578 45.2915L67.2085 55.0026C66.0511 60.0622 64.0671 61.776 61.5871 61.776C59.8511 61.776 58.4458 60.5519 58.4458 59.083C58.4458 58.0221 59.1898 56.2267 62.0831 55.4107C60.5951 55.4107 59.7685 54.8394 59.7685 53.6153C59.7685 52.3912 61.4218 47.6581 61.4218 46.5156C61.4218 45.8627 61.1738 45.7811 60.8431 45.7811C60.3471 45.7811 59.1898 46.5156 59.1071 48.3925C59.2725 46.434 60.5125 45.5363 61.6698 45.5363C62.6618 45.5363 63.5711 46.026 63.5711 47.3317C63.5711 48.719 62.3311 52.1464 62.3311 53.8602C62.3311 54.6762 62.7445 55.0026 63.2405 55.0026C63.7365 55.0026 64.4805 54.6762 65.1418 54.105L66.8778 45.9444Z" fill="#999999"/>
<path d="M60.8428 45.7813C61.2561 45.7813 61.5041 45.9445 61.5041 46.5973C61.5041 47.1686 61.0908 48.5559 60.7601 49.9432C60.3468 51.4121 59.9335 53.0442 59.9335 53.6155C59.9335 54.7579 60.6775 55.3292 62.1655 55.3292H62.3308C62.8268 55.2476 63.2401 55.0844 63.6535 54.9212C63.4881 55.0028 63.3228 55.0028 63.2401 55.0028C62.9095 55.0028 62.3308 54.8396 62.3308 53.7787C62.3308 52.881 62.6615 51.4937 62.9921 50.188C63.3228 49.0455 63.5708 47.903 63.5708 47.3318C63.5708 46.0261 62.5788 45.6181 61.7521 45.6181C61.3388 45.6181 61.0908 45.6997 60.8428 45.7813C60.7601 45.7813 60.8428 45.7813 60.8428 45.7813ZM64.9761 54.2683C64.3148 54.8396 63.4055 55.2476 62.3308 55.4924C60.9255 55.8188 58.9415 56.9613 58.9415 58.4302C58.9415 59.4911 59.9335 60.144 60.7601 60.144C61.1735 60.144 63.6535 59.8175 64.9761 54.2683ZM58.9415 57.6142C58.6108 58.1038 58.4455 58.675 58.4455 59.1647C58.4455 60.552 59.8508 61.7761 61.5868 61.7761C64.3148 61.7761 66.1335 59.6543 67.1255 55.0028L69.1095 45.9445C68.5308 46.1893 68.2001 46.2709 67.8695 46.2709C67.4561 46.2709 67.2081 46.1893 66.7948 45.9445L64.9761 54.0235V54.1867C63.6535 59.8991 61.0908 60.2256 60.5948 60.2256C59.5201 60.2256 58.6935 59.4095 58.6935 58.4302C58.7761 58.1038 58.8588 57.859 58.9415 57.6142ZM61.5868 61.8577C59.8508 61.8577 58.3628 60.6336 58.3628 59.1647C58.3628 57.9406 59.2721 56.3085 61.8348 55.4924C60.4295 55.4108 59.7681 54.8396 59.7681 53.6971C59.7681 53.0442 60.1815 51.4937 60.5948 49.9432C61.0081 48.4743 61.3388 47.087 61.3388 46.5973C61.3388 45.9445 61.0908 45.8629 60.7601 45.8629C60.3468 45.8629 59.1895 46.5973 59.0241 48.4743H58.9415V48.3927C59.1068 46.3525 60.3468 45.4548 61.5868 45.4548C62.4961 45.4548 63.5708 45.9445 63.5708 47.2502C63.5708 47.903 63.3228 48.9639 62.9921 50.188C62.6615 51.4937 62.3308 52.881 62.3308 53.7787C62.3308 54.5131 62.5788 54.9212 63.1575 54.9212C63.6535 54.9212 64.3975 54.5947 64.9761 54.0235L66.7948 45.7813H66.8775C67.2908 45.9445 67.5388 46.1077 67.9521 46.1077C68.2828 46.1077 68.6135 46.0261 69.1921 45.7813L69.3575 45.1284H69.4401V45.21L67.2908 54.9212C66.2161 59.6543 64.3975 61.8577 61.5868 61.8577Z" fill="#999999"/>
<path d="M82.2533 47.4948C82.2533 51.7383 78.864 55.4922 76.88 55.4922C75.3093 55.4922 74.2346 55.0026 74.2346 53.5337C74.2346 51.8199 75.9706 48.3925 75.9706 46.6787C75.9706 46.1891 75.8053 45.9443 75.392 45.9443C74.8133 45.9443 73.9866 46.4339 73.8213 46.8419C74.2346 46.1891 75.3093 45.7811 76.384 45.7811C77.376 45.7811 78.2853 46.2707 78.2853 47.5764C78.2853 49.1269 76.5493 52.8808 76.5493 54.3497C76.5493 55.0026 76.7146 55.329 77.2106 55.329C79.1946 55.329 82.088 51.1671 82.088 48.4741C82.088 48.3108 81.9226 48.1476 81.84 48.1476C81.592 48.1476 81.2613 48.7189 80.6 48.7189C79.9386 48.7189 79.36 48.2292 79.36 47.4132C79.36 46.5971 79.856 45.7811 80.7653 45.7811C81.592 45.6994 82.2533 46.5971 82.2533 47.4948Z" fill="#999999"/>
<path d="M81.7573 48.0664C81.9226 48.0664 82.0052 48.2296 82.0052 48.3928C82.0052 48.4744 82.0052 48.6376 82.0052 48.7192C82.0879 48.3112 82.0879 47.8215 82.0879 47.4135C82.0879 46.5974 81.5093 45.6998 80.5999 45.6998C79.9386 45.6998 79.1946 46.3526 79.1946 47.3319C79.1946 48.0664 79.6906 48.556 80.4346 48.556C80.8479 48.556 81.0959 48.3928 81.2613 48.2296C81.5093 48.148 81.6746 48.0664 81.7573 48.0664ZM75.3919 45.863C75.8053 45.863 75.9706 46.1078 75.9706 46.5974C75.9706 47.4951 75.5573 48.8008 75.0613 50.0249C74.648 51.249 74.1519 52.5547 74.1519 53.4524C74.1519 54.7581 75.0613 55.4109 76.7146 55.4109C76.9626 55.4109 77.2106 55.3293 77.5413 55.2477C77.3759 55.3293 77.2106 55.3293 77.0453 55.3293C76.4666 55.3293 76.3839 54.9213 76.3839 54.2684C76.3839 53.534 76.7973 52.3099 77.2106 51.0042C77.6239 49.6985 78.1199 48.3112 78.1199 47.4951C78.1199 45.9446 76.7973 45.6998 76.2186 45.6998C75.9706 45.7814 75.6399 45.7814 75.3919 45.863ZM76.8799 55.4925C75.1439 55.4925 74.2346 54.8397 74.2346 53.4524C74.2346 52.5547 74.648 51.249 75.1439 50.0249C75.5573 48.8008 76.0533 47.4951 76.0533 46.5974C76.0533 46.1078 75.8879 45.9446 75.5573 45.9446C74.9786 45.9446 74.152 46.4342 73.9866 46.8423H73.8213L73.904 46.7606C74.3173 46.1078 75.4746 45.6182 76.4666 45.6182C77.0453 45.6182 78.4506 45.7814 78.4506 47.4951C78.4506 48.3112 77.9546 49.6985 77.5413 51.0042C77.1279 52.3099 76.7146 53.534 76.7146 54.2684C76.7146 55.0029 76.8799 55.2477 77.2933 55.2477C79.1946 55.2477 82.1706 51.0858 82.1706 48.4744C82.1706 48.3112 82.0879 48.2296 82.0052 48.2296C81.9226 48.2296 81.8399 48.3112 81.6746 48.3928C81.4266 48.556 81.1786 48.8008 80.7653 48.8008C80.0213 48.8008 79.4426 48.2296 79.4426 47.4951C79.4426 46.679 80.0213 45.7814 80.9306 45.7814C81.9226 45.7814 82.5013 46.679 82.5013 47.5767C82.5013 49.4537 81.7573 51.4938 80.5173 53.2075C79.1946 54.5132 77.8719 55.4925 76.8799 55.4925Z" fill="#999999"/>
<path d="M88.2883 42.7616C88.2883 43.5777 87.7096 44.3938 86.883 44.3938C86.2216 44.3938 85.643 43.9041 85.643 43.0881C85.643 42.272 86.139 41.4559 87.131 41.4559C87.7923 41.3743 88.2883 42.1088 88.2883 42.7616ZM85.5603 54.2681C85.5603 54.921 85.8083 55.2474 86.139 55.2474C86.8003 55.2474 87.875 54.0233 87.875 52.636C87.7096 54.5945 86.4696 55.4922 85.3123 55.4922C84.3203 55.4922 83.411 54.7578 83.411 53.5337C83.411 51.8199 84.8163 48.1477 84.8163 46.4339C84.8163 45.9443 84.651 45.6995 84.2377 45.6995C83.659 45.6995 82.8323 46.1891 82.667 46.5971C83.0803 45.9443 84.155 45.5363 85.2297 45.5363C86.2216 45.5363 87.131 46.0259 87.131 47.3316C87.131 48.8821 85.5603 52.7992 85.5603 54.2681Z" fill="#999999"/>
<path d="M87.0481 41.4561C86.1388 41.4561 85.5601 42.2722 85.5601 43.0882C85.5601 43.8227 86.0561 44.3123 86.8001 44.3123C87.6268 44.3123 88.2055 43.4963 88.2055 42.7618C88.2055 42.109 87.7921 41.4561 87.0481 41.4561ZM86.8001 44.3939C86.0561 44.3939 85.4775 43.8227 85.4775 43.0882C85.4775 42.2722 86.0561 41.3745 87.0481 41.3745C87.7921 41.3745 88.2881 42.109 88.2881 42.7618C88.2881 43.5779 87.7095 44.3939 86.8001 44.3939ZM84.3201 45.618C84.7335 45.618 84.8988 45.8629 84.8988 46.3525C84.8988 47.2502 84.5681 48.5559 84.2375 49.9432C83.9068 51.2489 83.5761 52.6362 83.5761 53.4522C83.5761 54.4315 84.2375 55.4108 85.3948 55.4108C85.6428 55.4108 85.9735 55.3292 86.2215 55.2476H86.1388C85.8908 55.2476 85.5601 55.0844 85.5601 54.2683C85.5601 53.5338 85.8908 52.2281 86.3041 50.9224C86.7175 49.5351 87.1308 48.0662 87.1308 47.3318C87.1308 45.7812 85.8081 45.5364 85.2295 45.5364C84.8988 45.5364 84.5681 45.5364 84.3201 45.618C84.2375 45.618 84.3201 45.618 84.3201 45.618ZM85.3948 55.4924C84.4028 55.4924 83.4108 54.8395 83.4108 53.4522C83.4108 52.5546 83.7415 51.2489 84.0721 49.8616C84.4028 48.5559 84.7335 47.1686 84.7335 46.3525C84.7335 45.8629 84.5681 45.6996 84.2375 45.6996C83.6588 45.6996 82.8321 46.1893 82.6668 46.5973H82.5015L82.6668 46.5157C83.0801 45.8629 84.2375 45.3732 85.2295 45.3732C85.8081 45.3732 87.2135 45.5364 87.2135 47.2502C87.2135 48.0662 86.8001 49.5351 86.3868 50.9224C85.9735 52.3097 85.6428 53.5338 85.6428 54.2683C85.6428 54.8395 85.8081 55.166 86.1388 55.166C86.8001 55.166 87.7921 54.0235 87.8748 52.5546L88.0401 52.473V52.5546C87.7921 54.5947 86.5521 55.4924 85.3948 55.4924Z" fill="#999999"/>
<path d="M95.5627 46.2711C95.2321 45.9447 94.6534 45.6182 93.9094 45.6182C92.0081 45.6182 90.6854 48.7193 90.6854 51.3307C90.6854 53.2076 91.1814 54.7581 92.7521 54.7581C93.8267 54.7581 94.6534 54.1053 95.3974 52.8812V52.9628C94.5707 54.3501 93.0827 55.4926 91.5121 55.4926C89.0321 55.4926 88.2881 53.8605 88.2881 51.9019C88.2881 49.0457 90.2721 45.5366 93.5787 45.5366C95.5627 45.5366 96.3067 46.8423 96.3067 47.5768C96.3067 48.3928 95.7281 49.2089 94.9014 49.2089C94.2401 49.2089 93.6614 48.7193 93.6614 47.9032C93.6614 47.0871 94.1574 46.2711 95.1494 46.2711C95.2321 46.1895 95.3974 46.1895 95.5627 46.2711Z" fill="#999999"/>
<path d="M95.6456 46.2707L95.8109 46.4339C95.7282 46.3523 95.7282 46.3523 95.6456 46.2707ZM95.1496 46.189C94.2402 46.189 93.6616 47.0051 93.6616 47.8212C93.6616 48.5556 94.1576 49.0453 94.9016 49.0453C95.7282 49.0453 96.3069 48.2292 96.3069 47.4947C96.3069 47.2499 96.2242 46.8419 95.8936 46.5155L95.6456 46.3523C95.3976 46.2706 95.2322 46.189 95.1496 46.189ZM93.5789 45.5362C92.0909 45.5362 90.6856 46.2707 89.6936 47.658C88.7842 48.8004 88.2882 50.4326 88.2882 51.9015C88.2882 53.5336 88.8669 55.4105 91.5122 55.4105C92.5042 55.4105 93.5789 54.9209 94.4056 54.1048C93.9096 54.5945 93.3309 54.7577 92.7522 54.7577C91.3469 54.7577 90.6029 53.5336 90.6029 51.3302C90.6029 50.0245 90.9336 48.5556 91.5122 47.4947C92.0909 46.3523 92.9176 45.6178 93.7442 45.6178C93.7442 45.5362 93.6616 45.5362 93.5789 45.5362ZM91.5122 55.4921C88.7842 55.4921 88.2056 53.5336 88.2056 51.8199C88.2056 49.1269 90.0242 45.4546 93.5789 45.4546C94.7362 45.4546 95.3976 45.8626 95.7282 46.189C96.2242 46.5971 96.3896 47.1683 96.3896 47.4947C96.3896 48.3108 95.8109 49.1269 94.9016 49.1269C94.1576 49.1269 93.5789 48.5556 93.5789 47.8212C93.5789 47.0051 94.1576 46.1074 95.1496 46.1074C95.2322 46.1074 95.3149 46.1074 95.3976 46.1074C95.0669 45.8626 94.4882 45.6178 93.9922 45.6178C92.1736 45.6178 90.7682 48.6372 90.7682 51.2486C90.7682 52.7991 91.0989 54.5945 92.7522 54.5945C93.7442 54.5945 94.4882 54.0232 95.3149 52.7175L95.4802 52.5543L95.3976 52.8807C94.5709 54.5129 93.0002 55.4921 91.5122 55.4921Z" fill="#999999"/>
<path d="M58.1978 27.9096C58.1978 32.4796 54.8085 38.3552 50.1792 38.3552C46.5418 38.3552 44.7231 35.6622 44.7231 32.5612C44.7231 27.0936 48.2778 22.2788 53.3205 22.2788C54.0645 22.2788 55.6352 22.442 56.5445 23.5845V23.6661C55.6352 22.6052 54.2298 22.3604 53.7338 22.3604C50.5925 22.3604 48.4431 27.5016 48.4431 31.6635C48.4431 34.683 49.5178 37.2127 52.0805 37.2127C55.1392 37.2127 57.9498 31.9899 57.9498 27.828V27.5016C57.7845 28.6441 56.8752 29.705 55.6352 29.705C54.5605 29.705 53.6512 28.8889 53.6512 27.5832C53.6512 26.2775 54.4778 24.8902 56.0485 24.8902C56.7925 24.8902 57.4538 25.3798 57.7018 26.1143C58.1152 26.4407 58.1978 27.2568 58.1978 27.9096Z" fill="#999999"/>
<path d="M56.2965 24.8902C54.7258 24.8902 53.8991 26.2775 53.8991 27.5016C53.8991 28.7257 54.7258 29.5418 55.8831 29.5418C57.2058 29.5418 57.9498 28.3993 58.1151 27.42H58.1978C58.1978 26.8488 58.1151 26.2775 57.9498 26.0327C57.6191 25.2982 56.9578 24.8902 56.2965 24.8902ZM53.4031 22.2788C51.0058 22.2788 48.7738 23.3397 47.2031 25.3798C45.6325 27.2568 44.8058 29.8682 44.8058 32.5612C44.8058 34.1933 45.3018 35.5806 46.1285 36.6415C47.0378 37.784 48.4431 38.3552 50.1791 38.3552C52.3285 38.3552 54.3125 37.1311 55.8831 34.8462C57.2885 32.806 58.1151 30.2762 58.1151 27.9912C58.1151 27.9912 58.1151 27.9096 58.1151 27.828C58.1151 29.8682 57.4538 32.1532 56.2965 34.1117C55.0565 36.0703 53.5685 37.2944 52.1631 37.2944C50.9231 37.2944 50.0138 36.7231 49.3525 35.6622C48.7738 34.683 48.4431 33.3773 48.4431 31.7451C48.4431 29.6234 49.0218 27.2568 49.9311 25.5431C50.9231 23.6661 52.2458 22.5236 53.5685 22.442C53.5685 22.2788 53.4858 22.2788 53.4031 22.2788ZM50.1791 38.3552C48.4431 38.3552 47.0378 37.784 46.0458 36.6415C45.1365 35.5806 44.7231 34.1933 44.7231 32.5612C44.7231 29.8682 45.5498 27.2568 47.1205 25.3798C48.6911 23.4213 50.9231 22.2788 53.4031 22.2788C54.2298 22.2788 55.7178 22.442 56.7098 23.5845L56.8751 23.9925L56.6271 23.6661C55.5525 22.442 53.9818 22.3604 53.8165 22.3604C50.8405 22.3604 48.6085 27.2568 48.6085 31.5819C48.6085 35.0094 49.9311 37.0495 52.2458 37.0495C55.2218 37.0495 58.1151 31.8267 58.1151 27.7464C57.8671 28.6441 57.0405 29.5418 55.8831 29.5418C54.7258 29.5418 53.8165 28.6441 53.8165 27.42C53.8165 26.1143 54.6431 24.727 56.2965 24.727C57.0405 24.727 57.7018 25.2166 58.0325 25.9511C58.1978 26.3591 58.2805 27.1752 58.2805 27.828C58.2805 30.113 57.4538 32.7244 55.9658 34.7646C54.3951 37.1311 52.3285 38.3552 50.1791 38.3552Z" fill="#999999"/>
<path d="M72.3336 27.9096C72.3336 32.4796 68.9442 38.3552 64.3149 38.3552C60.6776 38.3552 58.8589 35.6622 58.8589 32.5612C58.8589 27.0936 62.4136 22.2788 67.4562 22.2788C68.2002 22.2788 69.7709 22.442 70.6802 23.5845V23.6661C69.7709 22.6052 68.3656 22.3604 67.8696 22.3604C64.7282 22.3604 62.5789 27.5016 62.5789 31.6635C62.5789 34.683 63.6536 37.2127 66.2162 37.2127C69.2749 37.2127 72.0856 31.9899 72.0856 27.828V27.5016C71.9202 28.6441 71.0109 29.705 69.7709 29.705C68.6962 29.705 67.7869 28.8889 67.7869 27.5832C67.7869 26.2775 68.6136 24.8902 70.1842 24.8902C70.9282 24.8902 71.5896 25.3798 71.8376 26.1143C72.2509 26.4407 72.3336 27.2568 72.3336 27.9096Z" fill="#999999"/>
<path d="M70.3496 24.8902C68.7789 24.8902 67.9522 26.2775 67.9522 27.5016C67.9522 28.7257 68.7789 29.5418 69.9362 29.5418C71.2589 29.5418 72.0029 28.3993 72.1682 27.42H72.2509C72.2509 26.8488 72.1682 26.2775 72.0029 26.0327C71.6722 25.2982 71.0936 24.8902 70.3496 24.8902ZM67.4562 22.2788C65.0589 22.2788 62.8269 23.3397 61.2562 25.3798C59.6856 27.2568 58.8589 29.8682 58.8589 32.5612C58.8589 34.1933 59.3549 35.5806 60.1816 36.6415C61.0909 37.784 62.4962 38.3552 64.2322 38.3552C66.3816 38.3552 68.3656 37.1311 69.9362 34.8462C71.3416 32.806 72.1682 30.2762 72.1682 27.9912V27.9096C72.1682 29.9498 71.5069 32.2348 70.3496 34.1933C69.1096 36.1519 67.6216 37.376 66.2162 37.376C64.9762 37.376 64.0669 36.8047 63.4056 35.7438C62.8269 34.7646 62.4962 33.4589 62.4962 31.8267C62.4962 29.705 63.0749 27.3384 63.9842 25.6247C64.9762 23.7477 66.2989 22.6052 67.6216 22.5236C67.7042 22.2788 67.6216 22.2788 67.4562 22.2788ZM64.3149 38.3552C62.5789 38.3552 61.1736 37.784 60.1816 36.6415C59.2722 35.5806 58.8589 34.1933 58.8589 32.5612C58.8589 29.8682 59.6856 27.2568 61.2562 25.3798C62.8269 23.4213 65.0589 22.2788 67.5389 22.2788C68.3656 22.2788 69.8536 22.442 70.8456 23.5845L71.0109 23.9925L70.7629 23.6661C69.6882 22.442 68.1176 22.3604 67.9522 22.3604C64.9762 22.3604 62.7442 27.2568 62.7442 31.5819C62.7442 35.0094 64.0669 37.0495 66.3816 37.0495C69.3576 37.0495 72.2509 31.8267 72.2509 27.7464C72.0029 28.6441 71.1762 29.5418 70.0189 29.5418C68.8616 29.5418 67.9522 28.6441 67.9522 27.42C67.9522 26.1143 68.7789 24.727 70.4322 24.727C71.1762 24.727 71.8376 25.2166 72.1682 25.9511C72.3336 26.3591 72.4162 27.1752 72.4162 27.828C72.4162 30.113 71.5896 32.7244 70.1016 34.7646C68.5309 37.1311 66.4642 38.3552 64.3149 38.3552Z" fill="#999999"/>
<path d="M89.6936 20.8911C90.1069 20.8911 90.6029 20.8911 91.0163 20.8911C96.4723 20.8911 105.235 16.4844 105.235 8.48698C105.235 5.14113 103.251 3.4274 100.688 3.4274C96.6376 3.4274 91.0989 7.83413 90.2723 17.3005V17.3821C90.2723 18.0349 90.0243 19.259 89.6936 20.8911ZM76.9629 32.4792C76.9629 35.2538 77.7896 37.5388 79.9389 37.5388C80.7656 37.5388 81.5923 37.0492 82.3363 36.1515V35.9067C82.3363 34.7642 83.4936 30.1126 84.5683 25.5427C84.0723 23.5841 82.9976 22.5233 81.5923 22.5233C79.1949 22.4416 76.9629 28.0725 76.9629 32.4792ZM81.4269 7.99735C81.4269 9.30305 80.5176 10.6087 79.1123 10.6087C78.0376 10.6087 77.1283 9.79268 77.1283 8.48698C77.1283 7.26289 77.8723 5.87559 79.4429 5.79398H79.3603C77.7069 5.79398 75.6403 7.4261 75.6403 10.9352C75.6403 14.5258 78.3683 19.0958 85.8909 20.4831C86.3869 18.4429 86.6349 16.8108 86.6349 15.9948C86.6349 15.1787 86.3043 14.8523 85.7256 14.8523C84.8163 14.8523 83.4109 15.6683 83.0803 16.3212H82.9976C83.6589 15.3419 85.4776 14.5258 87.1309 14.5258C88.6189 14.5258 90.0243 15.1787 90.2723 16.974C91.8429 3.59061 101.019 0.081543 104.987 0.081543C109.699 0.081543 111.766 2.20331 111.766 5.14113C111.766 11.3432 102.59 21.0543 91.0989 21.0543C90.6029 21.0543 90.1896 21.0543 89.6936 21.0543C88.5363 26.522 85.9736 35.8251 85.9736 36.9676C85.9736 38.0284 86.3869 38.11 86.8829 38.11C87.9576 38.11 89.6109 36.2331 89.7763 33.8665H89.8589C89.5283 37.0492 87.5443 38.5181 85.7256 38.5181C84.2376 38.5181 82.7496 38.0284 82.5843 36.2331C81.2616 37.5388 79.7736 38.3549 77.9549 38.3549C74.3176 38.3549 72.8296 35.8251 72.8296 32.724C72.8296 28.0725 76.1363 22.2784 81.1789 22.2784C82.9976 22.2784 84.1549 23.2577 84.6509 25.2979L85.8083 20.5647C78.2856 19.0958 75.4749 14.6075 75.4749 10.8536C75.4749 7.26289 77.6243 5.71237 79.2776 5.71237C80.5176 5.71237 81.4269 6.77325 81.4269 7.99735Z" fill="#999999"/>
<path d="M79.4429 5.79417C77.9549 5.95738 77.2109 7.26308 77.2109 8.48717C77.2109 9.71126 78.0376 10.5273 79.1949 10.5273C80.6003 10.5273 81.4269 9.22163 81.4269 7.99753C81.4269 6.77344 80.5176 5.87577 79.4429 5.79417ZM78.2029 5.95738C76.8803 6.44702 75.4749 7.91593 75.4749 10.8538C75.4749 12.8939 76.3016 14.9341 77.7896 16.5662C77.8723 16.6478 78.0376 16.811 78.1203 16.8926C78.0376 16.811 77.9549 16.6478 77.7896 16.5662C76.3016 14.9341 75.4749 12.9755 75.4749 10.9354C75.5576 7.99753 76.8803 6.52862 78.2029 5.95738ZM89.6936 20.8913C90.1069 20.8913 90.5203 20.8913 91.0163 20.8913C93.9923 20.8913 97.4643 19.6672 100.192 17.7087C102.507 15.9949 105.235 13.0571 105.235 8.56878C105.235 5.46774 103.499 3.50919 100.688 3.50919C98.5389 3.50919 96.1416 4.73329 94.3229 6.85505C92.7523 8.65038 90.8509 11.9146 90.2723 17.3006V17.3822C90.2723 17.9535 90.1069 19.0144 89.6936 20.8913ZM100.688 3.42759C103.499 3.42759 105.318 5.46774 105.318 8.56878C105.318 13.1387 102.59 16.0765 100.275 17.7903C97.9603 19.504 94.9843 20.6465 92.2563 20.9729C103.086 20.3201 111.6 11.1802 111.6 5.14132C111.6 3.26437 110.691 0.163339 104.904 0.163339C102.838 0.163339 99.6136 1.06101 96.7203 3.5908C93.9923 5.95738 92.0083 9.22163 90.9336 13.3019C91.7603 10.2825 93.0829 8.24235 94.2403 6.93665C96.1416 4.65168 98.5389 3.42759 100.688 3.42759ZM83.5763 23.3395C83.9069 23.7475 84.2376 24.3188 84.4856 24.9716C84.3203 24.2372 83.9896 23.7475 83.5763 23.3395ZM81.6749 22.5234C80.6003 22.5234 79.3603 23.7475 78.4509 25.8693C77.5416 27.9095 77.0456 30.3576 77.0456 32.4794C77.0456 35.662 78.1203 37.4574 79.9389 37.4574C80.7656 37.4574 81.5923 36.9677 82.3363 36.0701V35.8253C82.3363 34.846 83.2456 31.0105 84.2376 27.0118C84.3203 26.5221 84.4856 26.0325 84.5683 25.5429C84.0723 23.5027 83.0803 22.5234 81.6749 22.5234ZM82.4189 36.1517V36.2333C82.5016 37.2126 83.1629 38.4366 85.4776 38.4366C86.0563 38.4366 86.5523 38.2734 87.1309 38.0286C86.9656 38.1102 86.8829 38.1102 86.8003 38.1102C86.2216 38.1102 85.8083 38.0286 85.8083 36.8861C85.8083 36.2333 86.5523 33.1322 87.4616 29.5416C88.2056 26.6854 89.0323 23.4211 89.5283 20.9729C89.9416 19.096 90.1069 18.0351 90.1069 17.4639V17.3822V17.3006V16.9742C89.9416 15.4237 88.7843 14.6076 87.0483 14.6076C86.3869 14.6076 85.7256 14.6892 85.1469 14.9341C85.3123 14.9341 85.4776 14.8525 85.5603 14.8525C85.9736 14.8525 86.4696 15.0973 86.4696 16.0766C86.4696 16.811 86.2216 18.3615 85.7256 20.5649V20.6465L84.5683 25.5429C84.4856 26.0325 84.3203 26.5221 84.2376 27.0934C83.2456 31.0921 82.3363 34.9276 82.3363 35.9069L82.4189 36.1517C81.6749 37.0493 80.7656 37.6206 79.9389 37.6206C78.0376 37.6206 76.9629 35.7436 76.9629 32.561C76.9629 28.1543 79.1949 22.5234 81.6749 22.5234C82.0056 22.5234 82.3363 22.605 82.5843 22.6867C82.1709 22.5234 81.7576 22.4418 81.1789 22.4418C78.8643 22.4418 76.7976 23.6659 75.1443 25.9509C73.7389 27.9095 72.9123 30.5208 72.9123 32.8874C72.9123 36.3965 74.7309 38.4366 77.9549 38.4366C79.6909 38.355 81.1789 37.6206 82.4189 36.1517ZM85.5603 38.5183C84.4856 38.5183 82.6669 38.1918 82.4189 36.3149C81.1789 37.7022 79.6909 38.355 78.0376 38.355C74.7309 38.355 72.8296 36.3149 72.8296 32.7242C72.8296 30.3576 73.6563 27.7462 75.1443 25.7061C76.7976 23.4211 78.9469 22.197 81.2616 22.197C83.0803 22.197 84.1549 23.1763 84.7336 25.0532L85.8083 20.5649C82.4189 19.912 79.6083 18.5247 77.8723 16.5662C76.3843 14.9341 75.4749 12.8939 75.4749 10.8538C75.4749 7.01826 77.7896 5.63095 79.3603 5.63095C80.6003 5.63095 81.5923 6.69184 81.5923 7.91593C81.5923 9.22163 80.6829 10.5273 79.2776 10.5273C78.1203 10.5273 77.2109 9.62966 77.2109 8.40557C77.2109 7.34469 77.7069 6.2838 78.6989 5.87577C77.3763 6.2838 75.7229 7.75272 75.7229 10.9354C75.7229 12.8939 76.5496 14.9341 78.0376 16.4846C79.7736 18.4431 82.5016 19.7488 85.8909 20.4017C86.3869 18.1983 86.6349 16.6478 86.6349 15.9133C86.6349 15.1789 86.3043 14.7709 85.8083 14.7709C84.8989 14.7709 83.5763 15.5869 83.2456 16.1582H83.0803L83.1629 16.0766C83.8243 15.0973 85.6429 14.2812 87.2963 14.2812C88.9496 14.2812 90.1069 15.0973 90.4376 16.4846C91.1816 10.8538 93.4136 6.2838 96.8856 3.26437C99.8616 0.734582 103.086 -0.163086 105.152 -0.163086C107.384 -0.163086 109.203 0.326551 110.36 1.30583C111.435 2.20349 112.014 3.42759 112.014 4.97811C112.014 11.2618 102.755 20.8913 91.3469 20.8913C90.9336 20.8913 90.4376 20.8913 90.0243 20.8913C89.5283 23.3395 88.7016 26.6038 87.9576 29.46C87.0483 33.0506 86.3043 36.1517 86.3043 36.8045C86.3043 37.8654 86.6349 37.947 87.2136 37.947C87.7096 37.947 88.4536 37.4574 88.9496 36.7229C89.6109 35.9069 89.9416 34.846 90.0243 33.7035L90.1896 33.6219V33.7035C89.4456 37.0493 87.3789 38.5183 85.5603 38.5183Z" fill="#999999"/>
<path d="M98.6215 17.7903C98.6215 19.096 97.7122 20.4017 96.3068 20.4017C95.2322 20.4017 94.3228 19.5856 94.3228 18.2799C94.3228 16.9742 95.1495 15.5869 96.7202 15.5869C97.8775 15.5869 98.6215 16.6478 98.6215 17.7903ZM94.3228 36.3965C94.3228 37.4574 94.7362 37.947 95.2322 37.947C96.3068 37.947 98.0428 35.9885 98.1255 33.7035H98.2082C97.8775 36.8861 95.8935 38.3551 94.0748 38.3551C92.5042 38.3551 91.0162 37.2126 91.0162 35.1724C91.0162 32.3978 93.2482 26.4405 93.2482 23.6659C93.2482 22.8499 92.9175 22.5234 92.3388 22.5234C91.4295 22.5234 90.0242 23.3395 89.6935 23.9924H89.6108C90.2722 23.0131 92.0908 22.197 93.7442 22.197C95.3975 22.197 96.8855 23.0131 96.8855 25.1348C96.8855 27.6646 94.3228 34.0299 94.3228 36.3965Z" fill="#999999"/>
<path d="M96.7202 15.6685C95.1495 15.6685 94.3228 17.0558 94.3228 18.2799C94.3228 19.504 95.1495 20.3201 96.3068 20.3201C97.7122 20.3201 98.5388 19.0144 98.5388 17.7903C98.6215 16.7294 97.8775 15.6685 96.7202 15.6685ZM96.3068 20.4017C95.1495 20.4017 94.2402 19.504 94.2402 18.2799C94.2402 16.9742 95.0668 15.5869 96.7202 15.5869C97.8775 15.5869 98.6215 16.7294 98.6215 17.7903C98.7042 19.096 97.7948 20.4017 96.3068 20.4017ZM92.2562 22.4418C92.6695 22.4418 93.1655 22.6867 93.1655 23.6659C93.1655 25.0532 92.5868 27.2566 92.0082 29.46C91.4295 31.5817 90.8508 33.7851 90.8508 35.1724C90.8508 36.7229 91.9255 38.3551 93.9095 38.3551C94.4882 38.3551 94.9842 38.1918 95.4802 37.947C95.3148 37.947 95.2322 38.0286 95.1495 38.0286C94.8188 38.0286 94.1575 37.8654 94.1575 36.4781C94.1575 35.3356 94.7362 33.2139 95.3975 31.0105C96.0588 28.7255 96.7202 26.4405 96.7202 25.1348C96.7202 24.2372 96.3895 22.2786 93.6615 22.2786C93.0002 22.2786 92.3388 22.3602 91.7602 22.6051C92.0082 22.4418 92.1735 22.4418 92.2562 22.4418ZM93.9922 38.3551C93.1655 38.3551 92.4215 38.0286 91.8428 37.539C91.1815 36.9677 90.8508 36.1517 90.8508 35.1724C90.8508 33.7851 91.4295 31.5817 92.0082 29.3784C92.5868 27.2566 93.1655 25.0532 93.1655 23.6659C93.1655 22.9315 92.8348 22.5234 92.3388 22.5234C91.4295 22.5234 90.1068 23.3395 89.7762 23.9107H89.6108L89.6935 23.8291C90.3548 22.8499 92.1735 22.0338 93.8268 22.0338C94.7362 22.0338 95.4802 22.2786 96.0588 22.6867C96.7202 23.1763 97.0508 23.9924 97.0508 24.9716C97.0508 26.2773 96.3895 28.6439 95.7282 30.8473C95.0668 33.0506 94.4882 35.1724 94.4882 36.3149C94.4882 37.2942 94.8188 37.7838 95.3975 37.7838C96.4722 37.7838 98.1255 35.9069 98.2082 33.6219L98.3735 33.5403V33.6219C97.8775 36.8861 95.8935 38.3551 93.9922 38.3551Z" fill="#999999"/>
<path d="M102.755 32.3164C108.624 31.6635 111.6 28.2361 111.6 25.8695C111.6 23.6661 110.029 22.3604 108.459 22.3604C104.904 22.3604 102.589 27.9912 102.755 32.3164ZM102.755 32.398C102.92 35.091 104.077 37.2127 106.475 37.2127C108.459 37.2127 109.864 36.3151 111.104 33.2956C109.616 36.9679 107.219 38.3552 103.912 38.3552C95.232 38.3552 97.5467 22.2788 107.963 22.2788C110.029 22.2788 111.683 23.5029 111.683 25.9511C111.765 28.3177 108.624 31.7451 102.755 32.398Z" fill="#999999"/>
<path d="M108.542 22.4417C107.467 22.4417 106.475 22.9313 105.648 23.829C103.912 25.6243 102.672 29.215 102.838 32.316C106.144 31.908 108.294 30.6839 109.451 29.7046C110.856 28.5621 111.683 27.0932 111.683 25.8691C111.6 24.237 110.526 22.4417 108.542 22.4417ZM108.046 22.2784C104.574 22.2784 102.342 24.0738 101.184 25.5427C99.6962 27.4196 98.7869 29.8678 98.7869 32.2344C98.7869 33.9481 99.2829 35.417 100.11 36.4779C101.019 37.6204 102.424 38.2733 104.078 38.2733C106.392 38.2733 108.211 37.5388 109.534 36.1515C108.707 36.886 107.798 37.294 106.558 37.294C104.326 37.294 102.92 35.4987 102.755 32.3976C102.59 29.215 103.747 25.7059 105.566 23.829C106.475 22.8497 107.467 22.4417 108.542 22.4417C108.707 22.4417 108.79 22.4417 108.955 22.4417C108.707 22.2784 108.376 22.2784 108.046 22.2784ZM103.995 38.3549C102.259 38.3549 100.854 37.702 99.9442 36.5595C99.1176 35.4987 98.6216 33.9481 98.6216 32.2344C98.6216 29.8678 99.5309 27.338 101.019 25.4611C102.259 23.9106 104.491 22.1152 107.963 22.1152C110.278 22.1152 111.683 23.5841 111.683 25.8691C111.683 28.4805 108.294 31.7448 102.755 32.3976C102.92 35.3354 104.326 37.1308 106.475 37.1308C108.624 37.1308 109.947 35.9883 111.104 33.2953H111.187V33.3769C109.864 36.8044 107.55 38.3549 103.995 38.3549Z" fill="#999999"/>
<path d="M115.981 31.4185C115.651 31.2553 115.32 31.1737 114.907 31.1737C113.501 31.1737 112.013 32.3977 112.013 34.1931C112.013 36.8045 114.328 38.1918 116.973 38.1918C118.875 38.1918 120.28 36.7229 120.28 34.4379C120.28 31.4185 114.659 30.6024 114.659 26.1141C114.659 23.7475 116.725 21.9521 119.949 21.9521C122.181 21.9521 124 23.013 124 24.89C124 26.2773 122.925 26.9301 122.181 26.9301C121.272 26.9301 120.445 26.1957 120.445 25.4612C120.445 25.0532 120.693 24.4003 121.189 24.3187V24.4003C120.693 24.4819 120.445 25.0532 120.445 25.4612C120.445 26.1957 121.189 26.8485 122.099 26.8485C122.843 26.8485 123.835 26.1957 123.835 24.89C123.835 23.0946 122.016 22.0338 120.115 22.0338C119.04 22.0338 117.8 22.7682 117.8 24.4003C117.8 27.1749 123.504 28.8887 123.504 32.8058C123.504 36.4781 120.363 38.355 117.139 38.355C114.328 38.355 111.848 36.9677 111.848 34.1931C111.848 32.3161 113.501 31.092 114.824 31.092C115.32 31.092 115.651 31.1737 115.899 31.3369L115.981 31.4185Z" fill="#999999"/>
<path d="M112.013 33.7851C112.013 33.9483 112.013 34.0299 112.013 34.1931C112.013 34.5196 112.013 34.7644 112.096 35.0092C112.013 34.7644 112.013 34.438 112.013 34.1931C112.013 34.0299 112.013 33.9483 112.013 33.7851ZM114.163 37.6206C115.072 38.1102 116.147 38.2735 117.221 38.2735C120.28 38.2735 123.504 36.5597 123.504 32.8058C123.504 30.6841 121.768 29.2152 120.28 27.9095C118.957 26.767 117.8 25.7061 117.8 24.4004C117.8 23.5843 118.048 22.9315 118.544 22.5235C118.957 22.197 119.536 21.9522 120.115 21.9522C120.032 21.9522 120.032 21.9522 119.949 21.9522C116.891 21.9522 114.741 23.6659 114.741 26.0325C114.741 28.4807 116.477 29.868 117.965 31.0105C119.205 31.9898 120.363 32.9691 120.363 34.3564C120.363 36.6413 118.957 38.1918 117.056 38.1918C115.981 38.1918 114.989 38.0286 114.163 37.6206ZM117.221 38.3551C114.576 38.3551 111.931 37.0494 111.931 34.1931C111.931 33.2955 112.261 32.4794 112.923 31.9082C113.501 31.3369 114.245 31.0105 114.907 31.0105C115.403 31.0105 115.733 31.0921 115.981 31.2553L116.064 31.5001L115.981 31.4185C115.733 31.2553 115.32 31.1737 114.989 31.1737C113.584 31.1737 112.096 32.3978 112.096 34.1931C112.096 36.8862 114.576 38.1102 116.973 38.1102C118.875 38.1102 120.197 36.5597 120.197 34.3564C120.197 32.9691 119.04 32.0714 117.8 31.0921C116.312 29.868 114.576 28.4807 114.576 26.0325C114.576 23.5843 116.725 21.8706 119.867 21.8706C122.264 21.8706 123.917 23.0947 123.917 24.89C123.917 26.3589 122.76 26.9302 122.099 26.9302C121.189 26.9302 120.363 26.1957 120.363 25.4613C120.363 25.0532 120.611 24.4004 121.189 24.2372H121.272V24.4004C120.776 24.482 120.611 25.0532 120.611 25.4613C120.611 26.1957 121.355 26.8486 122.264 26.8486C123.339 26.8486 123.917 25.8693 123.917 24.9716C123.917 23.1763 122.016 22.1154 120.197 22.1154C119.04 22.1154 117.883 22.8499 117.883 24.482C117.883 25.7877 119.123 26.767 120.363 27.9095C121.851 29.2152 123.587 30.6841 123.587 32.8874C123.587 34.6012 122.925 36.0701 121.603 37.0494C120.445 37.8654 118.875 38.3551 117.221 38.3551Z" fill="#999999"/>
<path d="M9.25886 62.9186C5.7042 62.837 3.05886 61.6945 1.57086 59.4095C0.413528 57.7774 0.330862 55.6556 0.330862 55.6556C0.330862 54.1867 0.826862 52.881 1.65353 51.9017C2.56286 50.8408 3.96819 50.2696 5.53886 50.2696C8.92819 50.2696 11.5735 52.6362 14.6322 55.3292C16.2855 56.7981 18.1042 58.4302 20.1709 59.7359C17.5255 61.3681 14.6322 63.0002 9.25886 62.9186ZM28.6855 52.7178C30.2562 50.4328 31.9922 48.0662 34.3069 47.4134C34.8029 47.5766 42.2429 49.6984 42.2429 52.5546C42.2429 53.289 42.0775 56.2269 39.5149 57.6958C39.5149 57.6958 39.4322 57.6958 39.4322 57.7774C39.0189 58.0222 38.6055 58.1038 38.1922 58.267C37.5309 58.4302 36.7869 58.5118 35.9602 58.5118C32.8189 58.5118 30.0909 56.7981 27.3629 54.5947C27.8589 54.0235 28.2722 53.3706 28.6855 52.7178ZM42.3255 20.5649C41.1682 20.5649 40.3415 21.7074 40.3415 22.7683C40.3415 23.2579 40.5069 23.7476 40.6722 24.074C39.7629 23.3396 38.5229 23.2579 37.8615 23.2579C35.4642 23.2579 33.2322 24.3188 31.5789 26.359C30.0082 28.3175 29.1815 30.8473 29.1815 33.5403C29.1815 34.846 29.4295 35.9069 29.9255 36.8046C29.8429 36.723 29.5949 36.723 29.3469 36.723C28.4375 36.723 27.6935 37.0494 27.1149 37.7022C26.6189 38.2735 26.3709 39.0079 26.3709 39.7424C26.3709 44.5572 30.0909 46.1893 33.8935 47.3318C31.6615 48.0662 30.0082 50.4328 28.5202 52.7178C28.1069 53.3706 27.6935 54.0235 27.1975 54.5947C26.2055 53.8603 25.2962 52.9626 24.3042 52.1466C20.3362 48.6375 16.2029 45.0468 10.9949 45.0468C6.77886 45.0468 4.2162 46.8421 2.72819 48.3111C1.07486 50.1064 0.000194915 52.6362 0.000194915 55.166C0.000194915 55.166 -0.0824718 57.5326 1.57086 59.6543C3.63753 62.3473 6.77886 63.0002 9.25886 63.0002C9.4242 63.0002 9.58953 63.0002 9.75486 63.0002C14.8802 63.0002 17.6909 61.3681 20.2535 59.7359C23.0642 61.5313 26.4535 62.837 30.8349 62.837C33.7282 62.837 36.6215 61.6945 38.9362 59.7359C41.2509 57.7774 42.5735 55.166 42.5735 52.6362C42.5735 49.4535 41.4162 47.087 38.9362 45.3732C36.7869 43.9043 34.1415 43.2515 31.8269 42.6802C29.0162 41.9458 26.7842 41.3745 26.7842 39.824C26.7842 37.8655 28.1895 36.9678 29.5122 36.9678C29.8429 36.9678 30.0909 37.0494 30.2562 37.131C30.9175 38.1919 32.2402 39.4976 34.8855 39.4976C37.0349 39.4976 39.1015 38.2735 40.6722 35.9885C42.0775 33.9484 42.9869 31.337 42.9869 29.052C42.9869 28.3991 42.9042 27.5831 42.7389 27.175C42.4082 26.4406 41.7469 25.951 41.0029 25.951C39.4322 25.951 38.5229 27.3383 38.5229 28.644C38.5229 29.868 39.3495 30.7657 40.5895 30.7657C41.7469 30.7657 42.5735 29.8681 42.8215 28.9704C42.8215 33.0507 40.0109 38.2735 36.9522 38.2735C34.7202 38.2735 33.3149 36.2333 33.3149 32.8059C33.3149 28.3991 35.5469 23.5844 38.5229 23.5844C38.6882 23.5844 40.1762 23.5844 41.2509 24.8901L41.3335 24.9717V24.8085L41.1682 24.482C40.9202 24.074 40.5069 23.5028 40.5069 22.6867C40.5069 21.5442 41.4989 20.6465 42.3255 20.6465C43.4002 20.6465 44.0615 21.4626 44.0615 22.1155C44.0615 22.6867 43.5655 23.2579 43.1522 23.2579H42.9869V23.4212H43.0695C43.8135 23.4212 44.2269 22.6867 44.2269 22.1155C44.2269 21.381 43.4829 20.5649 42.3255 20.5649Z" fill="#999999"/>
</g>
<defs>
<clipPath id="clip0">
<rect width="124" height="63" fill="white"/>
</clipPath>
</defs>
</svg>
