<svg width="124" height="68" viewBox="0 0 124 68" fill="none" xmlns="http://www.w3.org/2000/svg">
<path d="M109.414 21.3154L108.859 32.5942L120.378 21.3154H109.414ZM58.2147 63.0635C52.7653 63.0635 50.1874 60.775 50.1874 56.1C50.1874 48.9731 55.4737 45.1481 62.9137 43.8404C64.0558 43.6442 66.2095 43.1538 67.5147 43.1538C67.5147 43.4808 67.5147 54.4654 67.5147 59.7942C66.0463 60.8731 62.7179 63.0635 58.2147 63.0635ZM60.8579 20.1385C54.1358 20.1385 48.3274 23.2442 44.8032 25.7615C44.9989 26.0558 45.8147 27.5596 45.9779 27.8212C47.0547 27.3635 51.9168 24.7154 55.9632 24.7154C65.3937 24.7154 67.4821 30.3058 67.4821 37.1058V40.9308C54.2337 41.1923 41.9642 44.7558 41.9642 56.3288C41.9642 63.325 47.1526 68.0654 54.5274 68.0654C60.76 68.0654 66.0789 63.5865 67.4821 62.2462V67.2481H75.2484C75.2484 67.2481 75.2484 44.2654 75.2484 36.2885C75.3463 27.0692 71.3326 20.1385 60.8579 20.1385ZM86.2779 67.2481H93.8811V0L86.2779 3.98846V67.2481ZM104.911 38.1192L98.5474 43.5462L114.569 67.2481H124C124 67.2481 110.98 47.8615 104.911 38.1192ZM27.6063 21.3154L0 67.2481H34.9158V58.4212C34.9158 58.4212 10.8989 65.1231 10.3768 65.0904C10.6705 64.5673 36.3189 21.3154 36.3189 21.3154H27.6063ZM21.8632 21.3154H3.42632L4.30737 30.5673L21.8632 21.3154Z" fill="#999999"/>
</svg>
