<svg width="100" height="64" viewBox="0 0 100 64" fill="none" xmlns="http://www.w3.org/2000/svg">
<g clip-path="url(#clip0)">
<path d="M99.836 58.5798C98.9024 53.6206 97.2697 46.3569 94.3543 33.7859C93.8882 31.7107 92.6044 30.9042 90.0393 30.789C86.6579 30.789 29.5083 30.789 29.5083 30.789L19.5945 0.115218V0H19.4774H5.59879C5.01548 0 4.54809 0.115218 3.96478 0.230436C1.63277 0.807753 0 2.65247 0 4.84284C0 6.45712 1.04946 8.0714 2.79939 8.87915C3.26555 9.22481 3.73294 9.34002 4.19909 9.45524C4.66524 9.45524 5.1314 9.57046 5.59879 9.57046H12.596L13.2953 11.876C13.4124 12.1065 24.2585 46.4709 28.4576 60.0789C28.6907 61.0007 29.9732 63.9988 33.4731 63.9988H95.2879C96.5704 63.9988 98.3204 63.7683 99.2527 62.7314C100.186 61.6932 100.069 59.8485 99.836 58.5798Z" fill="white"/>
<path d="M33.9565 24.6162H87.0216C91.3268 24.6162 91.7929 22.1207 91.0949 19.1716C89.5818 13.0454 88.4188 9.07649 87.7209 6.12617C86.4395 1.02103 85.3913 0 78.177 0H25.9258L33.9565 24.6162Z" fill="white"/>
</g>
<defs>
<clipPath id="clip0">
<rect width="100" height="64" fill="white"/>
</clipPath>
</defs>
</svg>
