<svg width="14" height="15" viewBox="0 0 14 15" fill="none" xmlns="http://www.w3.org/2000/svg">
<path d="M12.25 0.75H1.75C0.765625 0.75 0 1.54297 0 2.5V10.375C0 11.3594 0.765625 12.125 1.75 12.125H4.375V14.4219C4.375 14.6406 4.51172 14.75 4.70312 14.75C4.75781 14.75 4.8125 14.75 4.89453 14.6953L8.3125 12.125H12.25C13.207 12.125 14 11.3594 14 10.375V2.5C14 1.54297 13.207 0.75 12.25 0.75ZM13.125 10.375C13.125 10.8672 12.7148 11.25 12.25 11.25H8.01172L7.76562 11.4414L5.25 13.3281V11.25H1.75C1.25781 11.25 0.875 10.8672 0.875 10.375V2.5C0.875 2.03516 1.25781 1.625 1.75 1.625H12.25C12.7148 1.625 13.125 2.03516 13.125 2.5V10.375ZM3.5 5.78125C3.11719 5.78125 2.84375 6.08203 2.84375 6.4375C2.84375 6.82031 3.11719 7.09375 3.5 7.09375C3.85547 7.09375 4.15625 6.82031 4.15625 6.4375C4.15625 6.08203 3.85547 5.78125 3.5 5.78125ZM7 5.78125C6.61719 5.78125 6.34375 6.08203 6.34375 6.4375C6.34375 6.82031 6.61719 7.09375 7 7.09375C7.35547 7.09375 7.65625 6.82031 7.65625 6.4375C7.65625 6.08203 7.35547 5.78125 7 5.78125ZM10.5 5.78125C10.1172 5.78125 9.84375 6.08203 9.84375 6.4375C9.84375 6.82031 10.1172 7.09375 10.5 7.09375C10.8555 7.09375 11.1562 6.82031 11.1562 6.4375C11.1562 6.08203 10.8555 5.78125 10.5 5.78125Z" fill="#3D3D3D"/>
</svg>
