<svg width="204" height="41" viewBox="0 0 204 41" fill="none" xmlns="http://www.w3.org/2000/svg">
<path d="M87.728 8.43809C88.7021 8.74523 89.4649 9.2624 90.0172 9.99033C90.5694 10.7017 90.8448 11.5829 90.8448 12.633C90.8448 14.1205 90.2605 15.2685 89.0919 16.0763C87.9393 16.8683 86.2505 17.2646 84.0261 17.2646H75.2097V0.290596H83.5387C85.6173 0.290596 87.2085 0.686929 88.3123 1.47888C89.4329 2.27082 89.9931 3.34618 89.9931 4.70349C89.9931 5.52781 89.7899 6.26365 89.3841 6.9103C88.9943 7.55767 88.442 8.06693 87.728 8.43809ZM79.1309 3.24979V7.25053H83.052C84.0261 7.25053 84.7649 7.08077 85.2684 6.74126C85.7718 6.40175 86.0232 5.90112 86.0232 5.23793C86.0232 4.57474 85.7718 4.08202 85.2684 3.75833C84.7649 3.41882 84.0261 3.24907 83.052 3.24907H79.1309V3.24979ZM83.734 14.3068C84.7729 14.3068 85.5525 14.1371 86.072 13.7976C86.6075 13.4581 86.8756 12.933 86.8756 12.2216C86.8756 10.8146 85.8286 10.1119 83.734 10.1119H79.1309V14.3068H83.734Z" fill="#2351FF"/>
<path d="M99.6773 3.44328V14.1126H102.623V17.2646H92.7595V14.1126H95.7306V3.44328H92.7595V0.290596H102.623V3.44328H99.6773Z" fill="#2351FF"/>
<path d="M115.262 8.51146H120.609V17.2653H117.638V16.2468C116.453 17.12 114.927 17.5566 113.06 17.5566C111.486 17.5566 110.04 17.2171 108.725 16.5381C107.41 15.8591 106.363 14.8729 105.583 13.5796C104.804 12.2705 104.414 10.7183 104.414 8.92361C104.414 7.1937 104.812 5.658 105.608 4.31651C106.42 2.95847 107.539 1.89967 108.968 1.14009C110.397 0.380509 112.005 0 113.791 0C115.284 0 116.64 0.250316 117.858 0.751667C119.076 1.25302 120.098 1.98023 120.926 2.93402L118.394 5.26167C117.175 3.98491 115.707 3.34618 113.985 3.34618C112.897 3.34618 111.931 3.58067 111.087 4.04965C110.243 4.50209 109.584 5.14874 109.114 5.9896C108.644 6.82974 108.408 7.80007 108.408 8.89916C108.408 10.0472 108.635 11.0247 109.09 11.8332C109.561 12.6417 110.186 13.2559 110.964 13.676C111.744 14.0803 112.596 14.2824 113.522 14.2824C114.902 14.2824 116.063 13.894 117.005 13.1186V11.5591H115.261V8.51146H115.262Z" fill="#2351FF"/>
<path d="M143.69 8.43809C144.664 8.74523 145.427 9.2624 145.98 9.99033C146.531 10.7017 146.807 11.5829 146.807 12.633C146.807 14.1205 146.223 15.2685 145.053 16.0763C143.901 16.8683 142.214 17.2646 139.989 17.2646H131.172V0.290596H139.501C141.579 0.290596 143.17 0.686929 144.275 1.47888C145.395 2.27082 145.955 3.34618 145.955 4.70349C145.955 5.52781 145.753 6.26365 145.346 6.9103C144.956 7.55767 144.404 8.06693 143.69 8.43809ZM135.092 3.24979V7.25053H139.014C139.988 7.25053 140.727 7.08077 141.229 6.74126C141.733 6.40175 141.985 5.90112 141.985 5.23793C141.985 4.57474 141.733 4.08202 141.229 3.75833C140.727 3.41882 139.988 3.24907 139.014 3.24907H135.092V3.24979ZM139.695 14.3068C140.735 14.3068 141.513 14.1371 142.033 13.7976C142.569 13.4581 142.837 12.933 142.837 12.2216C142.837 10.8146 141.789 10.1119 139.695 10.1119H135.092V14.3068H139.695Z" fill="#2351FF"/>
<path d="M157.465 0C159.04 0 160.412 0.30714 161.58 0.921421C162.749 1.5357 163.659 2.44058 164.308 3.63677C164.957 4.83297 165.281 6.28019 165.281 7.97702V17.2646H161.337V13.1905H153.544V17.2646H149.647V7.97774C149.647 6.28091 149.971 4.83368 150.62 3.63749C151.271 2.4413 152.18 1.53642 153.348 0.92214C154.518 0.30714 155.89 0 157.465 0ZM161.337 10.0392V7.61449C161.337 6.20754 160.988 5.14946 160.289 4.43735C159.591 3.71014 158.641 3.34618 157.441 3.34618C156.222 3.34618 155.265 3.70942 154.566 4.43735C153.884 5.14874 153.544 6.20754 153.544 7.61449V10.0392H161.337Z" fill="#2351FF"/>
<path d="M178.212 0C180.242 0 181.825 0.638737 182.962 1.91549C184.099 3.17642 184.666 4.97898 184.666 7.32318V17.2653H180.721V7.44474C180.721 6.0867 180.397 5.06818 179.747 4.38916C179.113 3.69432 178.229 3.34689 177.092 3.34689C175.891 3.34689 174.924 3.71877 174.193 4.46253C173.479 5.18974 173.122 6.273 173.122 7.7116V17.2653H169.177V0.290597H173V2.35211C173.584 1.57598 174.315 0.99407 175.192 0.606368C176.069 0.202123 177.075 0 178.212 0Z" fill="#2351FF"/>
<path d="M197.276 8.51146H203.682V17.2653H200.711V16.2468C199.527 17.12 198 17.5566 196.134 17.5566C194.558 17.5566 193.114 17.2171 191.799 16.5381C190.484 15.8591 189.437 14.8729 188.657 13.5796C187.877 12.2705 187.488 10.7183 187.488 8.92361C187.488 7.1937 187.886 5.658 188.682 4.31651C189.493 2.95847 190.613 1.89967 192.042 1.14009C193.471 0.380509 195.079 0 196.864 0C198.358 0 199.714 0.250316 200.931 0.751667C202.149 1.25302 203.172 1.98023 204 2.93402L201.467 5.26167C200.249 3.98491 198.78 3.34618 197.058 3.34618C195.971 3.34618 195.005 3.58067 194.161 4.04965C193.316 4.50209 192.658 5.14874 192.188 5.9896C191.718 6.83046 191.481 7.80007 191.481 8.89916C191.481 10.0472 191.709 11.0247 192.164 11.8332C192.634 12.6417 193.259 13.2559 194.038 13.676C194.818 14.0803 195.67 14.2824 196.596 14.2824C197.976 14.2824 199.137 13.894 200.078 13.1186V11.5591H197.275V8.51146H197.276Z" fill="#2351FF"/>
<path d="M78.5626 37.4402C79.5075 37.4402 80.2988 37.1661 80.9006 36.6353C81.5016 36.1052 81.8113 35.4542 81.8113 34.6838C81.8113 33.6912 81.2955 32.9208 80.247 32.3735C79.9891 32.2368 79.5768 32.0483 79.0434 31.8253L77.995 31.3463C77.4967 31.1068 77.2388 30.7306 77.2388 30.2335C77.2388 29.6006 77.7196 29.0697 78.5968 29.0697C79.4216 29.0697 80.0751 29.4294 80.5392 30.1479L81.5709 29.2409C81.0208 28.2821 79.8689 27.7685 78.6996 27.7685C77.8231 27.7685 77.1011 28.008 76.5685 28.4878C76.0352 28.9669 75.7772 29.5653 75.7772 30.3012C75.7772 31.26 76.2414 31.9958 77.1528 32.4929C77.359 32.6123 77.7371 32.7835 78.3047 33.023C78.8715 33.2625 79.2329 33.4337 79.4216 33.5366C80.0066 33.8617 80.2988 34.2724 80.2988 34.7687C80.2988 35.4715 79.6278 36.0865 78.6136 36.0865C77.7714 36.0865 76.9116 35.5909 76.379 34.6148L75.2097 35.419C75.8975 36.772 77.187 37.4402 78.5626 37.4402Z" fill="#0B2239"/>
<path d="M87.0242 37.2345V32.1167C87.0242 31.278 87.2654 30.5925 87.7295 30.0623C88.2103 29.5322 88.8296 29.2582 89.6026 29.2582C91.0299 29.2582 91.9923 30.2681 91.9923 32.1174V37.2345H93.5223V31.6887C93.5223 30.44 93.1784 29.4977 92.4739 28.8302C91.7694 28.162 90.9097 27.8376 89.8955 27.8376C88.6402 27.8376 87.54 28.3677 86.9725 29.2064V24.2763H85.4942V37.2337H87.0242V37.2345Z" fill="#0B2239"/>
<path d="M97.155 32.6475C97.155 33.9998 97.6023 35.1464 98.5131 36.0707C99.4245 36.9949 100.576 37.4575 101.969 37.4575C103.361 37.4575 104.513 36.9949 105.424 36.0707C106.335 35.1464 106.781 33.9998 106.781 32.6475C106.781 31.3125 106.317 30.1825 105.406 29.2582C104.495 28.3166 103.36 27.8548 101.968 27.8548C100.576 27.8548 99.4238 28.3173 98.5123 29.2582C97.6023 30.1825 97.155 31.3118 97.155 32.6475ZM105.234 32.6475C105.234 33.5891 104.925 34.3932 104.289 35.06C103.653 35.7283 102.879 36.0534 101.968 36.0534C101.056 36.0534 100.283 35.7283 99.6467 35.06C99.0107 34.3925 98.7018 33.5884 98.7018 32.6475C98.7018 31.7232 99.0107 30.9356 99.6467 30.2681C100.283 29.6006 101.056 29.2582 101.968 29.2582C102.879 29.2582 103.653 29.6013 104.289 30.2681C104.925 30.9349 105.234 31.7232 105.234 32.6475Z" fill="#0B2239"/>
<path d="M115.387 27.8548C114.011 27.8548 112.894 28.4029 112.052 29.4812V28.0771H110.522V41H112.052V35.8822C112.878 36.9259 113.978 37.4567 115.353 37.4567C116.676 37.4567 117.776 36.9942 118.653 36.0699C119.529 35.1284 119.976 33.9991 119.976 32.6641C119.976 31.329 119.529 30.199 118.653 29.2582C117.776 28.3173 116.693 27.8548 115.387 27.8548ZM115.216 36.0534C114.235 36.0534 113.463 35.7283 112.861 35.078C112.276 34.4098 111.984 33.6063 111.984 32.6475C111.984 31.7052 112.276 30.9011 112.861 30.2515C113.463 29.5833 114.236 29.2582 115.216 29.2582C116.178 29.2582 116.952 29.5833 117.554 30.2515C118.155 30.9011 118.447 31.7052 118.447 32.6475C118.447 33.6063 118.155 34.4098 117.554 35.078C116.951 35.7283 116.178 36.0534 115.216 36.0534Z" fill="#0B2239"/>
<path d="M57.9236 33.9451C57.3823 31.0715 56.4351 26.8622 54.7434 19.5786C54.4724 18.3759 53.7285 17.9076 52.2393 17.8408C50.2773 17.8408 17.1192 17.8408 17.1192 17.8408L11.3686 0.0668947V0H11.3009H3.24797C2.90991 0 2.63889 0.0668947 2.30083 0.133789C0.947143 0.467544 0 1.53714 0 2.8067C0 3.74179 0.609086 4.6776 1.62399 5.14514C1.89501 5.3451 2.16531 5.41272 2.43634 5.47889C2.70737 5.47889 2.97767 5.54579 3.24797 5.54579H7.3083L7.71412 6.88224C7.78187 7.01603 14.0753 26.9284 16.5109 34.814C16.6464 35.3477 17.391 37.0856 19.4208 37.0856H55.2855C56.0293 37.0856 57.045 36.9518 57.5863 36.3512C58.1276 35.7506 58.0591 34.6802 57.9236 33.9451Z" fill="#0B2239"/>
<path d="M19.7013 14.2637H50.4893C52.9875 14.2637 53.2571 12.8179 52.852 11.1088C51.9741 7.55911 51.2994 5.25879 50.8936 3.54974C50.1505 0.591263 49.5429 0 45.3572 0H15.0421L19.7013 14.2637Z" fill="#2351FF"/>
</svg>
