<svg width="14" height="15" viewBox="0 0 14 15" fill="none" xmlns="http://www.w3.org/2000/svg">
<path d="M13.4805 10.375L10.5 9.08984C10.418 9.0625 10.2539 9.03516 10.1719 9.03516C9.95312 9.03516 9.65234 9.17188 9.51562 9.33594L8.3125 10.8125C6.69922 10.0195 4.73047 8.07812 3.9375 6.4375L5.41406 5.23438C5.57812 5.09766 5.71484 4.79688 5.71484 4.57812C5.71484 4.49609 5.6875 4.33203 5.66016 4.25L4.375 1.26953C4.26562 0.996094 3.91016 0.777344 3.60938 0.777344C3.55469 0.777344 3.44531 0.777344 3.41797 0.777344L0.65625 1.43359C0.273438 1.51562 0 1.87109 0 2.25391C0 9.17188 5.60547 14.75 12.4961 14.75C12.8789 14.75 13.2344 14.4766 13.3438 14.0938L13.9727 11.332C13.9727 11.3047 13.9727 11.1953 13.9727 11.1406C13.9727 10.8398 13.7539 10.4844 13.4805 10.375ZM12.4688 13.875C6.07031 13.875 0.875 8.67969 0.875 2.28125L3.58203 1.65234L4.83984 4.57812L2.84375 6.21875C4.18359 9.03516 5.71484 10.5664 8.55859 11.9062L10.1719 9.91016L13.0977 11.168L12.4688 13.875Z" fill="#3D3D3D"/>
</svg>
