<svg width="13" height="13" viewBox="0 0 13 13" fill="none" xmlns="http://www.w3.org/2000/svg">
<path d="M10.3906 2.42969C9.26953 1.28125 7.73828 0.625 6.09766 0.625C2.76172 0.625 0.0273438 3.35938 0.0273438 6.69531C0.0273438 7.78906 0.328125 8.82812 0.847656 9.73047L0 12.875L3.19922 12.0547C4.10156 12.5195 5.08594 12.793 6.09766 12.793C9.46094 12.793 12.25 10.0586 12.25 6.72266C12.25 5.08203 11.5391 3.57812 10.3906 2.42969ZM6.09766 11.7539C5.19531 11.7539 4.32031 11.5078 3.52734 11.043L3.36328 10.9336L1.44922 11.4531L1.96875 9.59375L1.83203 9.40234C1.33984 8.58203 1.06641 7.65234 1.06641 6.69531C1.06641 3.93359 3.33594 1.66406 6.125 1.66406C7.46484 1.66406 8.72266 2.18359 9.67969 3.14062C10.6367 4.09766 11.2109 5.35547 11.2109 6.72266C11.2109 9.48438 8.88672 11.7539 6.09766 11.7539ZM8.88672 7.98047C8.72266 7.89844 7.98438 7.54297 7.84766 7.48828C7.71094 7.43359 7.60156 7.40625 7.49219 7.57031C7.41016 7.70703 7.10938 8.0625 7.02734 8.17188C6.91797 8.25391 6.83594 8.28125 6.69922 8.19922C5.79688 7.76172 5.22266 7.40625 4.62109 6.39453C4.45703 6.12109 4.78516 6.14844 5.05859 5.57422C5.11328 5.46484 5.08594 5.38281 5.05859 5.30078C5.03125 5.21875 4.70312 4.48047 4.59375 4.17969C4.45703 3.87891 4.34766 3.90625 4.23828 3.90625C4.15625 3.90625 4.04688 3.90625 3.96484 3.90625C3.85547 3.90625 3.69141 3.93359 3.55469 4.09766C3.41797 4.26172 3.03516 4.61719 3.03516 5.35547C3.03516 6.12109 3.55469 6.83203 3.63672 6.94141C3.71875 7.02344 4.70312 8.55469 6.23438 9.21094C7.19141 9.64844 7.57422 9.67578 8.06641 9.59375C8.33984 9.56641 8.94141 9.23828 9.07812 8.88281C9.21484 8.52734 9.21484 8.22656 9.16016 8.17188C9.13281 8.08984 9.02344 8.0625 8.88672 7.98047Z" fill="#3D3D3D"/>
</svg>
