<svg width="204" height="41" viewBox="0 0 204 41" fill="none" xmlns="http://www.w3.org/2000/svg">
<path d="M87.7293 8.43809C88.7034 8.74523 89.4662 9.2624 90.0184 9.99033C90.5707 10.7017 90.8461 11.5829 90.8461 12.633C90.8461 14.1205 90.2618 15.2685 89.0931 16.0763C87.9405 16.8683 86.2517 17.2646 84.0274 17.2646H75.2109V0.290596H83.54C85.6186 0.290596 87.2098 0.686929 88.3136 1.47888C89.4341 2.27082 89.9944 3.34618 89.9944 4.70349C89.9944 5.52781 89.7911 6.26365 89.3853 6.9103C88.9955 7.55767 88.4433 8.06693 87.7293 8.43809ZM79.1321 3.24979V7.25053H83.0533C84.0274 7.25053 84.7662 7.08077 85.2696 6.74126C85.773 6.40175 86.0244 5.90112 86.0244 5.23793C86.0244 4.57474 85.773 4.08202 85.2696 3.75833C84.7662 3.41882 84.0274 3.24907 83.0533 3.24907H79.1321V3.24979ZM83.7352 14.3068C84.7742 14.3068 85.5537 14.1371 86.0732 13.7976C86.6087 13.4581 86.8768 12.933 86.8768 12.2216C86.8768 10.8146 85.8299 10.1119 83.7352 10.1119H79.1321V14.3068H83.7352Z" fill="white"/>
<path d="M99.6756 3.44328V14.1126H102.621V17.2646H92.7578V14.1126H95.7289V3.44328H92.7578V0.290596H102.621V3.44328H99.6756Z" fill="white"/>
<path d="M115.262 8.51146H120.609V17.2653H117.638V16.2468C116.453 17.12 114.927 17.5566 113.059 17.5566C111.486 17.5566 110.039 17.2171 108.725 16.5381C107.409 15.8591 106.363 14.8729 105.583 13.5796C104.803 12.2705 104.414 10.7183 104.414 8.92361C104.414 7.1937 104.811 5.658 105.607 4.31651C106.419 2.95847 107.539 1.89967 108.968 1.14009C110.396 0.380509 112.004 0 113.791 0C115.284 0 116.639 0.250316 117.858 0.751667C119.076 1.25302 120.097 1.98023 120.926 2.93402L118.393 5.26167C117.175 3.98491 115.706 3.34618 113.985 3.34618C112.897 3.34618 111.931 3.58067 111.086 4.04965C110.243 4.50209 109.584 5.14874 109.114 5.9896C108.643 6.82974 108.407 7.80007 108.407 8.89916C108.407 10.0472 108.635 11.0247 109.09 11.8332C109.561 12.6417 110.186 13.2559 110.964 13.676C111.743 14.0803 112.596 14.2824 113.521 14.2824C114.902 14.2824 116.062 13.894 117.004 13.1186V11.5591H115.261V8.51146H115.262Z" fill="white"/>
<path d="M143.689 8.43809C144.664 8.74523 145.427 9.2624 145.979 9.99033C146.531 10.7017 146.807 11.5829 146.807 12.633C146.807 14.1205 146.223 15.2685 145.053 16.0763C143.901 16.8683 142.213 17.2646 139.989 17.2646H131.172V0.290596H139.501C141.579 0.290596 143.17 0.686929 144.275 1.47888C145.395 2.27082 145.955 3.34618 145.955 4.70349C145.955 5.52781 145.753 6.26365 145.346 6.9103C144.956 7.55767 144.403 8.06693 143.689 8.43809ZM135.092 3.24979V7.25053H139.013C139.988 7.25053 140.727 7.08077 141.229 6.74126C141.733 6.40175 141.985 5.90112 141.985 5.23793C141.985 4.57474 141.733 4.08202 141.229 3.75833C140.727 3.41882 139.988 3.24907 139.013 3.24907H135.092V3.24979ZM139.695 14.3068C140.734 14.3068 141.513 14.1371 142.033 13.7976C142.569 13.4581 142.837 12.933 142.837 12.2216C142.837 10.8146 141.789 10.1119 139.695 10.1119H135.092V14.3068H139.695Z" fill="white"/>
<path d="M157.466 0C159.041 0 160.413 0.30714 161.582 0.921421C162.75 1.5357 163.66 2.44058 164.309 3.63677C164.959 4.83297 165.283 6.28019 165.283 7.97702V17.2646H161.338V13.1905H153.546V17.2646H149.648V7.97774C149.648 6.28091 149.973 4.83368 150.622 3.63749C151.272 2.4413 152.182 1.53642 153.35 0.92214C154.52 0.30714 155.892 0 157.466 0ZM161.338 10.0392V7.61449C161.338 6.20754 160.989 5.14946 160.291 4.43735C159.593 3.71014 158.643 3.34618 157.442 3.34618C156.223 3.34618 155.266 3.70942 154.568 4.43735C153.886 5.14874 153.546 6.20754 153.546 7.61449V10.0392H161.338Z" fill="white"/>
<path d="M178.211 0C180.241 0 181.824 0.638737 182.961 1.91549C184.098 3.17642 184.665 4.97898 184.665 7.32318V17.2653H180.72V7.44474C180.72 6.0867 180.396 5.06818 179.746 4.38916C179.113 3.69432 178.228 3.34689 177.091 3.34689C175.89 3.34689 174.923 3.71877 174.193 4.46253C173.478 5.18974 173.121 6.273 173.121 7.7116V17.2653H169.176V0.290597H172.999V2.35211C173.584 1.57598 174.314 0.99407 175.191 0.606368C176.068 0.202123 177.074 0 178.211 0Z" fill="white"/>
<path d="M197.276 8.51146H203.682V17.2653H200.711V16.2468C199.527 17.12 198 17.5566 196.134 17.5566C194.558 17.5566 193.114 17.2171 191.799 16.5381C190.483 15.8591 189.437 14.8729 188.657 13.5796C187.877 12.2705 187.488 10.7183 187.488 8.92361C187.488 7.1937 187.886 5.658 188.682 4.31651C189.493 2.95847 190.613 1.89967 192.042 1.14009C193.471 0.380509 195.079 0 196.864 0C198.358 0 199.714 0.250316 200.931 0.751667C202.149 1.25302 203.172 1.98023 204 2.93402L201.467 5.26167C200.248 3.98491 198.78 3.34618 197.058 3.34618C195.971 3.34618 195.005 3.58067 194.161 4.04965C193.316 4.50209 192.657 5.14874 192.188 5.9896C191.718 6.83046 191.481 7.80007 191.481 8.89916C191.481 10.0472 191.709 11.0247 192.164 11.8332C192.634 12.6417 193.259 13.2559 194.038 13.676C194.818 14.0803 195.67 14.2824 196.595 14.2824C197.976 14.2824 199.137 13.894 200.078 13.1186V11.5591H197.275V8.51146H197.276Z" fill="white"/>
<path d="M78.5638 37.4402C79.5088 37.4402 80.3 37.1661 80.9018 36.6353C81.5029 36.1052 81.8125 35.4542 81.8125 34.6838C81.8125 33.6912 81.2967 32.9208 80.2483 32.3735C79.9904 32.2368 79.578 32.0483 79.0447 31.8253L77.9963 31.3463C77.4979 31.1068 77.24 30.7306 77.24 30.2335C77.24 29.6006 77.7209 29.0697 78.5981 29.0697C79.4228 29.0697 80.0763 29.4294 80.5404 30.1479L81.5721 29.2409C81.022 28.2821 79.8702 27.7685 78.7008 27.7685C77.8243 27.7685 77.1023 28.008 76.5697 28.4878C76.0364 28.9669 75.7785 29.5653 75.7785 30.3012C75.7785 31.26 76.2426 31.9958 77.154 32.4929C77.3602 32.6123 77.7384 32.7835 78.3059 33.023C78.8727 33.2625 79.2341 33.4337 79.4228 33.5366C80.0079 33.8617 80.3 34.2724 80.3 34.7687C80.3 35.4715 79.629 36.0865 78.6148 36.0865C77.7726 36.0865 76.9129 35.5909 76.3803 34.6148L75.2109 35.419C75.8987 36.772 77.1883 37.4402 78.5638 37.4402Z" fill="white"/>
<path d="M87.0261 37.2345V32.1167C87.0261 31.278 87.2673 30.5925 87.7314 30.0623C88.2122 29.5322 88.8315 29.2582 89.6045 29.2582C91.0318 29.2582 91.9942 30.2681 91.9942 32.1174V37.2345H93.5242V31.6887C93.5242 30.44 93.1803 29.4977 92.4758 28.8302C91.7713 28.162 90.9116 27.8376 89.8974 27.8376C88.6421 27.8376 87.5419 28.3677 86.9744 29.2064V24.2763H85.4961V37.2337H87.0261V37.2345Z" fill="white"/>
<path d="M97.1562 32.6475C97.1562 33.9998 97.6036 35.1464 98.5143 36.0707C99.4257 36.9949 100.578 37.4575 101.97 37.4575C103.362 37.4575 104.514 36.9949 105.425 36.0707C106.336 35.1464 106.782 33.9998 106.782 32.6475C106.782 31.3125 106.318 30.1825 105.407 29.2582C104.496 28.3166 103.361 27.8548 101.969 27.8548C100.577 27.8548 99.425 28.3173 98.5136 29.2582C97.6036 30.1825 97.1562 31.3118 97.1562 32.6475ZM105.235 32.6475C105.235 33.5891 104.926 34.3932 104.29 35.06C103.654 35.7283 102.88 36.0534 101.969 36.0534C101.058 36.0534 100.284 35.7283 99.648 35.06C99.0119 34.3925 98.703 33.5884 98.703 32.6475C98.703 31.7232 99.0119 30.9356 99.648 30.2681C100.284 29.6006 101.058 29.2582 101.969 29.2582C102.88 29.2582 103.654 29.6013 104.29 30.2681C104.926 30.9349 105.235 31.7232 105.235 32.6475Z" fill="white"/>
<path d="M115.388 27.8548C114.013 27.8548 112.896 28.4029 112.053 29.4812V28.0771H110.523V41H112.053V35.8822C112.879 36.9259 113.979 37.4567 115.354 37.4567C116.678 37.4567 117.778 36.9942 118.654 36.0699C119.531 35.1284 119.977 33.9991 119.977 32.6641C119.977 31.329 119.531 30.199 118.654 29.2582C117.778 28.3173 116.694 27.8548 115.388 27.8548ZM115.217 36.0534C114.236 36.0534 113.464 35.7283 112.862 35.078C112.277 34.4098 111.985 33.6063 111.985 32.6475C111.985 31.7052 112.277 30.9011 112.862 30.2515C113.464 29.5833 114.237 29.2582 115.217 29.2582C116.179 29.2582 116.953 29.5833 117.555 30.2515C118.156 30.9011 118.449 31.7052 118.449 32.6475C118.449 33.6063 118.157 34.4098 117.555 35.078C116.952 35.7283 116.179 36.0534 115.217 36.0534Z" fill="white"/>
<path d="M57.9236 33.9451C57.3823 31.0715 56.4351 26.8622 54.7434 19.5786C54.4724 18.3759 53.7285 17.9076 52.2393 17.8408C50.2773 17.8408 17.1192 17.8408 17.1192 17.8408L11.3686 0.0668947V0H11.3009H3.24797C2.90991 0 2.63889 0.0668947 2.30083 0.133789C0.947143 0.467544 0 1.53714 0 2.8067C0 3.74179 0.609086 4.6776 1.62399 5.14514C1.89501 5.3451 2.16531 5.41272 2.43634 5.47889C2.70737 5.47889 2.97767 5.54579 3.24797 5.54579H7.3083L7.71412 6.88224C7.78187 7.01603 14.0753 26.9284 16.5109 34.814C16.6464 35.3477 17.391 37.0856 19.4208 37.0856H55.2855C56.0293 37.0856 57.045 36.9518 57.5863 36.3512C58.1276 35.7506 58.0591 34.6802 57.9236 33.9451Z" fill="white"/>
<path d="M19.7022 14.2637H50.4902C52.9884 14.2637 53.258 12.8179 52.8529 11.1088C51.975 7.55911 51.3003 5.25879 50.8945 3.54974C50.1514 0.591263 49.5437 0 45.3581 0H15.043L19.7022 14.2637Z" fill="white"/>
</svg>
