<svg width="48" height="38" viewBox="0 0 48 38" fill="none" xmlns="http://www.w3.org/2000/svg">
<path d="M42.5391 0.875C40.5703 0.957031 30.7266 1.61328 24.5742 4.89453C24.2461 5.05859 23.6719 5.05859 23.3438 4.89453C17.1914 1.61328 7.34766 0.957031 5.37891 0.875C2.58984 0.875 0.375 3.08984 0.375 5.79688V30.0781C0.375 32.7031 2.42578 34.7539 5.05078 34.918C7.92188 35.082 15.0586 35.5742 19.9805 37.3789C20.4727 37.543 20.8828 37.625 21.293 37.625H26.543C27.0352 37.625 27.4453 37.543 27.9375 37.3789C32.8594 35.5742 39.9961 35.082 42.8672 34.918C45.4922 34.7539 47.543 32.7031 47.543 30.0781V5.79688C47.625 3.08984 45.3281 0.875 42.5391 0.875ZM22.6875 33.7695C22.6875 34.5078 22.0312 35.082 21.375 35.082C21.2109 35.082 21.1289 35 20.9648 35C15.7969 33.0312 8.74219 32.457 5.21484 32.293C3.98438 32.2109 3 31.3086 3 30.0781V5.79688C3 4.56641 4.06641 3.58203 5.37891 3.58203C6.9375 3.58203 15.3867 4.15625 21.1289 6.69922C22.0312 7.10938 22.6055 8.01172 22.6055 8.99609L22.6875 17.1992V33.7695ZM45 30.0781C45 31.3086 43.9336 32.2109 42.7031 32.293C39.1758 32.457 32.1211 33.0312 26.9531 35C26.7891 35 26.707 35.082 26.543 35.082C25.8867 35.082 25.2305 34.5078 25.2305 33.7695V17.1992L25.3125 8.99609C25.3125 8.01172 25.8867 7.10938 26.7891 6.69922C32.5312 4.15625 40.9805 3.58203 42.5391 3.58203C43.8516 3.58203 44.918 4.56641 44.918 5.79688V30.0781H45Z" fill="#C4C4C4"/>
</svg>
