<svg width="42" height="43" viewBox="0 0 42 43" fill="none" xmlns="http://www.w3.org/2000/svg">
<path d="M37.0781 35.6875C37.0781 34.7852 36.3398 34.0469 35.4375 34.0469C34.5352 34.0469 33.7969 34.7852 33.7969 35.6875C33.7969 36.5898 34.5352 37.3281 35.4375 37.3281C36.3398 37.3281 37.0781 36.5898 37.0781 35.6875ZM30.1875 34.0469C29.2852 34.0469 28.5469 34.7852 28.5469 35.6875C28.5469 36.5898 29.2852 37.3281 30.1875 37.3281C31.0898 37.3281 31.8281 36.5898 31.8281 35.6875C31.8281 34.7852 31.0898 34.0469 30.1875 34.0469ZM42 30.1094C42 28.1406 40.3594 26.5 38.3906 26.5H30.1875L34.8633 21.9062C36.9141 19.8555 35.4375 16.3281 32.4844 16.3281H28.2188V3.53125C28.2188 1.72656 26.7422 0.25 24.9375 0.25H17.0625C15.1758 0.25 13.7812 1.72656 13.7812 3.53125V16.3281H9.43359C6.48047 16.3281 5.00391 19.8555 7.13672 21.9062L11.7305 26.5H3.60938C1.55859 26.5 0 28.1406 0 30.1094V38.6406C0 40.6914 1.55859 42.25 3.60938 42.25H38.3906C40.3594 42.25 42 40.6914 42 38.6406V30.1094ZM20.5078 31.5859L8.94141 20.0195C8.53125 19.6094 8.85938 18.9531 9.43359 18.9531H16.4062V3.53125C16.4062 3.20312 16.6523 2.875 17.0625 2.875H24.9375C25.2656 2.875 25.5938 3.20312 25.5938 3.53125V18.9531H32.4844C33.0586 18.9531 33.3867 19.6094 32.9766 20.0195L21.4102 31.5859C21.1641 31.832 20.7539 31.832 20.5078 31.5859ZM39.375 30.1094V38.6406C39.375 39.2148 38.8828 39.625 38.3906 39.625H3.60938C3.03516 39.625 2.625 39.2148 2.625 38.6406V30.1094C2.625 29.6172 3.03516 29.125 3.60938 29.125H14.3555L18.6211 33.4727C19.9336 34.7031 21.9844 34.7031 23.2969 33.4727L27.5625 29.125H38.3906C38.8828 29.125 39.375 29.6172 39.375 30.1094Z" fill="#C4C4C4"/>
</svg>
