<svg width="24" height="24" viewBox="0 0 24 24" fill="none" xmlns="http://www.w3.org/2000/svg">
<path d="M16.3594 2.48438C15.375 1.6875 13.6875 0 12 0C10.2656 0 8.625 1.64062 7.59375 2.48438C6 3.75 2.48438 6.60938 0.796875 7.96875C0.328125 8.34375 0 9.09375 0 9.70312V21.75C0 23.0156 0.984375 24 2.25 24H21.75C22.9688 24 24 23.0156 24 21.75V9.70312C24 9.09375 23.625 8.34375 23.1562 7.96875C21.4688 6.60938 17.9531 3.75 16.3594 2.48438ZM21.75 22.5H2.25C1.82812 22.5 1.5 22.1719 1.5 21.75V9.70312C1.5 9.46875 1.59375 9.23438 1.73438 9.09375C3 8.10938 7.45312 4.5 8.53125 3.65625C9.375 3 10.875 1.5 12 1.5C13.0781 1.5 14.5781 3 15.4219 3.65625C16.5 4.5 20.9531 8.10938 22.2188 9.09375C22.3594 9.23438 22.5 9.46875 22.5 9.70312V21.75C22.5 22.1719 22.125 22.5 21.75 22.5ZM21.3281 12.375L21.0938 12.0938C20.9062 11.8594 20.5312 11.8125 20.2969 12C19.2188 12.8906 17.7188 14.0625 15.4219 15.8906C14.625 16.5469 13.0781 18.0469 12 18C10.875 18.0469 9.32812 16.5469 8.53125 15.8906C6.23438 14.0625 4.73438 12.8906 3.65625 12C3.42188 11.8125 3.04688 11.8594 2.85938 12.0938L2.625 12.375C2.4375 12.6094 2.48438 12.9844 2.71875 13.1719C3.79688 14.0625 5.29688 15.2344 7.59375 17.0625C8.57812 17.8594 10.2656 19.5469 11.9531 19.5C13.6875 19.5469 15.375 17.8594 16.3594 17.0625C18.6562 15.2344 20.1562 14.0625 21.2344 13.1719C21.4688 12.9844 21.5156 12.6094 21.3281 12.375Z" fill="#666666"/>
</svg>
