<svg width="32" height="43" viewBox="0 0 32 43" fill="none" xmlns="http://www.w3.org/2000/svg">
<path d="M30.5195 8.28906L23.7109 1.39844C22.9727 0.660156 21.9062 0.25 20.9219 0.25H4.1875C1.97266 0.25 0.25 2.05469 0.25 4.1875V38.3125C0.25 40.5273 1.97266 42.25 4.1875 42.25H27.8125C29.9453 42.25 31.75 40.5273 31.75 38.3125V11.0781C31.75 10.0938 31.2578 9.02734 30.5195 8.28906ZM28.7148 10.1758C28.8789 10.3398 28.9609 10.5859 29.043 10.75H21.25V2.95703C21.4141 3.03906 21.6602 3.12109 21.8242 3.28516L28.7148 10.1758ZM27.8125 39.625H4.1875C3.44922 39.625 2.875 39.0508 2.875 38.3125V4.1875C2.875 3.53125 3.44922 2.875 4.1875 2.875H18.625V11.4062C18.625 12.5547 19.4453 13.375 20.5938 13.375H29.125V38.3125C29.125 39.0508 28.4688 39.625 27.8125 39.625ZM26.0078 25.5977C24.8594 24.5312 21.4961 24.8594 19.9375 25.1055C18.2148 24.0391 17.0664 22.5625 16.2461 20.4297C16.5742 18.9531 17.2305 16.5742 16.7383 15.0977C16.4102 12.8008 13.457 13.0469 13.1289 14.5234C12.7188 16.082 13.0469 18.2148 13.7852 20.9219C12.8008 23.2188 11.3242 26.418 10.3398 28.2227C8.61719 29.043 5.91016 30.6016 5.5 32.4883C5.25391 33.8828 7.38672 35.6875 9.84766 32.9805C10.5859 32.2422 11.4062 31.0117 12.3906 29.2891C14.6055 28.5508 17.0664 27.6484 19.1172 27.3203C20.9219 28.3047 23.0547 28.9609 24.4492 28.9609C26.7461 28.9609 26.8281 26.5 26.0078 25.5977ZM7.14062 32.8984C7.63281 31.5859 9.51953 30.1094 10.0938 29.5352C8.28906 32.4883 7.14062 32.9805 7.14062 32.8984ZM15.0156 14.6875C15.6719 14.6875 15.5898 17.7227 15.1797 18.625C14.6875 17.2305 14.7695 14.6875 15.0156 14.6875ZM12.6367 27.7305C13.5391 26.0898 14.3594 24.2031 15.0156 22.5625C15.8359 23.957 16.8203 25.1055 17.8867 25.9258C15.918 26.3359 14.1953 27.1562 12.6367 27.7305ZM25.2695 27.2383C25.2695 27.2383 24.7773 27.8125 21.6602 26.5C25.0234 26.2539 25.5977 27.0742 25.2695 27.2383Z" fill="#C4C4C4"/>
</svg>
