<svg width="24" height="24" viewBox="0 0 24 24" fill="none" xmlns="http://www.w3.org/2000/svg">
<path d="M12 0.375C5.4375 0.375 0.375 5.20312 0.375 11.6719C0.375 15.0469 1.73438 18 4.03125 20.0156C4.40625 20.3906 4.3125 20.5781 4.40625 22.7344C4.40625 23.25 4.82812 23.625 5.34375 23.625C5.4375 23.625 5.57812 23.625 5.71875 23.5781C8.15625 22.5 8.20312 22.4062 8.625 22.5C15.7969 24.4688 23.625 19.875 23.625 11.6719C23.625 5.20312 18.5625 0.375 12 0.375ZM18.9844 9.09375L15.5625 14.4844C15.2812 14.9531 14.625 15.3281 14.1094 15.3281C13.7812 15.3281 13.3125 15.1406 13.0312 14.9531L10.3125 12.9375C10.2188 12.8438 10.0312 12.7969 9.89062 12.7969C9.79688 12.7969 9.60938 12.8438 9.46875 12.9375L5.8125 15.7031C5.29688 16.0781 4.6875 15.4688 5.01562 14.9531L8.4375 9.5625C8.71875 9.09375 9.375 8.76562 9.89062 8.76562C10.2188 8.76562 10.6875 8.90625 10.9688 9.09375L13.6875 11.1094C13.7812 11.2031 13.9688 11.25 14.1094 11.25C14.25 11.25 14.4375 11.2031 14.5312 11.1094L18.1875 8.34375C18.7031 7.96875 19.3125 8.57812 18.9844 9.09375Z" fill="#008AF9"/>
</svg>
