<svg width="23" height="24" viewBox="0 0 23 24" fill="none" xmlns="http://www.w3.org/2000/svg">
<path d="M22.8203 22.5273L17.0254 16.7324C16.9355 16.6426 16.8008 16.5977 16.666 16.5977H16.1719C17.7441 14.8906 18.6875 12.6895 18.6875 10.2188C18.6875 5.09766 14.4648 0.875 9.34375 0.875C4.17773 0.875 0 5.09766 0 10.2188C0 15.3848 4.17773 19.5625 9.34375 19.5625C11.7695 19.5625 14.0156 18.6191 15.6777 17.0918V17.541C15.6777 17.7207 15.7227 17.8555 15.8125 17.9453L21.6074 23.7402C21.832 23.9648 22.1465 23.9648 22.3711 23.7402L22.8203 23.291C23.0449 23.0664 23.0449 22.752 22.8203 22.5273ZM9.34375 18.125C4.94141 18.125 1.4375 14.6211 1.4375 10.2188C1.4375 5.86133 4.94141 2.3125 9.34375 2.3125C13.7012 2.3125 17.25 5.86133 17.25 10.2188C17.25 14.6211 13.7012 18.125 9.34375 18.125Z" fill="#3D3D3D"/>
</svg>
