<svg width="24" height="24" viewBox="0 0 24 24" fill="none" xmlns="http://www.w3.org/2000/svg">
<path d="M12 0.375C5.57812 0.375 0.375 5.57812 0.375 12C0.375 18.4219 5.57812 23.625 12 23.625C18.4219 23.625 23.625 18.4219 23.625 12C23.625 5.57812 18.4219 0.375 12 0.375ZM17.6719 8.34375L15.7969 17.3438C15.6562 18 15.2812 18.1406 14.7188 17.8594L11.8125 15.7031L10.4062 17.0625C10.2656 17.2031 10.125 17.3438 9.84375 17.3438L10.0312 14.3906L15.4219 9.51562C15.6562 9.32812 15.375 9.1875 15.0469 9.375L8.39062 13.5938L5.53125 12.7031C4.92188 12.5156 4.92188 12.0469 5.67188 11.7656L16.875 7.45312C17.3906 7.26562 17.8594 7.59375 17.6719 8.34375Z" fill="#6CC1E3"/>
</svg>
