<svg width="41" height="42" viewBox="0 0 41 42" fill="none" xmlns="http://www.w3.org/2000/svg">
<path d="M20.5 0.90625C9.26172 0.90625 0.15625 10.0117 0.15625 21.25C0.15625 32.4883 9.26172 41.5938 20.5 41.5938C31.7383 41.5938 40.8438 32.4883 40.8438 21.25C40.8438 10.0117 31.7383 0.90625 20.5 0.90625ZM31 35.5234C28.0469 37.7383 24.3555 38.9688 20.5 38.9688C16.5625 38.9688 12.8711 37.7383 10 35.5234V34.375C10 31.5039 12.2969 29.125 15.25 29.125C16.1523 29.125 17.4648 30.1094 20.5 30.1094C23.4531 30.1094 24.7656 29.125 25.75 29.125C28.6211 29.125 31 31.5039 31 34.375V35.5234ZM33.4609 33.3086C32.8867 29.4531 29.6875 26.5 25.75 26.5C24.0273 26.5 23.207 27.4844 20.5 27.4844C17.7109 27.4844 16.8906 26.5 15.25 26.5C11.2305 26.5 8.03125 29.4531 7.45703 33.3086C4.50391 30.1094 2.78125 25.9258 2.78125 21.25C2.78125 11.4883 10.6562 3.53125 20.5 3.53125C30.2617 3.53125 38.2188 11.4883 38.2188 21.25C38.2188 25.9258 36.4141 30.1094 33.4609 33.3086ZM20.5 10.0938C16.4805 10.0938 13.2812 13.375 13.2812 17.3125C13.2812 21.332 16.4805 24.5312 20.5 24.5312C24.4375 24.5312 27.7188 21.332 27.7188 17.3125C27.7188 13.375 24.4375 10.0938 20.5 10.0938ZM20.5 21.9062C17.957 21.9062 15.9062 19.8555 15.9062 17.3125C15.9062 14.8516 17.957 12.7188 20.5 12.7188C22.9609 12.7188 25.0938 14.8516 25.0938 17.3125C25.0938 19.8555 22.9609 21.9062 20.5 21.9062Z" fill="#C4C4C4"/>
</svg>
