<svg width="22" height="22" viewBox="0 0 22 22" fill="none" xmlns="http://www.w3.org/2000/svg">
<path d="M18.3125 3.59375C16.3906 1.625 13.7656 0.5 10.9531 0.5C5.23438 0.5 0.546875 5.1875 0.546875 10.9062C0.546875 12.7812 1.0625 14.5625 1.95312 16.1094L0.5 21.5L5.98438 20.0938C7.53125 20.8906 9.21875 21.3594 10.9531 21.3594C16.7188 21.3594 21.5 16.6719 21.5 10.9531C21.5 8.14062 20.2812 5.5625 18.3125 3.59375ZM10.9531 19.5781C9.40625 19.5781 7.90625 19.1562 6.54688 18.3594L6.26562 18.1719L2.98438 19.0625L3.875 15.875L3.64062 15.5469C2.79688 14.1406 2.32812 12.5469 2.32812 10.9062C2.32812 6.17188 6.21875 2.28125 11 2.28125C13.2969 2.28125 15.4531 3.17188 17.0938 4.8125C18.7344 6.45312 19.7188 8.60938 19.7188 10.9531C19.7188 15.6875 15.7344 19.5781 10.9531 19.5781ZM15.7344 13.1094C15.4531 12.9688 14.1875 12.3594 13.9531 12.2656C13.7188 12.1719 13.5312 12.125 13.3438 12.4062C13.2031 12.6406 12.6875 13.25 12.5469 13.4375C12.3594 13.5781 12.2188 13.625 11.9844 13.4844C10.4375 12.7344 9.45312 12.125 8.42188 10.3906C8.14062 9.92188 8.70312 9.96875 9.17188 8.98438C9.26562 8.79688 9.21875 8.65625 9.17188 8.51562C9.125 8.375 8.5625 7.10938 8.375 6.59375C8.14062 6.07812 7.95312 6.125 7.76562 6.125C7.625 6.125 7.4375 6.125 7.29688 6.125C7.10938 6.125 6.82812 6.17188 6.59375 6.45312C6.35938 6.73438 5.70312 7.34375 5.70312 8.60938C5.70312 9.92188 6.59375 11.1406 6.73438 11.3281C6.875 11.4688 8.5625 14.0938 11.1875 15.2188C12.8281 15.9688 13.4844 16.0156 14.3281 15.875C14.7969 15.8281 15.8281 15.2656 16.0625 14.6562C16.2969 14.0469 16.2969 13.5312 16.2031 13.4375C16.1562 13.2969 15.9688 13.25 15.7344 13.1094Z" fill="#25D366"/>
</svg>
